<?xml version="1.0" encoding="utf-8"?>
<!-- Generator: Adobe Illustrator 22.0.1, SVG Export Plug-In . SVG Version: 6.00 Build 0)  -->
<svg version="1.1" id="Layer_1" xmlns="http://www.w3.org/2000/svg" xmlns:xlink="http://www.w3.org/1999/xlink" x="0px" y="0px"
	 viewBox="0 0 1440 720" enable-background="new 0 0 1440 720" xml:space="preserve">
<rect fill="#B71C1C" width="1440" height="720"/>
<g opacity="0.10">
	<path fill="#FFFFFF" d="M699.9,214.8c-14.4-10.2-30.6-16.8-47.9-19.7h-0.3l-0.2,0.2c-10.2,14.4-16.9,30.5-20,47.8l-0.1,0.5l0.5,0.1
		c16.9,1.9,33.4,8.6,47.5,19.4l0.6,0.5l0.1-0.8c2.4-17.6,9.2-33.9,19.9-47.3l0.3-0.4L699.9,214.8z"/>
	<path fill="#FFFFFF" d="M808.1,476.4c-16.9-1.9-33.3-8.6-47.5-19.4l-0.6-0.5l-0.1,0.8c-2.4,17.6-9.2,34-19.9,47.3l-0.3,0.4l0.4,0.3
		c14.4,10.2,30.6,16.8,47.9,19.7h0.3l0.2-0.2c10.2-14.4,16.9-30.5,20-47.9l0.1-0.5L808.1,476.4z"/>
	<path fill="#FFFFFF" d="M808.5,243.1c-3-17.4-9.8-33.5-20-47.8l-0.2-0.2H788c-17.4,2.9-33.5,9.6-47.9,19.7l-0.4,0.3l0.3,0.4
		c10.6,13.3,17.5,29.7,19.9,47.3l0.1,0.8l0.6-0.5c14.1-10.8,30.5-17.5,47.5-19.4l0.5-0.1L808.5,243.1z"/>
	<path fill="#FFFFFF" d="M700,504.6c-10.6-13.3-17.5-29.7-19.9-47.3l-0.1-0.8l-0.6,0.5c-14.1,10.8-30.5,17.5-47.5,19.4l-0.5,0.1
		l0.1,0.5c3,17.4,9.8,33.5,20,47.9l0.2,0.2h0.3c17.4-2.9,33.5-9.6,47.9-19.7l0.4-0.3L700,504.6z"/>
	<path fill="#FFFFFF" d="M745,277.2c-4.9-16.4-13.3-31.3-24.7-44.2l-0.3-0.4l-0.3,0.4c-11.3,12.7-19.8,28-24.7,44.2l-0.1,0.2
		l0.2,0.2c11,12.6,19.5,28,24.5,44.7l0.4,1.4l0.4-1.4c5-16.7,13.5-32.1,24.5-44.7l0.2-0.2L745,277.2z"/>
	<path fill="#FFFFFF" d="M745,442.4c-11-12.6-19.5-28-24.5-44.7l-0.4-1.4l-0.4,1.4c-5,16.6-13.5,32.1-24.5,44.7l-0.2,0.2l0.1,0.2
		c4.9,16.2,13.4,31.5,24.7,44.2l0.3,0.4l0.3-0.4c11.3-12.7,19.8-28,24.7-44.2l0.1-0.2L745,442.4z"/>
	<path fill="#FFFFFF" d="M682.3,359.6c-16.7-5-32.1-13.5-44.7-24.5l-0.2-0.2l-0.2,0.1c-16.2,4.9-31.5,13.4-44.2,24.7l-0.4,0.3
		l0.4,0.3c12.7,11.3,28,19.8,44.2,24.7l0.2,0.1l0.2-0.2c12.6-11,28-19.5,44.7-24.5l1.4-0.4L682.3,359.6z"/>
	<path fill="#FFFFFF" d="M847,359.7c-12.7-11.3-28-19.8-44.2-24.7l-0.2-0.1l-0.2,0.2c-12.6,11-28,19.5-44.7,24.5l-1.4,0.4l1.4,0.4
		c16.6,5,32.1,13.5,44.7,24.5l0.2,0.2l0.2-0.1c16.2-4.9,31.5-13.4,44.2-24.7l0.4-0.3L847,359.7z"/>
	<path fill="#FFFFFF" d="M622.7,399.9c-17.6-2.4-33.9-9.2-47.3-19.9l-0.4-0.3l-0.3,0.4c-10.2,14.4-16.8,30.6-19.7,47.9v0.3l0.2,0.2
		c14.4,10.2,30.5,16.9,47.8,20l0.5,0.1l0.1-0.5c1.9-16.9,8.6-33.4,19.4-47.5l0.5-0.6L622.7,399.9z"/>
	<path fill="#FFFFFF" d="M884.8,291.5c-14.4-10.2-30.5-16.9-47.9-20l-0.5-0.1l-0.1,0.5c-1.9,16.9-8.6,33.3-19.4,47.5l-0.5,0.6
		l0.8,0.1c17.6,2.4,34,9.2,47.3,19.9l0.4,0.3l0.3-0.4c10.2-14.4,16.8-30.6,19.7-47.9v-0.3L884.8,291.5z"/>
	<path fill="#FFFFFF" d="M623,319.4c-10.8-14.1-17.5-30.5-19.4-47.5l-0.1-0.5l-0.5,0.1c-17.4,3-33.5,9.8-47.8,20l-0.2,0.2v0.3
		c2.9,17.4,9.6,33.5,19.7,47.9l0.3,0.4l0.4-0.3c13.3-10.6,29.7-17.5,47.3-19.9l0.8-0.1L623,319.4z"/>
	<path fill="#FFFFFF" d="M885,428.1c-2.9-17.4-9.6-33.5-19.7-47.9l-0.3-0.4l-0.4,0.3c-13.3,10.6-29.7,17.5-47.3,19.9l-0.8,0.1
		l0.5,0.6c10.8,14.1,17.5,30.5,19.4,47.5l0.1,0.5l0.5-0.1c17.4-3,33.5-9.8,47.9-20l0.2-0.2L885,428.1z"/>
	<path fill="#FFFFFF" d="M693.7,333.1c-8.2-15.3-13.2-32.3-14.3-48.9V284l-0.2-0.1c-14.9-8-31.8-12.8-48.7-13.8H630v0.5
		c1,17,5.8,33.8,13.8,48.7l0.1,0.2h0.2c16.7,1.1,33.6,6,48.9,14.3l1.3,0.7L693.7,333.1z"/>
	<path fill="#FFFFFF" d="M810,449.5c-1-17-5.8-33.8-13.8-48.7l-0.1-0.2h-0.2c-16.7-1.1-33.6-6-48.9-14.2l-1.3-0.7l0.7,1.3
		c8.2,15.3,13.1,32.2,14.2,48.9v0.2l0.2,0.1c14.9,8,31.7,12.8,48.7,13.8h0.5L810,449.5z"/>
	<path fill="#FFFFFF" d="M693.1,386.3c-15.3,8.2-32.3,13.2-48.9,14.3H644l-0.1,0.2c-8,14.9-12.8,31.8-13.8,48.7v0.5h0.5
		c17-1,33.8-5.8,48.7-13.8l0.2-0.1v-0.2c1.1-16.7,6-33.6,14.3-48.9l0.7-1.3L693.1,386.3z"/>
	<path fill="#FFFFFF" d="M809.5,270c-17.2,1-33.6,5.7-48.7,13.8l-0.2,0.1v0.2c-1.1,16.7-6,33.6-14.2,48.9l-0.7,1.3l1.3-0.7
		c15.3-8.2,32.2-13.1,48.9-14.2h0.2l0.1-0.2c8-14.9,12.8-31.7,13.8-48.7V270L809.5,270z"/>
</g>
</svg>
