<?xml version="1.0" encoding="utf-8"?>
<!-- Generator: Adobe Illustrator 22.0.1, SVG Export Plug-In . SVG Version: 6.00 Build 0)  -->
<svg version="1.1" id="Layer_1" xmlns="http://www.w3.org/2000/svg" xmlns:xlink="http://www.w3.org/1999/xlink" x="0px" y="0px"
	 viewBox="0 0 300 160" enable-background="new 0 0 300 160" xml:space="preserve">
<rect fill="#008080" width="300" height="160"/>
<g opacity="5.000000e-02">
	<path fill="#FFFFFF" d="M142.1,22.9c-5.7-4-12-6.6-18.8-7.7h-0.1l-0.1,0.1c-4,5.7-6.6,12-7.9,18.8l0,0.2l0.2,0
		c6.6,0.7,13.1,3.4,18.7,7.6l0.2,0.2l0-0.3c0.9-6.9,3.6-13.3,7.8-18.6l0.1-0.2L142.1,22.9z"/>
	<path fill="#FFFFFF" d="M184.6,125.8c-6.6-0.7-13.1-3.4-18.7-7.6l-0.2-0.2l0,0.3c-0.9,6.9-3.6,13.4-7.8,18.6l-0.1,0.2l0.2,0.1
		c5.7,4,12,6.6,18.8,7.7h0.1l0.1-0.1c4-5.7,6.6-12,7.9-18.8l0-0.2L184.6,125.8z"/>
	<path fill="#FFFFFF" d="M184.8,34c-1.2-6.8-3.9-13.2-7.9-18.8l-0.1-0.1h-0.1c-6.8,1.1-13.2,3.8-18.8,7.7l-0.2,0.1l0.1,0.2
		c4.2,5.2,6.9,11.7,7.8,18.6l0,0.3l0.2-0.2c5.5-4.2,12-6.9,18.7-7.6l0.2,0L184.8,34z"/>
	<path fill="#FFFFFF" d="M142.1,136.9c-4.2-5.2-6.9-11.7-7.8-18.6l0-0.3l-0.2,0.2c-5.5,4.2-12,6.9-18.7,7.6l-0.2,0l0,0.2
		c1.2,6.8,3.9,13.2,7.9,18.8l0.1,0.1h0.1c6.8-1.1,13.2-3.8,18.8-7.7l0.2-0.1L142.1,136.9z"/>
	<path fill="#FFFFFF" d="M159.8,47.4c-1.9-6.5-5.2-12.3-9.7-17.4l-0.1-0.2l-0.1,0.2c-4.4,5-7.8,11-9.7,17.4l0,0.1l0.1,0.1
		c4.3,5,7.7,11,9.6,17.6l0.2,0.6l0.2-0.6c2-6.6,5.3-12.6,9.6-17.6L159.8,47.4L159.8,47.4z"/>
	<path fill="#FFFFFF" d="M159.8,112.4c-4.3-5-7.7-11-9.6-17.6l-0.2-0.6l-0.2,0.6c-2,6.5-5.3,12.6-9.6,17.6l-0.1,0.1l0,0.1
		c1.9,6.4,5.3,12.4,9.7,17.4l0.1,0.2l0.1-0.2c4.4-5,7.8-11,9.7-17.4L159.8,112.4L159.8,112.4z"/>
	<path fill="#FFFFFF" d="M135.2,79.8c-6.6-2-12.6-5.3-17.6-9.6l-0.1-0.1l-0.1,0c-6.4,1.9-12.4,5.3-17.4,9.7L99.9,80l0.2,0.1
		c5,4.4,11,7.8,17.4,9.7l0.1,0l0.1-0.1c5-4.3,11-7.7,17.6-9.6l0.6-0.2L135.2,79.8z"/>
	<path fill="#FFFFFF" d="M200,79.9c-5-4.4-11-7.8-17.4-9.7l-0.1,0l-0.1,0.1c-5,4.3-11,7.7-17.6,9.6l-0.6,0.2l0.6,0.2
		c6.5,2,12.6,5.3,17.6,9.6l0.1,0.1l0.1,0c6.4-1.9,12.4-5.3,17.4-9.7l0.2-0.1L200,79.9z"/>
	<path fill="#FFFFFF" d="M111.7,95.7c-6.9-0.9-13.3-3.6-18.6-7.8l-0.2-0.1l-0.1,0.2c-4,5.7-6.6,12-7.7,18.8v0.1l0.1,0.1
		c5.7,4,12,6.6,18.8,7.9l0.2,0l0-0.2c0.7-6.6,3.4-13.1,7.6-18.7l0.2-0.2L111.7,95.7z"/>
	<path fill="#FFFFFF" d="M214.8,53c-5.7-4-12-6.6-18.8-7.9l-0.2,0l0,0.2c-0.7,6.6-3.4,13.1-7.6,18.7l-0.2,0.2l0.3,0
		c6.9,0.9,13.4,3.6,18.6,7.8l0.2,0.1l0.1-0.2c4-5.7,6.6-12,7.7-18.8L214.8,53L214.8,53z"/>
	<path fill="#FFFFFF" d="M111.8,64c-4.2-5.5-6.9-12-7.6-18.7l0-0.2l-0.2,0C97.1,46.3,90.8,49,85.2,53l-0.1,0.1v0.1
		c1.1,6.8,3.8,13.2,7.7,18.8l0.1,0.2l0.2-0.1c5.2-4.2,11.7-6.9,18.6-7.8l0.3,0L111.8,64z"/>
	<path fill="#FFFFFF" d="M214.9,106.8c-1.1-6.8-3.8-13.2-7.7-18.8l-0.1-0.2l-0.2,0.1c-5.2,4.2-11.7,6.9-18.6,7.8l-0.3,0l0.2,0.2
		c4.2,5.5,6.9,12,7.6,18.7l0,0.2l0.2,0c6.8-1.2,13.2-3.9,18.8-7.9l0.1-0.1L214.9,106.8z"/>
	<path fill="#FFFFFF" d="M139.6,69.4c-3.2-6-5.2-12.7-5.6-19.2v-0.1l-0.1,0c-5.9-3.1-12.5-5-19.2-5.4h-0.2v0.2
		c0.4,6.7,2.3,13.3,5.4,19.2l0,0.1h0.1c6.6,0.4,13.2,2.4,19.2,5.6l0.5,0.3L139.6,69.4z"/>
	<path fill="#FFFFFF" d="M185.4,115.2c-0.4-6.7-2.3-13.3-5.4-19.2l0-0.1h-0.1c-6.6-0.4-13.2-2.4-19.2-5.6l-0.5-0.3l0.3,0.5
		c3.2,6,5.2,12.7,5.6,19.2v0.1l0.1,0c5.9,3.1,12.5,5,19.2,5.4h0.2L185.4,115.2z"/>
	<path fill="#FFFFFF" d="M139.4,90.3c-6,3.2-12.7,5.2-19.2,5.6h-0.1l0,0.1c-3.1,5.9-5,12.5-5.4,19.2v0.2h0.2
		c6.7-0.4,13.3-2.3,19.2-5.4l0.1,0v-0.1c0.4-6.6,2.4-13.2,5.6-19.2l0.3-0.5L139.4,90.3z"/>
	<path fill="#FFFFFF" d="M185.2,44.6C178.4,45,172,46.8,166,50l-0.1,0v0.1c-0.4,6.6-2.4,13.2-5.6,19.2l-0.3,0.5l0.5-0.3
		c6-3.2,12.7-5.2,19.2-5.6h0.1l0-0.1c3.1-5.9,5-12.5,5.4-19.2v-0.2H185.2z"/>
</g>
</svg>
