<?xml version="1.0" encoding="utf-8"?>
<!-- Generator: Adobe Illustrator 22.0.1, SVG Export Plug-In . SVG Version: 6.00 Build 0)  -->
<svg version="1.1" id="Layer_1" xmlns="http://www.w3.org/2000/svg" xmlns:xlink="http://www.w3.org/1999/xlink" x="0px" y="0px"
	 viewBox="0 0 230 80" enable-background="new 0 0 230 80" xml:space="preserve">
<g>
	<path fill="#10238C" d="M49,68.5c2.5,0.8,4.6,0.5,6.6-0.8c3.5-2.4,5.3-5.9,6.4-9.8c1.2-4.5,1.5-9.2,1.5-13.9c0-10.2,0-20.5,0-30.8
		c0-0.2,0-0.6-0.1-0.9c-0.8-0.2-1.6-0.4-2.6-0.7c1.7-0.9,3.2-1.7,4.9-2.6c0.1,0.4,0.1,0.7,0.1,0.9c0,12.4,0.1,24.7-0.1,37.1
		c-0.1,4.9-0.7,9.9-2.6,14.5c-1.6,4.1-4.2,7.3-8.3,8.8c-2.8,1.1-5.4,0.9-7.6-1.6c-1.1-1.3-2.7-2.1-4-3.2c-1.4-1.3-3.1-2.5-4-4.1
		c-0.9-1.5-1.3-3.3-1.4-5c-0.2-4.6-0.2-9.2-0.3-13.9c-0.1-5.7,0-11.5,0-17.2c0-0.8,0.2-1.3,1-1.7c3.7-2,7.4-4,11.3-6
		c0,0.6,0.1,1,0.1,1.4c0,8.8,0.1,17.7-0.1,26.5c-0.1,3.7-0.6,7.3-1.2,11c-0.4,2.2-1.5,4.4-3.5,5.8c-0.6,0.4-1.2,0.7-2,1.2
		c1.7,0.4,3.2,0.7,4.6-0.6c2.3-2.1,3.6-4.7,4-7.6c0.5-3.2,0.8-6.4,0.9-9.7c0.2-8.6,0.1-17.1,0.2-25.7c0-1.3-0.2-2.1-1.6-2.1
		c-0.2,0-0.5-0.1-1.1-0.2c1.7-1,3.3-1.7,4.9-2.6c0.1,0.5,0.1,0.8,0.1,1.2c0,9.2,0.1,18.5,0,27.7c-0.1,3.9-0.3,7.8-0.9,11.6
		c-0.7,4.9-3.1,8.7-8.2,10.7c1.6,0.3,2.7,0.7,4,0.2c3.8-1.7,5.8-4.9,6.7-8.7c0.7-3.1,1.2-6.4,1.2-9.6c0.2-10.3,0.1-20.6,0.2-30.9
		c0-1.4-0.3-2.1-1.7-2.1c-0.2,0-0.4-0.1-0.9-0.2c1.6-1.1,3.1-1.8,4.9-2.7c0,0.6,0.1,1.1,0.1,1.5c0,10.5,0.1,20.9,0,31.3
		c-0.1,5.1-0.3,10.3-2.2,15.2c-1.4,3.5-3.5,6.4-7,7.9C50.5,68.1,49.8,68.3,49,68.5z"/>
	<g>
		<path fill="#10238C" d="M91.5,62.3c0,0.2,0,0.5,0,0.7c-2.4,0-4.9,0-7.3,0c0-0.2,0-0.5,0-0.8c0.3-0.1,0.6-0.1,0.9-0.2
			c0.8-0.2,1.2-0.6,1.2-1.4c0.1-0.9,0-1.8,0-2.7c0-1.7,0-3.5,0-5.4c-2.2,0-4.5,0-6.7,0c0,0.2,0,0.5,0,0.7c0,2.2,0,4.5,0,6.7
			c0,1.6,0.3,2,1.9,2.1c0.1,0,0.2,0,0.3,0.1c0,0.2,0,0.5,0,0.8c-2.4,0-4.9,0-7.3,0c0-0.2,0-0.5,0-0.8c0.1,0,0.2-0.1,0.2-0.1
			c1.6-0.2,1.9-0.5,1.9-2.1c0-4.9,0-9.8,0-14.7c0-2-0.2-2.1-2.1-2.5c0-0.1-0.1-0.2-0.1-0.3c0-0.2,0-0.2,0-0.4c2.5,0,4.9,0,7.3,0
			c0,0.2,0,0.5,0,0.7c-0.1,0-0.1,0.1-0.2,0.1c-1.9,0.2-2.1,0.5-2.1,2.4c0,2,0,4,0,6.1c2.2,0,4.5,0,6.7,0c0-1,0-2,0-3
			c0-1.2,0-2.3,0-3.5c0-1.5-0.4-1.9-1.9-2.1c-0.1,0-0.2,0-0.3-0.1c0-0.2,0-0.5,0-0.8c2.4,0,4.8,0,7.3,0c0,0.2,0,0.5,0,0.7
			c-0.1,0-0.1,0.1-0.2,0.1c-1.7,0.2-2,0.5-2,2.2c0,4.9,0,9.8,0,14.8C89.4,61.7,89.5,61.9,91.5,62.3z"/>
		<path fill="#10238C" d="M106.5,50.1c1.2,0.7,1.5,1.6,1,2.6c-0.2,0.7-0.7,1-1.4,0.9c-0.7,0-1.1-0.4-1.2-1.2
			c-0.3-1.3,0.2-2.8,1.6-3.5c2-1.2,4.1-1.2,6.1-0.1c1.2,0.7,1.6,1.8,1.6,3.1c0,2.8,0,5.5,0,8.3c0,0.3,0,0.7,0.1,1
			c0.1,0.2,0.4,0.5,0.6,0.5c0.2,0,0.6-0.2,0.6-0.5c0.2-0.6,0.2-1.2,0.3-1.9c0-0.2,0.1-0.2,0.1-0.4c0.2,0,0.5,0,0.9,0
			c-0.1,1-0.2,2.1-0.3,3.1c1,0.2,1.9-0.3,1.9-1.5c0-5.4,0-10.7,0-16.1c0-0.9-0.4-1.4-1.3-1.6c-0.2,0-0.4-0.1-0.6-0.1
			c-0.2-0.8-0.1-0.9,0.7-0.9c1.2,0,2.5,0,3.9,0c0,0.2,0,0.4,0,0.7c0,5.8,0,11.5,0,17.2c0,1.9,0.1,2.1,1.9,2.4c0,0.1,0,0.2,0.1,0.3
			c0,0.2,0,0.2,0,0.4c-2.1,0-4.3,0-6.4,0c-0.1-0.2-0.1-0.4-0.2-0.7c-1.9,1.9-3.6,1.5-4.7-1.2c-0.2,0.2-0.3,0.5-0.5,0.7
			c-1.2,2.1-4.5,2-5.8,0.9c-1.3-1-1.7-3.1-0.7-4.5c0.5-0.7,1.2-1.5,2.1-2c1.3-0.7,2.8-1.3,4.3-1.9c0.5-0.2,0.7-0.4,0.7-0.9
			c-0.1-0.8,0-1.6-0.1-2.5c-0.1-1.2-0.7-1.9-2-2C108.3,48.9,107.3,49.2,106.5,50.1z M111.6,55.3c-1.6,0.6-3.1,1.2-4,2.5
			c-0.8,1.1-0.9,2.2-0.5,3.5c0.3,1.2,1.4,1.6,2.5,1c0.9-0.4,1.3-1.2,1.6-2.1C111.6,58.6,111.6,57,111.6,55.3z"/>
		<path fill="#10238C" d="M144.6,37.3c0-0.6,0-1.2,0-2c-0.2,0.2-0.2,0.2-0.3,0.3c-1.4,2.9-4.9,2.7-6.8,0.4c-1.1-1.3-1.6-2.8-1.7-4.4
			c-0.2-2.3,0-4.5,1.2-6.5c0.9-1.5,2.1-2.6,3.9-2.7c1.2-0.2,2.2,0.2,3.1,1.2c0.2,0.2,0.3,0.4,0.6,0.8c0-0.3,0.1-0.5,0.1-0.7
			c0-1.6,0-3.1,0-4.7c0-1.4-0.2-1.6-1.6-1.8c-0.2,0-0.2-0.1-0.4-0.1c0-0.2,0-0.5,0-0.8c1.5-0.1,3-0.2,4.5-0.2c0,0.3,0,0.6,0,0.8
			c0,5.5,0,11.1,0,16.6c0,0.2,0,0.5,0,0.7c0,1.4,0.3,1.8,1.7,2.1c0,0.2,0,0.5,0,0.9C147.4,37.3,146.1,37.3,144.6,37.3z M144.6,30.2
			L144.6,30.2c-0.2-0.8-0.2-1.6-0.2-2.4c-0.2-1.2-0.4-2.5-1.2-3.5c-1-1.2-2.7-1.2-3.5,0.2c-0.3,0.6-0.6,1.2-0.7,1.7
			c-0.5,2.1-0.5,4.4-0.2,6.5c0.1,0.9,0.3,1.8,0.7,2.6c0.7,1.6,2.6,1.9,3.7,0.5c0.4-0.5,0.7-1.1,0.8-1.6
			C144.2,33,144.4,31.6,144.6,30.2z"/>
		<path fill="#10238C" d="M145.5,62.3c0,0.2,0,0.5,0,0.8c-1.5,0-2.9,0-4.5,0c0-0.2,0-0.5,0-0.7c0-3.3,0-6.7,0-10
			c0-0.5-0.1-1-0.2-1.4c-0.3-1.4-1.6-1.9-2.8-1.2c-1.3,0.7-2,2.1-2.1,3.5c-0.2,1.6-0.1,3.1-0.2,4.7c0,0.8,0,1.6,0,2.5
			c0,1.2,0.3,1.6,1.6,1.8c0.1,0,0.2,0,0.3,0.1c0,0.2,0,0.5,0,0.8c-2.1,0-4.3,0-6.4,0c-0.2-0.6-0.1-0.8,0.6-0.9
			c0.9-0.1,1.3-0.7,1.3-1.6c0-5.3,0-10.6,0-15.8c0-1.2-0.2-1.5-1.5-1.6c-0.2,0-0.3-0.1-0.5-0.1c0-0.2,0-0.5,0-0.8
			c1.5-0.1,3-0.2,4.5-0.2c0,3,0,5.9,0,8.8c0.1,0,0.1,0.1,0.2,0.1c0.2-0.2,0.3-0.4,0.4-0.7c1.4-2.1,4-2.6,5.8-1.1
			c1,0.8,1.3,1.9,1.3,3.1c0,2.6,0,5.3,0,7.8C143.6,61.6,143.9,61.9,145.5,62.3z"/>
		<path fill="#10238C" d="M75.9,16.3c2.1,0,4,0,5.9,0c0,0.2,0,0.5,0,0.8c-0.3,0.1-0.7,0.2-1.1,0.2c-0.6,0.1-0.9,0.5-1,1.2
			c0,0.2,0,0.5,0,0.7c0,4.5,0,8.9,0,13.4c0,1.6,0.4,3,1.8,3.9c2.8,1.6,6.3-0.2,6.4-3.5c0.1-4.6,0-9.2,0-13.8c0-1.3-0.7-1.8-2.3-2
			c0-0.2,0-0.6,0-0.8c1.9,0,3.8,0,5.7,0c0,0.2,0,0.6,0,0.8c-0.2,0-0.2,0.1-0.4,0.1c-1.2,0.2-1.7,0.7-1.9,1.9c0,0.3-0.1,0.7-0.1,1.1
			c0,4.1,0,8.3,0,12.5c-0.1,3.1-1.9,4.9-4.9,5.1c-1,0.1-2.1,0-3.1-0.2c-2.7-0.7-4.1-2.6-4.1-5.6c0-4.1,0-8.2,0-12.4
			c0-0.3,0-0.7-0.1-1.1c-0.1-0.4-0.4-0.7-0.6-1.1C76.1,17.1,76,16.7,75.9,16.3z"/>
		<path fill="#10238C" d="M95.4,22.7c0,0.8,0,1.6,0,2.6c0.1,0,0.1,0.1,0.2,0.1c0.2-0.2,0.3-0.6,0.5-0.8c1.2-1.8,2.9-2.6,4.8-2
			c1.2,0.3,1.9,1.2,2.2,2.3c0.2,0.7,0.2,1.3,0.2,2c0,2.5,0,4.9,0,7.4c0,1.8,0.1,1.9,1.9,2.3c0,0.1,0,0.2,0.1,0.3c0,0.2,0,0.2,0,0.4
			c-1.5,0-2.9,0-4.5,0c0-0.2,0-0.5,0-0.7c0-3.2,0-6.4,0-9.7c0-0.6,0-1.1-0.2-1.6c-0.2-1.5-1.6-2-2.8-1.2c-1.1,0.6-1.6,1.6-1.9,2.7
			c-0.2,0.9-0.3,1.8-0.3,2.6c-0.1,1.6,0,3.1,0,4.6c0,2,0.2,2.1,2,2.6c0,0.2,0,0.5,0,0.7c-2.1,0-4.3,0-6.4,0c0-0.2,0-0.5,0-0.8
			c0.2-0.1,0.5-0.1,0.8-0.2c0.7-0.2,1.1-0.7,1.1-1.4c0-3.3,0-6.7,0-10c0-0.8-0.2-1.2-1.1-1.3c-0.2-0.1-0.5-0.1-0.8-0.1
			c-0.2-0.7-0.2-0.9,0.6-0.9C92.9,22.7,94.1,22.7,95.4,22.7z"/>
		<path fill="#10238C" d="M170,59.5c0.2,0,0.3-0.1,0.4-0.1s0.2,0,0.5,0c-0.2,1-0.2,2.1-0.5,3c-0.2,1.1-1.1,1.6-2.2,1.6
			s-1.9-0.6-2.2-1.6c-0.1-0.2-0.1-0.4-0.2-0.8c-0.2,0.3-0.3,0.5-0.5,0.7c-1.3,2.1-4.3,2.1-5.9,1.1c-1.6-1.2-1.7-3.8-0.2-5.4
			c1.2-1.2,2.6-1.8,4.2-2.5c0.6-0.2,1.2-0.4,1.8-0.7c0.2-0.1,0.4-0.3,0.4-0.5c0-1,0-2-0.1-2.9c-0.1-1.1-0.7-1.6-1.7-1.8
			c-1.2-0.2-2.3,0.1-3.3,1.1c1.2,0.3,1.3,1.2,1.2,2.1c-0.1,0.8-0.7,1.4-1.5,1.4c-0.7,0-1.2-0.5-1.4-1.3c-0.2-1.4,0.5-2.9,1.9-3.5
			c1.9-1,3.9-0.9,5.8,0c1.3,0.7,1.7,1.9,1.7,3.2c0,2.9,0,5.8,0,8.6c0,0.5-0.1,1.2,0.6,1.3c0.8,0.1,0.7-0.7,0.8-1.2
			C169.9,60.5,169.9,60,170,59.5z M165.8,55.7c-1.3,0.3-2.5,0.9-3.4,1.7c-1.2,1.1-1.6,2.4-1.3,3.9c0.3,1.6,1.8,2.1,3,1.1
			c0.4-0.3,0.7-0.8,1-1.2C165.8,59.5,165.8,57.7,165.8,55.7z"/>
		<path fill="#10238C" d="M192.5,56.2c-1.2,0-2.5,0-3.6,0c-1.3,0-2.6,0-4,0c-0.7,0-1,0.1-0.8,0.8c0.2,1.1,0.3,2.1,0.6,3.2
			c0.1,0.4,0.3,0.8,0.6,1.2c1.2,1.8,3.6,2.1,5,0.4c0.6-0.7,0.9-1.6,1.3-2.6c0.1-0.2,0.1-0.5,0.2-0.7c0.2,0.1,0.5,0.1,0.8,0.2
			c-0.2,2-0.9,3.8-2.7,4.8c-1.9,1-3.8,0.8-5.5-0.4c-2-1.4-2.9-3.4-3.1-5.7c-0.2-2.3,0.1-4.6,1.6-6.6c2.4-3.2,6.8-2.9,8.7,0.6
			C192.2,52.8,192.5,54.4,192.5,56.2z M189.6,55.1c0-1.6,0-3.1-0.7-4.4c-0.5-1.2-1.6-1.6-2.7-1.2c-0.6,0.2-1.2,0.8-1.4,1.4
			c-0.4,1.2-0.5,2.5-0.7,3.7c0,0.1,0.2,0.3,0.3,0.3C186,55.1,187.8,55.1,189.6,55.1z"/>
		<path fill="#10238C" d="M103.6,55.7c-1.5,0-2.9,0-4.3,0c-1.4,0-2.7,0-4.2,0c0,2.1,0.2,4.1,1.6,5.8c1.2,1.5,3.7,1.3,4.9-0.3
			c0.6-0.9,0.9-1.9,1.4-3.1c0.1,0,0.3,0,0.7,0.1c-0.1,1.4-0.5,2.6-1.4,3.6c-1.7,2.1-5,2.3-7.2,0.5c-2.3-1.9-3.1-4.5-2.9-7.4
			c0.2-1.9,0.7-3.7,2.1-5.1c2.2-2.5,6-2.1,7.9,0.6C103.1,51.9,103.6,53.7,103.6,55.7z M100.6,54.5c0.1-1.5,0-2.8-0.6-4.1
			c-0.7-1.7-2.9-2-4-0.4c-0.9,1.3-1,2.9-0.9,4.5C97,54.5,98.7,54.5,100.6,54.5z"/>
		<path fill="#10238C" d="M134,29.9c-2.9,0-5.7,0-8.5,0c0.1,1.9,0.2,3.7,1.3,5.4c1.3,1.9,4,1.9,5.4-0.2c0.5-0.8,0.8-1.8,1.2-2.8
			c0.2,0,0.3,0.1,0.7,0.1c-0.2,1.4-0.6,2.7-1.5,3.8c-1.8,2.1-5.1,2.1-7.3,0.2c-2.1-1.8-2.8-4.3-2.6-6.9c0.1-1.8,0.6-3.5,1.7-5
			c2.5-3.1,6.8-2.6,8.6,0.8C133.7,26.6,134,28.2,134,29.9z M131.1,28.8c0.1-1.5-0.1-2.8-0.6-4c-0.7-1.6-2.6-2.1-3.8-0.7
			c-1.2,1.3-1.2,3.1-1.2,4.8C127.4,28.8,129.2,28.8,131.1,28.8z"/>
		<path fill="#10238C" d="M130.4,57.7c0.3,0,0.6,0,0.9,0c0.1,1.2,0.2,2.5-0.2,3.7c-0.5,1.6-1.6,2.2-3.5,2.1
			c-1.4-0.1-2.4-1.1-2.7-2.6c-0.1-0.4-0.1-0.9-0.1-1.3c0-3.1,0-6.2,0-9.2c0-0.2,0-0.5,0-0.8c-0.7,0-1.2,0-1.8,0
			c-0.2-0.6-0.1-0.9,0.5-1.1c2.1-0.9,2.8-2.7,3-4.9c0.1-0.8,0.1-0.8,1-0.7c0,1.4,0,2.8,0,4.2c0,1.3,0,1.3,1.3,1.3c0.7,0,1.5,0,2.1,0
			c0,0,0.1,0,0.2,0.1c0,0.2,0,0.6,0,1c-1.2,0-2.4,0-3.7,0c0,0.3,0,0.6,0,0.7c0,3.4,0,6.8,0,10.1c0,0.2,0,0.5,0.1,0.7
			c0.1,0.6,0.4,1.1,1,1.2c0.7,0.2,1.3-0.2,1.6-0.7c0.2-0.7,0.4-1.3,0.5-2C130.5,59.1,130.4,58.4,130.4,57.7z"/>
		<path fill="#10238C" d="M156.2,58.5c0.3,0,0.6,0.1,0.8,0.1c0.1,2-1.2,4.3-2.8,5c-1.9,0.8-4,0.4-5.7-1.2c-2.8-2.6-3.2-7.7-0.9-11.1
			c1.4-2.1,3.3-3.1,5.9-2.7c2.5,0.4,3.9,2.8,3.1,5.1c-0.2,0.7-0.7,1-1.4,1c-0.7,0-1.2-0.4-1.2-1s-0.1-1.2,0-1.7
			c0.2-0.8,0.8-0.9,1.6-0.8c-0.2-1.2-1.5-1.9-2.8-1.8c-1.2,0.1-2.1,0.7-2.5,1.6c-0.5,1-0.8,2.1-1,3.2c-0.2,2.1-0.2,4.2,0.4,6.3
			c0.5,1.5,1.5,2.3,2.6,2.3c1.6,0.1,2.6-0.6,3.2-2.1c0.2-0.6,0.3-1.2,0.5-1.6C156.1,58.9,156.1,58.7,156.2,58.5z"/>
		<path fill="#10238C" d="M113,23.7c-0.2-0.5-0.1-0.8,0.4-1.1c1.9-0.7,2.7-2.3,3-4.3c0.1-0.4,0.1-0.9,0.2-1.4c0.2,0,0.5,0,0.8,0
			c0,1.9,0,3.7,0,5.6c1.2,0,2.5,0,3.6,0c0,0.4,0,0.7,0,1.1c-1.2,0-2.4,0-3.6,0c0,0.3,0,0.5,0,0.7c0,3.4,0,6.7,0,10.1
			c0,0.3,0,0.6,0.1,0.9c0.1,0.7,0.4,1.2,1.1,1.2c0.7,0.1,1.3-0.2,1.6-0.9c0.2-0.7,0.3-1.6,0.4-2.4c0.1-0.5,0-0.9,0-1.5
			c0.3,0,0.6,0,0.9,0c0.1,1.3,0.1,2.6-0.4,4c-0.5,1.3-1.6,1.9-3.4,1.8c-1.3-0.1-2.4-0.8-2.7-2.1c-0.2-0.5-0.2-1-0.2-1.6
			c0-3.2,0-6.4,0-9.6c0-0.5-0.2-0.7-0.7-0.7C113.7,23.8,113.4,23.7,113,23.7z"/>
		<path fill="#10238C" d="M171.2,49.7c0-0.3,0-0.6,0-0.9c1.3-0.1,2.7-0.1,4.1-0.2c0,1.1,0,2.1,0,3.2c0.1,0,0.1,0,0.2,0
			c0.2-0.5,0.3-1,0.7-1.4c0.5-0.7,0.9-1.3,1.6-1.7c1-0.7,2.3-0.2,2.9,0.8c0.5,0.8,0.5,1.6,0.2,2.6c-0.2,0.6-0.7,1-1.3,0.9
			c-0.7,0-1-0.5-1.2-1.1c-0.3-1.1,0-1.6,1.1-2.4c-0.6-0.4-1.2-0.5-1.7,0.2c-0.5,0.6-1,1.2-1.2,2c-0.4,1.5-0.7,3.1-0.8,4.5s0,3,0,4.4
			c0,1.2,0.3,1.6,1.5,1.8c0.3,0.1,0.7,0.1,1,0.2c0,0.2,0,0.5,0,0.8c-2.3,0-4.5,0-6.8,0c-0.2-0.5-0.1-0.8,0.6-0.9
			c0.7-0.1,1.2-0.6,1.2-1.3c0-3.2,0-6.4-0.1-9.6C172.9,50.3,172.6,50.1,171.2,49.7z"/>
		<path fill="#10238C" d="M106.1,23.4c0-0.3,0-0.6,0-1c1.5,0,3,0,4.5,0c0,0.2,0,0.4,0,0.7c0,3.7,0,7.5,0,11.2c0,1.4,0.2,1.6,1.6,2.1
			c0.2,0.1,0.3,0.5,0.6,0.8c-2.4,0-4.5,0-6.7,0c0-0.2,0-0.5,0-0.8c0.2-0.1,0.5-0.1,0.7-0.2c0.7-0.2,1.2-0.7,1.2-1.5
			c0-3.4,0-6.7,0-10.1c0-0.9-0.4-1.3-1.3-1.4C106.5,23.5,106.4,23.4,106.1,23.4z"/>
		<path fill="#10238C" d="M110.6,18.1c-0.1,0.3-0.2,0.7-0.4,1.2c-0.5,0.9-1.7,0.9-2.3,0c-0.5-0.7-0.5-1.5-0.2-2.2
			c0.2-0.6,0.7-1,1.3-1.1c0.7,0,1.2,0.5,1.4,1.2C110.6,17.4,110.6,17.6,110.6,18.1z"/>
	</g>
</g>
</svg>
