<?xml version="1.0" encoding="utf-8"?>
<!-- Generator: Adobe Illustrator 22.0.1, SVG Export Plug-In . SVG Version: 6.00 Build 0)  -->
<svg version="1.1"
	 id="svg2" inkscape:version="0.48.2 r9819" sodipodi:docname="New document 1" xmlns:cc="http://creativecommons.org/ns#" xmlns:dc="http://purl.org/dc/elements/1.1/" xmlns:inkscape="http://www.inkscape.org/namespaces/inkscape" xmlns:rdf="http://www.w3.org/1999/02/22-rdf-syntax-ns#" xmlns:sodipodi="http://sodipodi.sourceforge.net/DTD/sodipodi-0.dtd" xmlns:svg="http://www.w3.org/2000/svg"
	 xmlns="http://www.w3.org/2000/svg" xmlns:xlink="http://www.w3.org/1999/xlink" x="0px" y="0px" viewBox="0 0 230 80"
	 enable-background="new 0 0 230 80" xml:space="preserve">
<g>
	<g>
		<path id="path3053" inkscape:connector-curvature="0" fill="#0982C6" d="M44.8,35.2c1.6,0,11.9,4.5,11.9,20.9
			c0,7.8-2.7,14.4-4.2,14.4c-0.7,0-1-0.7-1-2c0-2.9,1.1-5.5,1.1-11.6c0-12-4.9-16.8-7.1-19.4c-0.6-0.8-1.2-1.3-1.2-1.8
			C44.3,35.4,44.4,35.2,44.8,35.2 M70.8,35.6c0,0.4-0.5,1-1.2,1.8c-2.2,2.8-7.1,7.5-7.1,19.4c0,6.2,1,8.8,1,11.6c0,1.3-0.3,2-1,2
			c-1.6,0-4.2-6.6-4.2-14.4c0.1-16.2,10.4-20.9,12-20.9C70.7,35.2,70.8,35.4,70.8,35.6"/>
		<path id="path3057" inkscape:connector-curvature="0" fill="#F8971F" d="M53.8,38.5c0,2.1,1.7,3.9,3.7,3.9c2.1,0,3.8-1.8,3.8-3.9
			s-1.7-3.9-3.8-3.9C55.4,34.6,53.8,36.4,53.8,38.5"/>
		<path id="path3061" inkscape:connector-curvature="0" fill="#56B948" d="M38,32.4c-2-0.9-3.5-2.7-3.7-4.4c1.4-1,3.8-1.1,5.8-0.2
			c2,1,2.6,2.5,2.6,3.9C41.5,32.6,40,33.3,38,32.4 M43.6,22c-1.2-2-1.6-4.4-0.8-6.1c1.9,0,4,1.2,5.3,3.2c1.3,2,0.9,3.7,0.1,5
			C46.7,24.3,45,24,43.6,22 M46.6,32.3c-1.6-1.3-2.5-3.4-2.2-5c1.6-0.5,3.7,0,5.2,1.3c1.6,1.4,1.7,2.9,1.3,4.3
			C49.8,33.4,48.2,33.7,46.6,32.3 M51.4,27.3c-0.7-2.2-0.3-4.6,0.9-5.9c1.8,0.4,3.5,2.2,4.1,4.4c0.7,2.3-0.2,3.7-1.3,4.7
			C53.7,30.2,52.1,29.5,51.4,27.3 M43.1,43.2c-1.6,0.3-3.2-0.2-4.1-1.1c0.4-1.2,1.9-2.2,3.4-2.6c1.6-0.4,2.6,0.4,3.2,1.2
			C45.3,41.8,44.7,42.8,43.1,43.2 M38.9,38.6c-1.8-0.2-3.4-1.2-4-2.5c0.9-1.2,2.7-1.8,4.4-1.6c1.9,0.2,2.7,1.3,3,2.4
			C41.9,37.9,40.8,38.8,38.9,38.6 M38.8,25.4c-1.4-1.2-2.2-2.9-2-4.4c1.4-0.4,3.3,0,4.7,1.2s1.5,2.7,1.2,3.7
			C41.7,26.4,40.3,26.6,38.8,25.4 M48.3,16c-0.5-1.8-0.3-3.8,0.7-5c1.5,0.4,2.8,1.9,3.5,3.7c0.6,1.9-0.2,3.1-1.1,4
			C50.2,18.5,48.9,17.9,48.3,16 M25,63.1C25,63.2,25,63.2,25,63.1c0.2,0.1,0.3,0,0.4,0c5.6-2,13.8-4.4,25.4-5.2c0-0.1,0.1-0.6,0.1-1
			c0-0.8-0.1-1.7-0.1-1.9c-11.9,1.1-20.1,4.5-25.5,7.8C25.1,63,25,63,25,63.1 M72.6,31.7c0-1.4,0.5-2.9,2.6-3.9
			c2-0.9,4.3-0.8,5.8,0.2c-0.3,1.8-1.7,3.6-3.7,4.4C75.1,33.3,73.6,32.6,72.6,31.7 M67,24c-0.8-1.2-1.2-2.9,0.1-5
			c1.2-2,3.4-3.2,5.3-3.2c0.8,1.7,0.4,4.2-0.8,6.1C70.2,24,68.4,24.3,67,24 M64.1,32.9c-0.4-1.2-0.4-2.8,1.3-4.3
			c1.6-1.3,3.7-1.9,5.2-1.3c0.3,1.7-0.6,3.6-2.2,5C66.9,33.7,65.4,33.4,64.1,32.9 M60.1,30.5c-1.1-1-2-2.5-1.3-4.7
			c0.7-2.2,2.3-4,4.1-4.4c1.2,1.4,1.6,3.8,0.9,5.9C63.1,29.5,61.5,30.2,60.1,30.5 M69.6,40.8c0.6-0.8,1.6-1.6,3.2-1.2
			c1.6,0.3,2.9,1.3,3.4,2.6c-0.9,1-2.5,1.4-4.1,1.1C70.4,42.8,69.7,41.8,69.6,40.8 M72.7,36.9c0.4-1.1,1.2-2.2,3-2.4
			c1.8-0.2,3.6,0.4,4.4,1.6c-0.6,1.3-2.2,2.3-4,2.5C74.3,38.8,73.3,37.9,72.7,36.9 M72.4,25.9c-0.4-1.2-0.3-2.5,1.2-3.7
			c1.4-1.2,3.3-1.7,4.7-1.2c0.2,1.4-0.5,3.3-2,4.4C74.9,26.6,73.5,26.4,72.4,25.9 M63.7,18.7c-0.9-0.8-1.7-2-1.1-4
			c0.5-1.8,2-3.3,3.5-3.7c1,1.2,1.3,3.2,0.8,5C66.2,17.9,64.9,18.5,63.7,18.7 M89.8,62.8c-5.3-3.3-13.6-6.7-25.4-7.8
			c0,0.2-0.1,1-0.1,1.9c0,0.4,0.1,0.9,0.1,1c11.5,0.7,19.8,3.2,25.4,5.2c0.1,0,0.3,0.1,0.3,0.1c0.1,0,0.1,0,0.1-0.1
			C90.1,63,90.1,63,89.8,62.8 M57.6,20.6c-1.5-0.7-3-2-3-4.8c0-2.7,1.2-5.1,3-6.3c1.8,1.2,3,3.6,3,6.3
			C60.6,18.5,59.1,19.9,57.6,20.6"/>
	</g>
	<path id="path3065" inkscape:connector-curvature="0" fill="#0982C6" d="M121.1,27.7c0,1.9,1.5,3.3,3.4,3.3c1.9,0,3.4-1.4,3.4-3.3
		s-1.5-3.3-3.4-3.3C122.5,24.3,121.1,25.9,121.1,27.7 M147.5,45.1c0,5.2-2,7.5-5,7.5c-3,0-4.7-2.5-4.7-6.9c0-4.5,2.6-8.3,7.5-8.3
		c1,0,1.7,0.1,2.2,0.3L147.5,45.1L147.5,45.1z M147.8,53.7v1.7c0,4.7-2.9,6.5-6.5,6.5c-3.2,0-5.6-1-6.3-1.2v4.6c0.6,0.2,3.2,1,6.9,1
		c6.7,0,11-2.8,11-12V34c-0.8-0.3-4-1.1-7.5-1.1c-9.3,0-13.2,6.2-13.2,12.9c0,6.1,3.1,11,9.1,11C145.1,56.9,147,54.5,147.8,53.7
		C147.7,53.7,147.8,53.7,147.8,53.7z M116.2,50.8c-1.4,0.7-3.9,1.2-6.1,1.2c-6.3,0-10.9-4.5-10.9-11.3s4.6-11.3,10.9-11.3
		c3.1,0,5.3,0.7,6.1,1.2v-4.9c-1.3-0.4-3.6-1.1-6.7-1.1c-9.8,0-16.3,6.7-16.3,16.1c0,8.9,6,16.1,16.3,16.1c3,0,5.2-0.4,6.7-1.1
		C116.2,55.7,116.2,50.8,116.2,50.8z M198.9,45.1c0,5.2-2,7.5-5,7.5c-3,0-4.7-2.5-4.7-6.9c0-4.5,2.6-8.3,7.5-8.3
		c1,0,1.7,0.1,2.2,0.3L198.9,45.1L198.9,45.1z M205,56.4c-0.2-1.3-0.7-4.7-0.7-7.5V34.1c-0.9-0.3-4-1.1-7.5-1.1
		c-9.3,0-13.2,6.2-13.2,12.9c0,6.1,3.1,11,9.1,11c4.3,0,6.3-2.8,7-4.3h0.2c0.1,0.7,0.3,3.1,0.4,3.8C200,56.4,205,56.4,205,56.4z
		 M127.2,33.6h-5.5v22.8h5.5V33.6z M159.1,56.4V40.6c0-2.1-0.2-6.2-0.3-7.1h4.9l0.3,3.2h0.1c0.5-0.9,2.4-3.7,6.7-3.7
		c5.1,0,8.1,3.8,8.1,8.5v14.8h-5.5V42.7c0-2.9-1.6-5.1-4.3-5.1c-2.9,0-4.3,2.3-4.3,5.1v13.8C164.6,56.4,159.1,56.4,159.1,56.4z"/>
</g>
</svg>
