<?xml version="1.0" encoding="utf-8"?>
<!-- Generator: Adobe Illustrator 22.0.1, SVG Export Plug-In . SVG Version: 6.00 Build 0)  -->
<svg version="1.1" id="Layer_1" xmlns="http://www.w3.org/2000/svg" xmlns:xlink="http://www.w3.org/1999/xlink" x="0px" y="0px"
	 viewBox="0 0 230 80" enable-background="new 0 0 230 80" xml:space="preserve">
<g>
	<g>
		<path fill="#231F20" d="M109,29.5c1.5-0.5,2.6-1.7,2.6-3.3c0-3-2.7-4.1-5.4-4h-5.7v15v0.1h5.8c2.3,0.2,6-1,6-4
			C112.3,31.3,110.9,30,109,29.5z M103.7,24.8h2.6c1.3,0,2.1,0.5,2.1,1.7c0,1.2-0.7,1.7-2.1,1.7v0.2h-2.6V24.8z M106.2,34.8h-2.6v-4
			h2.6c1.5,0,2.6,0.2,2.6,2C108.8,34.5,107.7,34.8,106.2,34.8z"/>
		<rect x="114.3" y="22.3" fill="#231F20" width="3.1" height="15"/>
		<path fill="#231F20" d="M127,36.1c-0.7,1-1.7,1.6-3.2,1.6c-1.1,0-3.1-0.8-3.4-2.3c-0.2-0.6-0.2-1.3-0.2-1.7v-6.9h3.1v6.3
			c0,1.2,0.3,2.5,1.8,2.5c1,0,1.8-0.9,1.8-2.5v-6.3h3.1v8.6c0,0.6,0.1,1.2,0.1,1.8h-3.1C127.1,37.3,127,36.1,127,36.1z"/>
		<path fill="#231F20" d="M137.5,35.6c-1.7,0-1.8-1.2-1.8-2.6v-0.1h6.9c0-0.7,0-1.4-0.1-2c-0.1-0.6-0.2-1.2-0.5-1.8
			c-0.9-1.8-2.6-2.6-4.5-2.6c-3.2,0-5,2.5-5,5.6c0,3.5,1.5,5.5,5,5.5c2.5,0,4.5-0.8,4.7-3.4h-2.8C139.2,35.1,138.5,35.6,137.5,35.6z
			 M137.5,28.7c1.5,0,1.8,1.1,1.8,2.2h-3.7C135.7,29.7,136.1,28.7,137.5,28.7z"/>
		<path fill="#231F20" d="M153.1,27.1c0-1.6-1-2.9-2.9-2.9c-2.3,0-2.9,3.4-2.9,5.5s0.6,5.5,2.9,5.5c1.9,0,2.9-1.3,2.9-2.9h3.4
			c-0.2,3.8-2.9,5.2-6.3,5.2c-4.4,0-6.3-3.4-6.3-7.8c0-4.4,1.9-7.8,6.3-7.8c3.5,0,6.2,1.4,6.3,5.2H153.1
			C153.1,27,153.1,27.1,153.1,27.1z"/>
		<path fill="#231F20" d="M161.2,26.8l0.1,1.9c0.7-1.7,2-2.1,3.6-2v2.8h-1.4c-0.5,0-1.2,0.3-1.5,0.8c-0.3,0.6-0.4,1.2-0.4,1.8v5.2
			h-3.1V29c0-0.4-0.1-1.3-0.1-2.1L161.2,26.8L161.2,26.8z"/>
		<path fill="#231F20" d="M171.6,26.5c-3.5,0-5.5,2.3-5.5,5.6c0,3.3,2.1,5.6,5.5,5.6c3.4,0,5.5-2.3,5.5-5.6
			C177.2,28.8,175,26.5,171.6,26.5z M171.6,35.6c-1.9,0-2.2-1.8-2.3-3.5c0-1.7,0.3-3.5,2.3-3.5s2.3,1.8,2.3,3.5
			C174,33.7,173.5,35.6,171.6,35.6z"/>
		<path fill="#231F20" d="M184.7,29.6c0-0.7-0.7-1.1-1.4-1.1c-0.9,0-1.2,0.2-1.2,1c0,1.7,6,0.7,6,4.6c0,2.3-2.8,3.4-4.7,3.4
			c-2.5,0-4.5-1-4.6-3.3h2.9c0.1,0.8,0.8,1.3,1.7,1.3s1.5-0.3,1.5-1.2c0-0.9-1.5-1.2-2.1-1.3c-2-0.4-3.9-1-3.9-3.3
			c0-2.2,2.6-3.1,4.5-3.1c2.2,0,4.1,0.8,4.2,3.1h-2.9C184.7,29.8,184.7,29.6,184.7,29.6z"/>
		<path fill="#231F20" d="M195.1,29.6c0-0.7-0.7-1.1-1.4-1.1c-0.9,0-1.2,0.2-1.2,1c0,1.7,6,0.7,6,4.6c0,2.3-2.8,3.4-4.7,3.4
			c-2.5,0-4.5-1-4.6-3.3h2.9c0.1,0.8,0.8,1.3,1.7,1.3s1.5-0.3,1.5-1.2c0-0.9-1.5-1.2-2.1-1.3c-2-0.4-3.9-1-3.9-3.3
			c0-2.2,2.6-3.1,4.5-3.1c2.2,0,4.1,0.8,4.2,3.1h-2.9V29.6L195.1,29.6z"/>
		<path fill="#231F20" d="M109,50c1.5-0.5,2.6-1.7,2.6-3.3c0-3-2.7-4.1-5.4-4h-5.7v15v0.1h5.8c2.3,0.2,6-1,6-4
			C112.3,51.8,110.9,50.5,109,50z M103.7,45.3h2.6c1.3,0,2.1,0.5,2.1,1.7c0,1.2-0.7,1.7-2.1,1.7l-2.6,0.1V45.3z M106.2,55.3h-2.6v-4
			h2.6c1.5,0,2.6,0.2,2.6,2S107.7,55.3,106.2,55.3z"/>
		<rect x="114.3" y="42.7" fill="#231F20" width="3.1" height="15"/>
		<path fill="#231F20" d="M127,56.5c-0.7,1-1.7,1.6-3.2,1.6c-1.1,0-3.1-0.8-3.4-2.4c-0.2-0.6-0.2-1.3-0.2-1.7v-6.9h3.1v6.4
			c0,1.2,0.3,2.5,1.8,2.5c1,0,1.8-0.9,1.8-2.5v-6.3h3.1v8.6c0,0.6,0.1,1.2,0.1,1.8h-3.1C127.1,57.8,127,56.5,127,56.5z"/>
		<path fill="#231F20" d="M137.5,56.1c-1.7,0-1.8-1.2-1.8-2.6l0,0l6.9-0.1c0-0.7,0-1.4-0.1-2c-0.1-0.6-0.2-1.2-0.5-1.8
			c-0.9-1.8-2.6-2.6-4.5-2.6c-3.2,0-5,2.5-5,5.6c0,3.5,1.5,5.5,5,5.5c2.5,0,4.5-0.8,4.7-3.4h-2.8C139.2,55.6,138.5,56.1,137.5,56.1z
			 M137.5,49.2c1.5,0,1.8,1.1,1.8,2.2h-3.7C135.7,50.3,136.1,49.2,137.5,49.2z"/>
		<path fill="#231F20" d="M152.7,47c-0.1-1.5-1-2.3-2.6-2.3c-1.2,0-2.4,0.6-2.4,1.9c0,1.7,1.5,1.8,2.8,2.1c2.3,0.6,5.7,1.2,5.7,4.3
			c0,3.8-3.2,5-6.4,5c-3.4,0-5.9-1.3-5.8-5.2h3.3c-0.1,1.7,0.9,2.8,2.6,2.8c1.3,0,3-0.4,3-2c0-1.7-2.2-1.9-3.4-2.3
			c-2.1-0.5-5-1.5-5-4.2c0-3.4,3.1-5,6.3-5c2.9,0,5.2,1.6,5.2,4.6C156,47,152.7,47,152.7,47z"/>
		<path fill="#231F20" d="M158.5,57.9V42.7h3.1v5.9c0.6-1,1.7-1.6,3.2-1.6c1.1,0,3.1,0.8,3.4,2.3c0.2,0.6,0.2,1.3,0.2,1.7v6.9h-3.1
			v-6.3c0-1.2-0.3-2.4-1.8-2.4c-1,0-1.8,0.9-1.8,2.4v6.3L158.5,57.9L158.5,57.9z"/>
		<rect x="171.2" y="42.7" fill="#231F20" width="3.3" height="2.7"/>
		<rect x="171.2" y="47.4" fill="#231F20" width="3.1" height="10.5"/>
		<path fill="#231F20" d="M181.7,56.1c-1.7,0-1.8-1.2-1.8-2.6l0,0l6.9-0.1c0-0.7,0-1.4-0.1-2c-0.1-0.6-0.2-1.2-0.5-1.8
			c-0.9-1.8-2.6-2.6-4.5-2.6c-3.2,0-5,2.5-5,5.6c0,3.5,1.5,5.5,5,5.5c2.5,0,4.5-0.8,4.7-3.4h-2.8C183.4,55.6,182.8,56.1,181.7,56.1z
			 M181.6,49.2c1.5,0,1.8,1.1,1.8,2.2l0,0h-3.7C179.9,50.3,180.2,49.2,181.6,49.2z"/>
		<rect x="188.7" y="42.7" fill="#231F20" width="3.1" height="15"/>
		<path fill="#231F20" d="M204.9,55.8v-13h-3.1l-0.1,5.8c-0.6-0.9-1.7-1.5-2.8-1.5c-3.2,0-4.9,2.8-4.9,5.6c0,2.7,1.5,5.6,4.5,5.6
			c1.4,0,2.6-0.6,3.2-1.8c0,0.5,0.1,1,0.1,1.5h3.1C205,57.2,204.9,56.5,204.9,55.8z M199.5,56.1c-2,0-2.3-1.9-2.3-3.5
			c0-1.7,0.2-3.5,2.3-3.5c1.7,0,2.3,2.1,2.3,3.5C201.8,54.1,201.1,56.1,199.5,56.1z"/>
	</g>
	<path fill="#008BCC" d="M50.8,31.8v-9.9H34.9v9.9H25v15.9h9.9v9.9h15.9v-9.9h9.9V31.8H50.8z M42.8,50.2c-5.8,0-10.4-4.6-10.4-10.4
		S37,29.4,42.8,29.4S53.2,34,53.2,39.8C53.2,45.5,48.5,50.2,42.8,50.2z"/>
	<g>
		<path fill="#008BCC" d="M42.8,30.2c-3.9,0-7.2,2.3-8.8,5.6h6.9c1,0,1.5-0.6,1.5-1c0-0.5-0.1-0.7-0.5-1.3c-0.5-0.7-0.2-2,0.9-2
			c1.2,0.1,1.5,1.3,0.9,2c-0.4,0.6-0.5,0.7-0.5,1.3c0.1,0.4,0.5,1,1.5,1h6.9C50,32.4,46.7,30.2,42.8,30.2z M40.9,34.5h-4.3
			c1-1.2,2.4-2.1,4-2.6c-0.5,0.7-0.1,1.8,0.3,2.4C40.9,34.4,40.9,34.5,40.9,34.5z M44.8,34.4c0,0-0.1-0.1,0-0.2
			c0.4-0.5,0.8-1.7,0.3-2.4c1.6,0.4,2.9,1.4,4,2.6H44.8z"/>
		<path fill="#008BCC" d="M40.3,37l-6.4-0.6c-0.3,1-0.6,2.1-0.6,3.4c0,3.1,1.5,5.9,3.7,7.7l4.4-8.3C41.6,38.4,41.4,37.2,40.3,37z
			 M39.9,38.7l-3.5,6.5c-1.2-1.5-2-3.4-2-5.4c0-0.7,0.1-1.4,0.2-2l4.9,0.4C39.9,38.3,40,38.4,39.9,38.7z"/>
		<path fill="#008BCC" d="M42.1,40.9l-4.7,6.9c1.6,0.9,3.4,1.6,5.3,1.6s3.8-0.5,5.3-1.6l-4.7-6.9C43,40.4,42.5,40.3,42.1,40.9z
			 M42.8,48.1c-1.2,0-2.3-0.2-3.4-0.7l3.3-5c0.1-0.1,0.1-0.1,0.2-0.1c0,0,0.1,0,0,0.1l3.3,5C45.1,47.9,43.9,48.1,42.8,48.1z"/>
		<path fill="#008BCC" d="M44.3,39.1l4.4,8.3c2.2-1.7,3.7-4.5,3.7-7.5c0-1.2-0.2-2.3-0.6-3.4L45.4,37C44.2,37.2,44,38.4,44.3,39.1z
			 M46,38.2l4.9-0.5c0.2,0.6,0.2,1.3,0.2,2c0,2.1-0.7,4-2,5.4l-3.5-6.5C45.6,38.4,45.6,38.2,46,38.2z"/>
	</g>
	<g>
		<path fill="#FFFFFF" d="M80.2,26.6c-4.5,0-11.3-2.1-11.3-2.1s-1.5,3.9-1.5,9.1s4.4,19.1,13.2,22.6c0,0,12.6-7.9,12.6-21.9
			c0-8.3-1.2-9.8-1.2-9.8S84.7,26.6,80.2,26.6z"/>
		<path fill="#008BCC" d="M92.5,22.1c-3.9,1.9-7.7,3-12.1,3c-4.5,0-8.3-1.1-12.2-3c-2.6,5-2.9,13-0.7,19.8c2.1,6.4,6.2,12.4,12.8,16
			c6.8-3.7,10.7-9.7,12.9-16.1C95.5,35.1,95,27.1,92.5,22.1z M90.7,41.1c-1.9,5.5-4.8,10.4-10.3,13.8C75,51.5,72,46.6,70.1,41.1
			C68.4,36.2,68,30.4,69.8,26c2.8,1,4.4,1.2,5.9,1.5c1.4,0.2,2.6,0.3,4.7,0.3c2,0,3.3-0.2,4.7-0.3c1.5-0.2,3.1-0.5,5.9-1.5
			C92.8,30.4,92.5,36.1,90.7,41.1z"/>
		<g>
			<path fill="#008BCC" d="M90,27.5c-1.7,0.4-3.1,0.9-4.8,1.1C83.6,28.8,82,29,80.4,29s-3.1-0.2-4.8-0.3c-1.6-0.2-3.1-0.6-4.8-1.1
				c-1.2,3.3-1,7.5,0,11.2c1.7,7,5.9,12.3,9.7,14.7c3.8-2.4,7.9-7.7,9.7-14.7C90.9,35.1,91.1,30.9,90,27.5z M79.5,50.3
				c-0.1,0.3,0.1,0.5,0.1,0.7c-0.1,0.2-0.2,0.2-0.3,0C79.1,50.7,79,50.5,79,50c-0.1-0.7,0.2-1,0.4-1.2c0.2-0.2,0.3-0.2,0.3-0.2
				l0.1,1.2C79.7,49.8,79.5,49.9,79.5,50.3z M81,51.4c0,0.2-0.1,0.3-0.4,0.3c-0.2,0-0.4-0.1-0.4-0.4c-0.1-1.4-0.1-4-0.1-4
				s0.3,0.1,0.6,0.2c0.1,0,0.2,0.2,0.4,0.3c0,0.1,0.1,0.1,0.1,0.2C81.1,49.1,81,51,81,51.4z M82.1,48.8c-0.3,0.2-0.7,0.3-0.7,0.3V48
				c0,0,0.1-0.1,0.1-0.2c-0.1-0.2-0.8-0.7-1.2-0.9c-0.4-0.2-1-0.3-1.3-0.4c-0.9-0.3-1.2-1.2-0.9-2c0.1-0.3,0.5-0.5,0.7-0.6
				c0.2-0.1,0.5-0.2,0.5-0.2l0.1,1.2c0,0-0.1,0-0.2,0.2s0.1,0.3,0.2,0.3c0.6,0.2,1.4,0.6,2,1c0.8,0.4,1.1,0.8,1.1,1.4
				C82.6,48.3,82.4,48.6,82.1,48.8z M79.9,43.1c0.6,0.1,0.8,0.1,1.3,0.2l-0.1,2.5l-0.5-0.2l-0.5-0.2L79.9,43.1z M83.4,43.6
				c-0.1,0.4-0.3,0.8-0.8,1.1c-0.4,0.2-1,0.2-1,0.2v-1.5c0,0,0.1,0,0.2-0.1c0.1-0.1,0.1-0.2,0.1-0.2c0-0.1-0.1-0.2-0.2-0.2
				c-0.2-0.1-0.3-0.1-0.4-0.1l-2-0.2c-1.2-0.2-2.2-1-2.1-2.2c0.1-0.8,0.9-1.1,1.5-1.3l0.4,0.9c0.1,0.3,0.2,0.5,0.2,0.5
				S79,40.4,79,40.6s0.2,0.2,0.3,0.2c0.9,0.1,2.1,0.2,2.7,0.5c0.4,0.2,0.8,0.3,1.1,0.7C83.4,42.7,83.5,43.2,83.4,43.6z M79.4,38
				c0,0,0.2,0,1.1,0.1c0.5,0,1,0.2,1,0.2l-0.2,2.6c-0.6-0.1-1-0.2-1.5-0.2c-0.2-1-0.4-1.3-0.8-2c-0.1-0.2,0-0.2,0-0.2
				c0.1-0.1,0.4-0.2,0.4-0.2V38z M81.7,40.5c0,0,0.1-1.2,0.1-1.8c0.3-0.1,0.4-0.4,0.2-0.7c-0.1-0.2-0.3-0.2-0.4-0.2
				c-0.7-0.2-1.3-0.2-2-0.3c-0.6-0.1-1.2-0.2-1.7-0.2c-1.2-0.2-2.2-0.9-2.7-1.9c-0.6-1.3-0.1-3,1.2-3.6c1-0.5,2-0.4,3,0
				c0.3,0.1,0.5,0.4,0.7,0.7c0.1,0.1,0.2,0.2,0.3,0.3c0.1,0.1-0.1,0.1-0.1,0.1c-0.2,0.1-1,0.1-1.2,0h-1.1c0.2,0.2,0.6,0.3,1,0.5
				c0.2,0.1,0.3,0.1,0.5,0.2c0.1,0,0.2,0.1,0.2,0.2s-0.2,0.1-0.3,0.2c-0.2,0.1-0.6,0.1-1,0c-0.5-0.1-0.8-0.4-1.2-0.2
				c-0.2,0.2-0.2,0.4-0.2,0.8c0.1,0.5,0.6,0.7,1.1,0.9c1.5,0.5,3.1,0.2,4.5,1c0.5,0.2,1.2,0.9,1.3,1.5
				C84.7,40.2,81.7,40.5,81.7,40.5z M84.4,32.4c-0.1,0.2-0.2,0.2-0.3,0.4c-0.3,0.3-0.9,0.7-1.4,1.2c-0.3,0.2-0.6,0.4-0.9,0.9
				c-0.1,0.1-0.2,0.2-0.2,0.2c-0.9-0.2-1.7-0.2-2.4-0.3v-0.7c0,0,0.8,0,0.9-0.5c0,0,0-0.2-0.1-0.2s-0.2-0.1-0.3-0.2
				c-0.1,0-0.1,0-0.2,0c0,0,0.1,0,0.2,0c0.6,0.1,1.2,0.3,1.7,0.6c0-0.1-0.1-0.3-0.1-0.3c-0.1-0.1-0.2-0.2-0.4-0.2
				c-0.3-0.1-1.3-0.2-1.3-0.2h0.8c0.2,0,0.4-0.1,0.4-0.2c0.1-0.1,0-0.2-0.2-0.4l-0.3-0.4c-0.1-0.2-0.2-0.3-0.3-0.5
				c-0.2-0.2-0.9-0.5-0.9-0.5s-0.1-0.4,0.1-0.6c0.1-0.2,0.4-0.2,0.5-0.1c0.4,0.2,1.1,0.5,1.7,0.7c0.2,0.1,0.2,0.1,0.2,0.3
				c0.1,0.4-0.1,1.1,0,1.3c0,0.1,0.2,0.1,0.2,0.1c0.6-0.3,1-0.9,1.6-1.2C83.8,31.4,84.5,31.8,84.4,32.4z"/>
			<path fill="#008BCC" d="M78.9,32.2c0.2,0,0.2-0.1,0.3-0.2h0.2c-0.2-0.2-0.9-0.2-1.3-0.3c0.2,0.2,0.2,0.1,0.3,0.2
				C78.7,31.9,78.7,32.2,78.9,32.2z"/>
		</g>
	</g>
</g>
</svg>
