<?xml version="1.0" encoding="utf-8"?>
<!-- Generator: Adobe Illustrator 22.0.1, SVG Export Plug-In . SVG Version: 6.00 Build 0)  -->
<svg version="1.1" id="Layer_1" xmlns="http://www.w3.org/2000/svg" xmlns:xlink="http://www.w3.org/1999/xlink" x="0px" y="0px"
	 viewBox="0 0 230 80" enable-background="new 0 0 230 80" xml:space="preserve">
<g>
	<path opacity="0.52" fill="#0C9B49" enable-background="new    " d="M45.1,63.3c-1.8-1.3-4.3-0.9-5.6,0.9c-1.3,1.8-0.9,4.3,0.9,5.6
		c1.8,1.3,4.3,0.9,5.6-0.9C47.4,67.1,47,64.6,45.1,63.3z"/>
	<circle fill="#0C9B49" cx="56.2" cy="14.5" r="5"/>
	<path opacity="0.88" fill="#0C9B49" enable-background="new    " d="M43,17.8c-1.6-2.2-4.6-2.6-6.7-1.1c-2.2,1.6-2.6,4.5-1.1,6.7
		c1.6,2.2,4.5,2.6,6.7,1.1C44.1,22.9,44.5,20,43,17.8z"/>
	<path opacity="0.76" fill="#0C9B49" enable-background="new    " d="M33.8,37.1c0.8-2.4-0.5-4.9-2.9-5.7s-5,0.6-5.7,2.9
		c-0.8,2.4,0.5,4.9,2.9,5.7C30.5,40.8,33,39.5,33.8,37.1z"/>
	<path opacity="0.88" fill="#0C9B49" enable-background="new    " d="M48.7,24.9c-1.1-1.5-3.2-1.9-4.7-0.8l-2.9,2.1
		c-1.5,1.1-1.9,3.2-0.8,4.7l2.8,3.9l5.5,7.6l2.2,3.1v-3.8v-4.4v-9.5L48.7,24.9z"/>
	<path opacity="0.64" fill="#0C9B49" enable-background="new    " d="M30.1,49c-2.3,0.7-3.5,3.2-2.8,5.4c0.7,2.3,3.1,3.5,5.4,2.8
		s3.5-3.1,2.8-5.4C34.7,49.4,32.4,48.2,30.1,49z"/>
	<path opacity="0.52" fill="#0C9B49" enable-background="new    " d="M58.2,49.5H57l-9.6,3.1l-3.7,5.1c-0.9,1.3-0.7,3.1,0.6,4
		l2.4,1.8c1.3,0.9,3.1,0.7,4-0.6L61,48.8c0.3-0.5,0.5-1,0.5-1.5C61,48.6,59.7,49.5,58.2,49.5z"/>
	<path opacity="0.64" fill="#0C9B49" enable-background="new    " d="M54.5,49.5c-1.3,0-2.4-0.6-3-1.6L51,47.7l-9.3-3l-4,1.3
		c-1.6,0.5-2.5,2.2-1.9,3.8l1,3.1c0.5,1.6,2.2,2.5,3.8,1.9l6.9-2.2l9.6-3.1H54.5z"/>
	<path opacity="0.76" fill="#0C9B49" enable-background="new    " d="M51.2,47.4c-0.2-0.4-0.3-0.9-0.3-1.5v-0.4l-2.2-3.1l-5.5-7.6
		l-4-1.3c-1.7-0.6-3.5,0.4-4,2.1l-1.1,3.2c-0.6,1.7,0.4,3.5,2.1,4l5.6,1.8l9.3,3l0.5,0.2C51.4,47.7,51.3,47.6,51.2,47.4z"/>
	<path fill="#0C9B49" d="M58.2,20.5h-3.8c-2,0-3.6,1.6-3.6,3.6v3.8v9.5v4.4v3.8V46c0,0.5,0.1,1,0.3,1.5c0.1,0.2,0.2,0.3,0.3,0.5
		c0.6,1,1.7,1.6,3,1.6H57h1.2c1.5,0,2.8-0.9,3.3-2.2c0.2-0.4,0.3-0.9,0.3-1.4V24.1C61.8,22.1,60.2,20.5,58.2,20.5z"/>
	<g>
		<g>
			<path fill="#5F6060" d="M67.4,25.8H71v8.9h9.2v-8.9h3.6v22.4h-3.6V38.1H71v10.1h-3.6V25.8z"/>
			<path fill="#5F6060" d="M90.1,41.1c0,0.6,0.1,1.2,0.2,1.8c0.2,0.6,0.4,1.1,0.7,1.5c0.3,0.4,0.7,0.8,1.2,1.1
				c0.5,0.3,1.1,0.4,1.8,0.4c0.9,0,1.7-0.2,2.3-0.7c0.6-0.5,1-1.1,1.3-2h3.1c-0.2,0.9-0.5,1.7-0.9,2.4c-0.4,0.7-0.9,1.3-1.5,1.7
				c-0.6,0.5-1.2,0.8-2,1.1c-0.7,0.2-1.5,0.4-2.3,0.4c-1.2,0-2.2-0.2-3.1-0.6c-0.9-0.4-1.6-1-2.3-1.8c-0.6-0.8-1.1-1.7-1.4-2.7
				c-0.3-1-0.5-2.2-0.5-3.5c0-1.2,0.2-2.2,0.5-3.3c0.3-1,0.8-1.9,1.4-2.7c0.6-0.8,1.4-1.4,2.2-1.9c0.9-0.5,1.9-0.7,3-0.7
				c1.2,0,2.2,0.3,3.1,0.8c0.9,0.5,1.7,1.2,2.3,2.1c0.6,0.9,1,1.9,1.3,3c0.3,1.1,0.3,2.3,0.2,3.5H90.1z M97.7,38.7
				c0-0.6-0.1-1.1-0.3-1.6c-0.2-0.5-0.4-1-0.7-1.4c-0.3-0.4-0.7-0.7-1.1-0.9c-0.4-0.2-0.9-0.4-1.5-0.4c-0.6,0-1.1,0.1-1.6,0.3
				c-0.5,0.2-0.9,0.5-1.2,0.9c-0.3,0.4-0.6,0.8-0.8,1.4c-0.2,0.5-0.3,1.1-0.3,1.7H97.7z"/>
			<path fill="#5F6060" d="M115.7,44.6c0,0.4,0.1,0.8,0.2,0.9c0.1,0.2,0.3,0.3,0.6,0.3c0.1,0,0.2,0,0.3,0c0.1,0,0.3,0,0.5-0.1v2.5
				c-0.1,0-0.3,0.1-0.4,0.1c-0.2,0.1-0.4,0.1-0.6,0.1c-0.2,0-0.4,0.1-0.6,0.1s-0.4,0-0.5,0c-0.7,0-1.2-0.1-1.7-0.4
				c-0.4-0.3-0.7-0.8-0.9-1.5c-0.6,0.7-1.4,1.2-2.4,1.5c-0.9,0.3-1.8,0.5-2.7,0.5c-0.7,0-1.3-0.1-1.9-0.3c-0.6-0.2-1.1-0.5-1.6-0.9
				c-0.5-0.4-0.8-0.9-1.1-1.5c-0.3-0.6-0.4-1.3-0.4-2.1c0-1,0.2-1.8,0.5-2.4c0.3-0.6,0.8-1.1,1.3-1.5c0.5-0.4,1.1-0.6,1.8-0.8
				c0.7-0.2,1.4-0.3,2-0.4c0.6-0.1,1.1-0.2,1.7-0.3c0.5-0.1,1-0.1,1.4-0.3c0.4-0.1,0.7-0.3,1-0.6c0.2-0.3,0.4-0.7,0.4-1.2
				c0-0.5-0.1-0.8-0.3-1.1c-0.2-0.3-0.4-0.5-0.7-0.7c-0.3-0.2-0.6-0.3-1-0.3c-0.4-0.1-0.7-0.1-1-0.1c-0.9,0-1.7,0.2-2.2,0.6
				c-0.6,0.4-0.9,1.1-1,1.9h-3.2c0.1-1,0.3-1.9,0.7-2.6c0.4-0.7,0.9-1.2,1.5-1.7c0.6-0.4,1.3-0.7,2.1-0.9c0.8-0.2,1.6-0.3,2.4-0.3
				c0.7,0,1.4,0.1,2.1,0.3c0.7,0.2,1.3,0.4,1.9,0.8c0.6,0.4,1,0.9,1.4,1.5c0.3,0.6,0.5,1.3,0.5,2.2V44.6z M112.5,40.1
				c-0.5,0.4-1.1,0.6-1.8,0.6c-0.7,0.1-1.4,0.2-2.2,0.3c-0.3,0.1-0.7,0.2-1,0.3c-0.3,0.1-0.6,0.3-0.9,0.5c-0.2,0.2-0.4,0.5-0.6,0.8
				c-0.1,0.3-0.2,0.7-0.2,1.2c0,0.4,0.1,0.7,0.3,1c0.2,0.3,0.5,0.5,0.8,0.6c0.3,0.2,0.6,0.3,1,0.3c0.4,0.1,0.7,0.1,1,0.1
				c0.4,0,0.7-0.1,1.2-0.2c0.4-0.1,0.8-0.3,1.2-0.5c0.4-0.3,0.7-0.6,0.9-1c0.2-0.4,0.4-0.9,0.4-1.4V40.1z"/>
			<path fill="#5F6060" d="M119.3,25.8h3.2v22.4h-3.2V25.8z"/>
			<path fill="#5F6060" d="M124.6,32h2.4v-4.9h3.2V32h2.9v2.7h-2.9v8.7c0,0.4,0,0.7,0,1c0,0.3,0.1,0.5,0.2,0.7
				c0.1,0.2,0.3,0.3,0.5,0.4c0.2,0.1,0.5,0.1,0.9,0.1c0.2,0,0.5,0,0.7,0c0.2,0,0.5,0,0.7-0.1v2.8c-0.4,0-0.7,0.1-1.1,0.1
				c-0.3,0-0.7,0.1-1.1,0.1c-0.9,0-1.5-0.1-2.1-0.3c-0.5-0.2-0.9-0.4-1.2-0.8c-0.3-0.3-0.5-0.8-0.6-1.3c-0.1-0.5-0.2-1.1-0.2-1.8
				v-9.6h-2.4V32z"/>
			<path fill="#5F6060" d="M135.6,25.8h3.2v8.3h0.1c0.4-0.7,1-1.3,1.8-1.8c0.8-0.5,1.7-0.7,2.6-0.7c1.6,0,2.9,0.5,3.8,1.4
				c0.9,0.9,1.4,2.3,1.4,4.1v11.1h-3.2V38c0-1.3-0.3-2.2-0.7-2.8c-0.5-0.6-1.2-0.9-2.1-0.9c-0.6,0-1,0.1-1.5,0.3
				c-0.4,0.2-0.8,0.5-1.1,0.9c-0.3,0.4-0.5,0.8-0.7,1.4c-0.2,0.5-0.3,1.1-0.3,1.7v9.6h-3.2V25.8z"/>
			<path fill="#5F6060" d="M166.3,25.8v1.8h-12.1v8.1h11.3v1.8h-11.3v8.9h12.2v1.8h-14.2V25.8H166.3z"/>
			<path fill="#5F6060" d="M168.6,32.6c0.4-1.4,1-2.6,1.8-3.7c0.8-1.1,1.8-1.9,3-2.6c1.2-0.6,2.6-1,4.2-1c1.6,0,3,0.3,4.2,1
				c1.2,0.6,2.2,1.5,3,2.6c0.8,1.1,1.4,2.3,1.8,3.7c0.4,1.4,0.6,2.9,0.6,4.4c0,1.5-0.2,3-0.6,4.4c-0.4,1.4-1,2.6-1.8,3.7
				c-0.8,1.1-1.8,1.9-3,2.6c-1.2,0.6-2.6,1-4.2,1c-1.6,0-3-0.3-4.2-1c-1.2-0.6-2.2-1.5-3-2.6c-0.8-1.1-1.4-2.3-1.8-3.7
				c-0.4-1.4-0.6-2.9-0.6-4.4C168,35.5,168.2,34,168.6,32.6z M170.4,40.6c0.3,1.2,0.7,2.2,1.4,3.2c0.6,0.9,1.4,1.7,2.4,2.2
				c1,0.6,2.1,0.8,3.5,0.8c1.3,0,2.5-0.3,3.5-0.8c1-0.6,1.7-1.3,2.4-2.2c0.6-0.9,1.1-2,1.4-3.2c0.3-1.2,0.4-2.4,0.4-3.6
				c0-1.2-0.1-2.4-0.4-3.6c-0.3-1.2-0.7-2.2-1.4-3.2c-0.6-0.9-1.4-1.7-2.4-2.2c-1-0.6-2.1-0.8-3.5-0.8c-1.3,0-2.5,0.3-3.5,0.8
				c-1,0.6-1.8,1.3-2.4,2.2c-0.6,0.9-1.1,2-1.4,3.2c-0.3,1.2-0.4,2.4-0.4,3.6C170,38.3,170.1,39.5,170.4,40.6z"/>
			<path fill="#5F6060" d="M191.6,43.8c0.3,0.8,0.8,1.4,1.4,1.9c0.6,0.5,1.3,0.8,2.1,1c0.8,0.2,1.7,0.3,2.6,0.3
				c0.5,0,1.1-0.1,1.7-0.3c0.6-0.2,1.2-0.4,1.7-0.8c0.5-0.4,1-0.8,1.4-1.4c0.4-0.6,0.5-1.3,0.5-2.1c0-0.6-0.1-1.2-0.4-1.6
				s-0.6-0.8-1-1.2c-0.4-0.3-0.9-0.6-1.4-0.8c-0.5-0.2-1-0.4-1.5-0.5l-4.5-1.2c-0.6-0.2-1.2-0.4-1.7-0.6c-0.6-0.3-1-0.6-1.5-1
				c-0.4-0.4-0.8-0.9-1-1.5c-0.3-0.6-0.4-1.3-0.4-2.2c0-0.5,0.1-1.2,0.3-1.9c0.2-0.7,0.5-1.4,1.1-2.1c0.5-0.6,1.2-1.2,2.1-1.6
				c0.9-0.4,2.1-0.7,3.5-0.7c1,0,2,0.1,2.9,0.4c0.9,0.3,1.7,0.7,2.4,1.3c0.7,0.6,1.2,1.3,1.6,2.2c0.4,0.9,0.6,1.9,0.6,3h-1.9
				c0-0.9-0.2-1.6-0.5-2.2c-0.3-0.6-0.7-1.2-1.2-1.6c-0.5-0.4-1.1-0.8-1.7-1c-0.7-0.2-1.3-0.3-2.1-0.3c-0.7,0-1.3,0.1-1.9,0.2
				c-0.6,0.2-1.2,0.4-1.6,0.8c-0.5,0.3-0.8,0.8-1.1,1.4c-0.3,0.6-0.4,1.3-0.4,2.1c0,0.5,0.1,1,0.2,1.4c0.2,0.4,0.4,0.7,0.7,1
				c0.3,0.3,0.6,0.5,1,0.7c0.4,0.2,0.8,0.3,1.2,0.4l5,1.3c0.7,0.2,1.4,0.5,2,0.8c0.6,0.3,1.2,0.7,1.7,1.1c0.5,0.5,0.9,1,1.1,1.6
				c0.3,0.6,0.4,1.4,0.4,2.4c0,0.3,0,0.6-0.1,1c0,0.4-0.2,0.9-0.3,1.3c-0.2,0.5-0.4,0.9-0.8,1.4c-0.3,0.5-0.8,0.9-1.4,1.3
				c-0.6,0.4-1.3,0.7-2.1,0.9c-0.9,0.2-1.9,0.4-3.1,0.4c-1.2,0-2.3-0.2-3.3-0.5c-1-0.3-1.9-0.8-2.6-1.4c-0.7-0.6-1.3-1.4-1.7-2.4
				c-0.4-1-0.6-2.2-0.5-3.5h1.9C191.1,42,191.3,43,191.6,43.8z"/>
		</g>
	</g>
</g>
</svg>
