<?xml version="1.0" encoding="utf-8"?>
<!-- Generator: Adobe Illustrator 22.0.1, SVG Export Plug-In . SVG Version: 6.00 Build 0)  -->
<svg version="1.1"
	 id="Layer_1" xmlns:cc="http://creativecommons.org/ns#" xmlns:dc="http://purl.org/dc/elements/1.1/" xmlns:rdf="http://www.w3.org/1999/02/22-rdf-syntax-ns#"
	 xmlns="http://www.w3.org/2000/svg" xmlns:xlink="http://www.w3.org/1999/xlink" x="0px" y="0px" viewBox="0 0 230 80"
	 enable-background="new 0 0 230 80" xml:space="preserve">
<g>
	<g>
		<path d="M77.6,8.8L77.6,8.8L77.6,8.8z"/>
		<path d="M77.6,8.8L77.6,8.8L77.6,8.8L77.6,8.8L77.6,8.8L77.5,9v0.1l-0.1,0.1l-0.1,0.1l-0.1,0.1V9.2l-0.1,0.1l-0.1,0.1L77,9.5
			L77,9.6l-0.1,0.3l-0.1,0.2l-0.3,0.3l-0.1,0.2h-0.2l-0.1,0.2L76,10.9l-0.3,0.3l-0.2,0.2l-0.2,0.2l-0.2,0.2l-0.3,0.3l-0.2,0.2
			l-0.2,0.2l-0.2,0.2L74,12.9l-0.2,0.2l-0.2,0.2C71.9,14.8,51,27.5,50,28.4c-1,0.8-2.8,3-4.4,9.3c-1.3,5.1-2,3.2-6.1,3.1
			c-2.3-0.1-9.1-1.8-8.6,3.3c0,0,0.8-1.1,9.9,0.1c3.6,0.5,6.5-0.8,7.4-3.3c0.8-2.8,2-7.4,3.9-9.9c0.8-1.1,17.6-11.5,22.2-14.1
			C75.9,15.8,81.3,12.5,77.6,8.8L77.6,8.8z"/>
		<path d="M81.4,14.2L81.4,14.2L81.4,14.2z"/>
		<path d="M81.4,14.2L81.4,14.2l-0.2,0.3l-0.1,0.2L81,14.9v0.2L81,15.2l-0.1,0.1l-0.2,0.2l-0.1,0.1l-0.1,0.1l-0.2,0.2l-0.1,0.1
			l-0.1,0.1l0.1,0.1v0.1l-0.1,0.1l-0.1,0.1L80,16.3l-0.2,0.3l-0.1,0.1l-0.1,0.1l-0.1,0.1L79.3,17L79,17.2l-0.2,0.1l-0.3,0.2
			l-0.2,0.1C74.7,19.9,60.2,29,57,31c-1.8,1.1-3.3,3.3-3.9,4.2c-0.5,1-1.3,3.7-1.7,8.2c-0.1,0.8-2.3,2.3-2,3c0.3,0.6,2,0.3,1.9,0.8
			c-0.1,0.4-0.6,1-0.6,1.4c0,0.5,1,0,0.8,0.6c-0.4,0.8,0.2,1,0.5,1.8c0.3,0.6-0.1,1.3,0.1,1.9c0.4,0.9,1.9,1.1,4.3,1
			c2.3,0,3.5,1.7,3,3.1c-0.8,1.9-2.3,1.9-4.7,3.6s-2.6,3.8-1.1,5.5c1.1,1.3,5.2,2,7.8-0.6c0.5-0.6-1.1,0.2-3.7-1.1
			c0,0-1.7-1.1-0.8-2.8c0.8-1.5,2.3-2.3,3.8-3.2c1.5-0.9,3.5-1.4,3.3-3.3c-0.1-1.9-2-2.2-2.8-2.3c-0.8,0-2,0-3.2,0
			c-1.8-0.1-2.3-0.9-2.3-4.1c0-1-1.4-0.5-0.8-1.8c0.4-0.8-0.8-0.4-1.7-0.8c-0.8-0.3,0.8-1.8,1.8-3.3c0.3-0.4-0.2-1,0-3.2
			c0.2-1.8,1-4.3,3.5-5.9c1.3-0.8,6.4-4.1,8-5c2.2-1.3,12.6-8,14.3-9.3C84.5,17.1,81.6,14.4,81.4,14.2L81.4,14.2z"/>
		<path d="M78.8,24.8L78.8,24.8L78.8,24.8L78.8,24.8L78.8,24.8L78.8,24.8L78.8,24.8L78.8,24.8l-0.3,0.2L78.5,25l-0.1,0.1h-0.1
			l-0.1,0.1l-0.1,0.1L78,25.4L78,25.4l-0.1,0.1l-0.3,0.3l-0.2,0.1L77.2,26L77,26L77,26.4l-0.2,0.1l-0.4,0.2L75.9,27l-0.4,0.3
			l-0.4,0.3L74.7,28L74.5,28l-0.2,0.1l-0.2,0.1L74,28.3c-2,1.3-11.3,6.3-13.3,7.9c-2,1.8-1.9,3.2-1.9,3.2l-0.3,4.2
			c0,0-1.3,1.3-1.4,1.8c-0.1,0.4,0.8,0.6,1.7,0.9c0.8,0.4-0.1,0.8,0.2,1.1c0.6,0.8,1.1,0.1,0.8,1.3c-0.1,0.2,0.5,0.8,0.4,1
			c-0.1,0.5-0.4,0.8,0.1,1.3c0.5,0.5,2.2,1.3,5.9,0.5c4.1-0.8,6.8,2.3,8.8,2.8c0.8,0.2,3,0.9,6.7-1.9c1.5-1.3-0.9-0.1-4.6-1.7
			c-3.9-1.7-5-1.8-7.7-1.3c-2.3,0.4-3.9,0.8-4.8,0.5c-0.8-0.2-0.1-1.3-0.8-1.5c-1.1-0.4-0.3-0.9-1-1.3c-0.8-0.4-0.3-0.5-0.3-1.3
			c0-0.5-0.6-0.4-1.4-0.8c-0.6-0.4,0.9-1,1.1-1.5c0.2-0.6-0.1-1.5,0.1-3c0.3-2.3,3.9-4,5.8-5.1c2-1.1,7.9-4.7,9.3-5.6
			C80.4,27.7,78.8,24.8,78.8,24.8L78.8,24.8z"/>
		<path d="M28.4,44.6c-2.2,0-3.7,1-3.3,2.8l0,0l0,0l0,0l0,0l0,0h0.1h0.1h0.1h0.1h0.2h0.1h0.1h0.1h0.1H26h0.2h0.2h0.2h0.2h0.2h0.4
			h0.2h0.1h0.1h0.1h0.1h0.1h0.3h0.1h0.1h0.1h0.1h0.1h0.2l0.1,0.1l0.2,0.1l0.2,0.1l0.2,0.1l0.2,0.1l0.2,0.1c3.6,1.4,13,5.8,15.5,7.6
			c1.5,1.1,5.9,3.1,4.6,5.1c-1.3,2-6.9,3.1-5.9,7.6c1.3,4.5,7.6,2.6,8.4,1.4c0.8-1.1-2.8,0.6-4.1-2.6c-1-2.6,0.8-4.3,3.3-5.9
			c1.3-0.8,2.8-1.4,2.6-3.6c-0.2-1.4-2.8-2.6-5.3-4c-2.6-1.4-12.5-6.1-16.4-7.9C31.2,44.9,29.7,44.5,28.4,44.6L28.4,44.6z"/>
	</g>
	<g>
		<path d="M90.3,30.7h4.5l1.4,9.3l0.5,3.6h0.1l1.8-3.6l5.1-9.3h4.5l-4,20.1h-4l1.7-8c0.4-2,1.2-4.8,1.8-6.8h-0.1l-2.5,4.7L96.4,49
			h-1.8l-1.3-8.2l-0.7-4.7h-0.1c-0.2,2-0.4,4.8-0.8,6.8l-1.6,8h-3.8L90.3,30.7z"/>
		<path d="M117.7,35.1c3.7,0,5,2.6,5,5.8c0,1.4-0.5,3-0.8,3.5h-8.8c-0.1,2.6,1.4,3.7,3.4,3.7c0.9,0,2.1-0.5,2.8-1.1l1.5,2.7
			c-1.3,0.8-3.1,1.6-5.5,1.6c-3.7,0-6.3-2.4-6.3-6.6C109.2,39,113.6,35.1,117.7,35.1z M119.1,41.8c0.1-0.3,0.2-0.8,0.2-1.2
			c0-1.3-0.5-2.3-2.1-2.3c-1.4,0-2.9,1.2-3.7,3.4C113.5,41.8,119.1,41.8,119.1,41.8z"/>
		<path d="M136.4,34.1l0.9-4.9h4.3l-4.3,21.6h-3.4l0.1-2h-0.1c-1.4,1.4-3.2,2.3-4.8,2.3c-2.7,0-4.3-2-4.3-5.6
			c0-5.9,3.9-10.4,8.2-10.4c1.4,0,2.5,0.8,3.1,1.8h0.1L136.4,34.1z M134,45.5l1.1-5.4c-0.5-1-1.3-1.5-2.1-1.5
			c-2.1,0-4.1,2.8-4.1,6.4c0,1.8,0.7,2.7,1.8,2.7C131.8,47.8,133,47.3,134,45.5z"/>
		<path d="M144,35.6h4.3l-3.1,15.4h-4.3L144,35.6z M144.7,31.2c0-1.3,1.2-2.5,2.7-2.5c1.2,0,2.3,0.8,2.3,2.1c0,1.4-1.2,2.5-2.7,2.5
			C145.7,33.2,144.7,32.6,144.7,31.2z"/>
		<path d="M149.6,44.9c0-5.3,4-9.8,9-9.8c1.9,0,3.3,0.9,4.1,1.9l-2.3,2.5c-0.6-0.7-1.2-1-2-1c-2.4,0-4.4,2.8-4.4,6.3
			c0,1.8,0.8,3,2.6,3c1,0,1.8-0.5,2.4-1l1.8,2.6c-1.2,0.8-2.8,1.8-5.1,1.8C152.2,51.3,149.6,48.9,149.6,44.9z"/>
		<path d="M162.9,45.7c0-5.9,3.9-10.4,8.2-10.4c1.4,0,2.8,0.8,3.3,2h0.1l0.7-1.7h3.4l-3.1,15.4h-3.4l0.1-2h-0.1
			c-1.4,1.4-3.2,2.3-4.8,2.3C164.5,51.3,162.9,49.3,162.9,45.7z M172.3,45.5l1.1-5.4c-0.5-1-1.3-1.5-2.1-1.5c-2.1,0-4.1,2.8-4.1,6.4
			c0,1.8,0.7,2.7,1.8,2.7C170.1,47.8,171.4,47.3,172.3,45.5z"/>
		<path d="M182.4,35.6h3.4l-0.2,3h0.1c1.2-1.9,2.9-3.3,4.7-3.3c0.8,0,1.3,0.1,1.6,0.3l-1.4,3.7c-0.4-0.3-1-0.3-1.5-0.3
			c-1.3,0-2.6,0.9-3.8,3.1l-1.8,8.9h-4.3L182.4,35.6z"/>
		<path d="M200,35.1c3.7,0,5,2.6,5,5.8c0,1.4-0.5,3-0.8,3.5h-8.8c-0.1,2.6,1.4,3.7,3.4,3.7c0.9,0,2.1-0.5,2.8-1.1l1.5,2.7
			c-1.3,0.8-3.1,1.6-5.5,1.6c-3.7,0-6.3-2.4-6.3-6.6C191.5,39,195.9,35.1,200,35.1z M201.4,41.8c0.1-0.3,0.2-0.8,0.2-1.2
			c0-1.3-0.5-2.3-2.1-2.3c-1.4,0-2.9,1.2-3.7,3.4C195.8,41.8,201.4,41.8,201.4,41.8z"/>
	</g>
</g>
</svg>
