<?xml version="1.0" encoding="utf-8"?>
<!-- Generator: Adobe Illustrator 22.0.1, SVG Export Plug-In . SVG Version: 6.00 Build 0)  -->
<svg version="1.1" id="Layer_1" xmlns="http://www.w3.org/2000/svg" xmlns:xlink="http://www.w3.org/1999/xlink" x="0px" y="0px"
	 viewBox="0 0 230 80" enable-background="new 0 0 230 80" xml:space="preserve">
<path fill="#DCBC27" d="M46.8,11.1c1.4,0.1,1.9,1,2.7,1.6c0.4-1.5,0.3-1.7-2.1-5c3,0.3,5.7,3.2,6.2,6.6c0.3,2.2-0.2,7-1.1,9.3
	c-1.2-0.9-2.3-1.8-3.8-2c-3.2-0.3-6.8,2.8-7.4,6.3c-0.2,1-0.3,2,0,3c0.4,2,1.5,3.4,3.5,4c2,0.5,3.8,0.1,5.1-1.6
	c0.5-0.6,0.9-1.3,1.6-2.2c0.2,3.1,0.3,6-2.6,7.8c-3.1,2-6.2,1.6-9.2-0.2c-2.7-1.6-3.7-4.1-3.4-7.2s1.7-5.4,3.9-7.4
	c1.6-1.5,3.2-2.9,4.8-4.4C47.5,17.5,48.5,14.7,46.8,11.1z"/>
<path fill="#494C8D" d="M50.9,43.6c-5.2,1.2-10.4,2.3-15.8,3.6c0.8,1,1.5,2,2.1,2.9c-1.7,4.7-3.5,9.4-5.2,14.1
	c-0.7,1.8-1.5,3.6-2.1,5.4c-0.3,1.1-1,1.8-2.1,2.7c1.5-7.7,2.8-15,4.2-22.4c-2.4-0.9-4.6-1.6-6.9-2.5c-0.2-0.9-0.1-1.9-0.1-3
	c8.5-0.3,17.1-0.8,25.6-1.1C50.8,43.5,50.9,43.6,50.9,43.6z"/>
<path fill="#E5CD67" d="M41.4,12.1c2.3,1.1,3,3.4,1.6,5.8s-3.3,4.1-5,6c-1.5,1.7-2.9,3.4-4.4,5c-1.1,1.3-1.8,2.9-2.2,4.6
	c-0.8,3.1,0.8,5.8,3.9,6.8c0.9,0.3,2,0.5,3.1,0.8c-3.1,1.4-7.2,0.6-8.9-1.6c-2.1-2.5-2.1-6.1,0-9.1s4.9-5.4,7.5-7.9
	c1.1-1,2.1-2.2,2.9-3.3c1.5-1.9,1.8-4,1.5-6.3C41.3,12.7,41.2,12.4,41.4,12.1z"/>
<path fill="#494C8D" d="M62.8,36.8c-2.2-2-2.8-4.3-2.8-6.8c0-1.6,0.5-4.4,2.8-6.4c2-1.7,4.2-2.4,7.5-2.4c1.3,0,2.3,0.1,3.2,0.3
	c1,0.2,1.6,0.3,2.2,0.3c0.2,0,0.2,0.2,0.2,0.3c0,0.2-0.1,0.7-0.1,1.5s0,2.1-0.1,2.7c0,0.3-0.1,0.6-0.3,0.6c-0.2,0-0.2-0.2-0.3-0.5
	c0-0.5-0.1-1.4-0.9-2.2c-0.8-0.8-2.4-1.4-4.6-1.4c-1.3,0-2.5,0.3-3.3,1.1c-1.4,1.2-2,3.3-2,5.8c0,4.7,2.5,7.9,6.4,7.9
	c1.9,0,3-0.2,3.9-1.2c0.3-0.3,0.6-0.8,0.7-1.5c0.1-0.5,0.2-0.6,0.4-0.6c0.2,0,0.2,0.2,0.2,0.4c0,0.4-0.3,2.4-0.5,3.5
	c0,0.3-0.2,0.5-0.6,0.7c-0.9,0.4-2.5,0.5-3.9,0.5C68.1,39.3,65.2,38.8,62.8,36.8z"/>
<path fill="#494C8D" d="M78.6,30.4c0-4.6,3-9.1,9.7-9.1c5.8,0,9.4,3.9,9.4,8.6c0,5.3-3.6,9.4-9.5,9.4C81.4,39.3,78.6,34.4,78.6,30.4
	z M93.2,30.9c0-3.8-1.6-8.1-5.6-8.1c-2.1,0-4.4,1.2-4.4,6.6c0,4.3,1.8,8.5,5.7,8.5C90.2,37.8,93.2,37.2,93.2,30.9z"/>
<path fill="#494C8D" d="M100.3,23.9c-0.6-1.4-0.9-1.6-1.7-1.8c-0.2,0-0.4-0.1-0.5-0.1c-0.2,0-0.4-0.1-0.4-0.3c0-0.2,0.2-0.2,0.5-0.2
	c1.2,0,2.5,0.1,3.5,0.1c0.8,0,2-0.1,3.8-0.1c0.3,0,0.5,0.1,0.5,0.2s-0.1,0.2-0.3,0.2c-0.3,0-0.4,0-0.6,0.1c-0.6,0.1-0.7,0.3-0.7,0.6
	c0,0.3,0.1,0.8,0.5,1.7c1.1,2.8,2.5,6.2,3.5,8.9c0.9-2.1,3.3-7.7,4-9.9c0.1-0.3,0.2-0.6,0.2-0.8c0-0.3-0.1-0.5-0.5-0.5
	c-0.3-0.1-0.7-0.1-0.9-0.1c-0.3,0-0.4-0.1-0.4-0.2s0.1-0.2,0.5-0.2c1.5,0,2.6,0.1,3,0.1c0.3,0,1.8-0.1,2.5-0.1
	c0.3,0,0.5,0.1,0.5,0.2c0,0.2-0.1,0.2-0.4,0.2s-0.6,0-1,0.2c-0.5,0.2-0.8,0.7-1.4,2.1c-0.9,2-1.7,3.8-3,6.7c-1.5,3.3-2.4,5.3-3,6.5
	c-0.7,1.4-0.9,1.7-1.2,1.7c-0.3,0-0.5-0.3-0.9-1.4L100.3,23.9z"/>
<path fill="#494C8D" d="M119.4,28.3c0-3.7,0-4.2-0.1-4.9c0-0.7-0.2-1.1-0.8-1.2c-0.2,0-0.5,0-0.7-0.1c-0.3,0-0.4-0.1-0.4-0.3
	c0-0.1,0.1-0.2,0.5-0.2c1.3,0,2.4,0.1,3.4,0.1c0.5,0,6,0,6.4,0c0.5,0,1,0,1.2-0.1c0.2,0,0.3-0.1,0.4-0.1c0.1,0,0.1,0.1,0.1,0.2
	s0,0.3-0.1,1c-0.1,0.5-0.1,1.3-0.2,2.5c0,0.2-0.1,0.3-0.2,0.3c-0.1,0-0.2-0.1-0.2-0.3c0-0.3,0-0.5-0.1-0.8c-0.1-0.5-0.4-0.8-1.5-0.9
	c-0.7-0.1-2.7-0.1-3.4-0.1c-0.1,0-0.2,0.1-0.2,0.2v5c0,0.2,0,0.3,0.2,0.3c0.6,0,2.5,0,3.3,0c1.1,0,1.4-0.1,1.7-0.5
	c0.1-0.2,0.2-0.3,0.3-0.3s0.1,0.1,0.1,0.3c0,0.2-0.1,1.1-0.2,1.9c0,0.5,0,1.7,0,1.9c0,0.3-0.1,0.4-0.2,0.4c-0.2,0-0.2-0.2-0.2-0.4
	s0-0.3-0.1-0.5c-0.1-0.7-0.4-1.1-1.5-1.1c-0.6,0-2.5-0.1-3.2-0.1c-0.1,0-0.1,0.1-0.1,0.3v1.6c0,0.8,0,2.1,0,3c0,1.6,0.3,2,2.9,2
	c0.6,0,1.5,0,2.1-0.3s0.9-0.8,1.1-1.8c0-0.3,0.1-0.4,0.3-0.4s0.2,0.2,0.2,0.5c0,0.9-0.2,2.6-0.4,3.1c-0.2,0.6-0.3,0.6-1.2,0.6
	c-3.1,0-4.8-0.1-7.2-0.1c-1.1,0-2,0.1-3.3,0.1c-0.4,0-0.5-0.1-0.5-0.2c0-0.1,0.1-0.2,0.5-0.2c0.3,0,0.5,0,0.7-0.1
	c0.6-0.1,0.7-1,0.8-2.4C119.6,35.3,119.4,28.3,119.4,28.3z"/>
<path fill="#494C8D" d="M134.3,22.4c0-0.7,0.1-1.1,0.4-1.1c0.2,0,0.3,0.1,0.9,0.6c1,0.8,2.1,1.9,7.3,6.8c2.3,2.2,3.9,3.7,4.5,4.2
	l-0.1-8.6c0-1.3-0.2-1.9-1.1-2c-0.3-0.1-0.7-0.1-1-0.1s-0.4-0.1-0.4-0.2c0-0.2,0.2-0.2,0.5-0.2c0.9,0,2.4,0.1,3.3,0.1
	c0.5,0,1.6-0.1,2.6-0.1c0.3,0,0.5,0.1,0.5,0.2s-0.1,0.3-0.4,0.3c-0.3,0-0.4,0-0.6,0.1c-0.7,0.1-1,0.5-1,1.9
	c-0.2,4.6-0.2,9.2-0.3,13.8c0,1.2-0.2,1.4-0.5,1.4c-0.4,0-1.1-0.6-2.5-1.9c-1.5-1.4-3.5-3.2-4.9-4.4c-1.3-1.2-3.5-3.3-5.2-5l0.2,7.8
	c0,1.7,0.1,2.3,0.8,2.5c0.3,0.1,0.7,0.1,1.2,0.2c0.3,0,0.5,0.1,0.5,0.2c0,0.2-0.2,0.2-0.5,0.2c-0.8,0-1.5,0-2.9-0.1
	c-0.5,0-2.2,0.1-3.1,0.1c-0.3,0-0.5,0-0.5-0.2c0-0.1,0.1-0.2,0.4-0.2c0.2,0,0.5,0,0.7-0.1c0.9-0.1,1-0.7,1.1-2.8
	C134.2,30.9,134.1,25.3,134.3,22.4z"/>
<path fill="#494C8D" d="M163,32.3c0,1.8,0,3.9,0.1,4.9c0,0.6,0.2,1.1,0.9,1.2c0.3,0,0.6,0.1,1,0.1s0.5,0.1,0.5,0.3
	c0,0.1-0.1,0.2-0.5,0.2c-1.5,0-3.7-0.1-4.1-0.1c-0.4,0-2.6,0.1-3.3,0.1c-0.4,0-0.5,0-0.5-0.2s0.2-0.2,0.5-0.2c0.2,0,0.5,0,0.7-0.1
	c0.5-0.1,0.7-0.6,0.7-1.3c0.1-1,0.1-2.6,0.1-4.8v-9c-0.9,0-2.3,0-3.4,0c-1.3,0.1-1.8,0.4-2.1,1.2c-0.1,0.3-0.2,0.4-0.2,0.5
	c0,0.2-0.1,0.4-0.3,0.4s-0.2-0.2-0.2-0.5c0.1-0.9,0.3-2.2,0.5-3.1c0-0.3,0.1-0.6,0.2-0.6c0.2,0,0.2,0.1,0.8,0.2
	c0.4,0.1,1.7,0.2,2.5,0.2h9.9c0.7,0,1.1,0,1.4-0.1c0.4-0.1,0.5-0.1,0.7-0.1s0.2,0.1,0.2,0.7c0,0.3-0.1,2.5-0.2,3
	c0,0.3-0.1,0.5-0.2,0.5c-0.2,0-0.2-0.1-0.2-0.4s0-0.3,0-0.5c-0.1-0.7-0.4-1.3-1.8-1.4c-0.7-0.1-1.9-0.1-3.7-0.1L163,32.3L163,32.3z"
	/>
<path fill="#494C8D" d="M172.8,28.3c0-3.6,0-4-0.1-4.7c0-0.9-0.3-1.2-0.9-1.4c-0.3-0.1-0.7-0.1-0.9-0.1c-0.3,0-0.4-0.1-0.4-0.3
	c0-0.1,0.2-0.2,0.5-0.2c1,0,3.2,0.1,3.5,0.1c0.4,0,2.6-0.1,3.7-0.1c2.1,0,3.6,0.2,4.6,0.8c1.1,0.6,2.1,1.8,2.1,3.5
	c0,1.9-1.1,3.4-3,4.6c1.4,2,3,4.5,4.4,6.1c1.2,1.4,1.7,1.7,2.4,1.8c0.2,0,0.4,0,0.6,0.1c0.2,0,0.4,0.1,0.4,0.2
	c0,0.2-0.2,0.2-0.5,0.2h-2c-2.3,0-3.3-0.2-4.1-0.8c-0.7-0.4-1.5-1.4-2.3-2.9c-1-1.7-1.6-2.7-2-3.3c0-0.1-0.2-0.1-0.3-0.1H177
	c-0.1,0-0.2,0-0.2,0.2v1.2c0,1.8,0,2.9,0.1,3.9c0,0.6,0.2,1.1,0.9,1.3c0.3,0.1,0.6,0.1,1,0.1s0.4,0.1,0.4,0.3c0,0.1-0.2,0.2-0.5,0.2
	c-1.5,0-4-0.1-4.2-0.1c-0.3,0-2.5,0.1-3.2,0.1c-0.3,0-0.5-0.1-0.5-0.2s0.2-0.2,0.4-0.2s0.5,0,0.8-0.1c0.5-0.1,0.6-0.5,0.7-1.3
	c0.1-1,0.1-2.6,0.1-4.8V28.3z M176.8,29.8c0,0.2,0.1,0.3,0.2,0.3c0.4,0.2,1.1,0.3,1.7,0.3c0.6,0,1.1-0.1,1.4-0.4
	c0.5-0.4,0.9-1.4,0.9-2.9c0-3.3-2-4.1-3.2-4.1c-0.4,0-0.7,0-0.9,0.1c-0.1,0-0.1,0.1-0.1,0.3L176.8,29.8L176.8,29.8z"/>
<path fill="#494C8D" d="M193.7,33c0-1.2-0.2-1.7-0.6-2.5c-0.8-1.6-3.1-5.3-3.9-6.5c-0.9-1.3-1.1-1.6-1.8-1.9c-0.1,0-0.4-0.1-0.6-0.1
	c-0.2,0-0.3-0.1-0.3-0.3c0-0.2,0.2-0.2,0.5-0.2c0.9,0,2.6,0.1,3.5,0.1c0.4,0,1.8-0.1,3.2-0.1c0.2,0,0.4,0,0.4,0.2s-0.1,0.2-0.5,0.3
	c-0.6,0.1-0.7,0.3-0.7,0.5s0.1,0.4,0.2,0.7c0.4,0.7,3.2,5.8,3.6,6.4c1.4-2.6,2.6-4.9,3-5.8c0.2-0.5,0.4-0.9,0.4-1.2
	c0-0.3-0.1-0.5-0.8-0.6c-0.2,0-0.4-0.1-0.4-0.3c0-0.1,0.1-0.2,0.5-0.2c0.9,0,1.7,0.1,2.6,0.1c0.3,0,2.2-0.1,2.6-0.1
	c0.3,0,0.5,0,0.5,0.2s-0.2,0.3-0.5,0.3s-0.6,0.1-0.9,0.2c-0.6,0.3-0.9,0.6-1.3,1.2c-0.8,1-4,6.6-4.3,7.5c-0.3,1-0.4,1.9-0.4,2.2v1.6
	c0,0.4,0,1.3,0.1,2.3c0,0.6,0.1,1.1,0.9,1.3c0.4,0.1,0.9,0.1,1.2,0.1s0.4,0.1,0.4,0.3c0,0.1-0.1,0.2-0.5,0.2c-1.6,0-3.5-0.1-4.3-0.1
	c-0.7,0-2.5,0.1-3.5,0.1c-0.3,0-0.5-0.1-0.5-0.3c0-0.1,0.1-0.2,0.4-0.2c0.4,0,0.6,0,0.8-0.1c0.6-0.2,0.7-0.6,0.8-1.2
	c0.1-1,0.1-2,0.1-2.4V33H193.7z"/>
<g>
	<path fill="#494C8D" d="M68.8,55.1H64l-1.2,5.6h-2.5l2.6-12.5h2.5l-1,4.8h4.8l1-4.8h2.5l-2.6,12.5h-2.5L68.8,55.1z"/>
	<path fill="#494C8D" d="M83.1,56.9H77c0,0.1,0,0.2,0,0.2c0,0.6,0.2,1.1,0.5,1.5s0.8,0.6,1.2,0.6c0.8,0,1.4-0.4,1.9-1.3l2.2,0.4
		c-0.4,0.9-1,1.5-1.7,2c-0.7,0.4-1.5,0.7-2.4,0.7c-1.2,0-2.2-0.4-2.9-1.2C75,59,74.7,58,74.7,56.7c0-1.2,0.3-2.3,1-3.3
		c0.9-1.3,2.3-2,4-2c1.1,0,2,0.3,2.6,1s1,1.6,1,2.9C83.3,55.9,83.2,56.5,83.1,56.9z M81.1,55.5c0-0.1,0-0.2,0-0.2
		c0-0.7-0.1-1.2-0.4-1.5s-0.7-0.5-1.2-0.5s-0.9,0.2-1.3,0.6c-0.4,0.4-0.7,0.9-0.8,1.7L81.1,55.5L81.1,55.5z"/>
	<path fill="#494C8D" d="M89,54.2L86.7,54c0.3-0.8,0.7-1.4,1.4-1.9c0.7-0.5,1.6-0.7,2.7-0.7c1.2,0,2,0.2,2.6,0.7s0.8,1,0.8,1.7
		c0,0.3,0,0.6-0.1,0.9c0,0.3-0.2,1.1-0.5,2.4c-0.2,1.1-0.4,1.8-0.4,2.3c0,0.4,0.1,0.8,0.2,1.3H91c-0.1-0.3-0.2-0.7-0.2-1
		c-0.4,0.4-0.8,0.7-1.2,0.9c-0.5,0.2-0.9,0.3-1.4,0.3c-0.7,0-1.4-0.2-1.8-0.7c-0.5-0.5-0.7-1.1-0.7-1.9c0-0.9,0.3-1.6,0.8-2.1
		s1.5-0.8,2.8-0.9c1.2-0.1,1.9-0.2,2.3-0.3c0.1-0.3,0.2-0.6,0.2-0.8c0-0.3-0.1-0.5-0.3-0.7c-0.2-0.2-0.5-0.3-0.9-0.3s-0.8,0.1-1,0.3
		C89.3,53.6,89.1,53.9,89,54.2z M91.3,56.5c-0.1,0-0.3,0.1-0.6,0.1c-1.2,0.1-2,0.4-2.4,0.6c-0.3,0.2-0.4,0.5-0.4,0.8
		s0.1,0.5,0.3,0.7c0.2,0.2,0.5,0.3,0.8,0.3c0.4,0,0.7-0.1,1-0.3s0.6-0.4,0.7-0.7c0.2-0.3,0.3-0.7,0.4-1.3L91.3,56.5z"/>
	<path fill="#494C8D" d="M96.9,60.7l2.6-12.5h2.4l-2.6,12.5H96.9z"/>
	<path fill="#494C8D" d="M103.9,53.5l0.4-1.8h1.2l0.3-1.4l2.8-1.7l-0.6,3.1h1.5l-0.4,1.8h-1.5l-0.8,3.8c-0.1,0.7-0.2,1.1-0.2,1.2
		c0,0.2,0.1,0.3,0.2,0.4c0.1,0.1,0.3,0.2,0.6,0.2c0.1,0,0.4,0,0.8-0.1l-0.4,1.8c-0.4,0.1-0.8,0.1-1.3,0.1c-0.9,0-1.5-0.2-1.9-0.5
		S104,59.6,104,59c0-0.3,0.1-0.9,0.3-1.9l0.8-3.6H103.9z"/>
	<path fill="#494C8D" d="M113.2,60.7h-2.4l2.6-12.5h2.4l-0.9,4.4c0.5-0.4,1.1-0.7,1.5-0.9c0.5-0.2,1-0.3,1.5-0.3
		c0.7,0,1.3,0.2,1.7,0.6c0.4,0.4,0.6,1,0.6,1.7c0,0.4-0.1,0.9-0.2,1.7l-1.1,5.3h-2.4l1.1-5.4c0.1-0.6,0.2-1,0.2-1.1
		c0-0.3-0.1-0.5-0.3-0.7c-0.2-0.2-0.4-0.3-0.8-0.3s-0.8,0.1-1.2,0.4c-0.5,0.4-0.9,0.8-1.1,1.4c-0.1,0.3-0.3,1-0.6,2.1L113.2,60.7z"
		/>
	<path fill="#494C8D" d="M138.3,56.2l2.6,0.4c-0.5,1.4-1.3,2.5-2.3,3.2s-2.2,1.1-3.5,1.1c-1.5,0-2.7-0.5-3.5-1.4
		c-0.9-0.9-1.3-2.3-1.3-4c0-1.4,0.3-2.7,0.9-3.9c0.6-1.2,1.4-2.1,2.4-2.7c1-0.6,2.1-0.9,3.3-0.9c1.3,0,2.4,0.4,3.2,1.1
		c0.8,0.7,1.3,1.7,1.5,3l-2.4,0.2c-0.1-0.7-0.4-1.3-0.8-1.6c-0.4-0.3-0.9-0.5-1.5-0.5c-0.7,0-1.4,0.2-2,0.6c-0.6,0.4-1.1,1.1-1.5,2
		s-0.5,1.8-0.5,2.7c0,1,0.2,1.8,0.7,2.3s1.1,0.8,1.8,0.8s1.3-0.2,1.8-0.6C137.6,57.7,138,57.1,138.3,56.2z"/>
	<path fill="#494C8D" d="M146.9,54.2l-2.4-0.2c0.3-0.8,0.7-1.4,1.4-1.9s1.6-0.7,2.7-0.7c1.2,0,2,0.2,2.6,0.7s0.8,1,0.8,1.7
		c0,0.3,0,0.6-0.1,0.9c0,0.3-0.2,1.1-0.5,2.4c-0.2,1.1-0.4,1.8-0.4,2.3c0,0.4,0.1,0.8,0.2,1.3h-2.4c-0.1-0.3-0.2-0.7-0.2-1
		c-0.4,0.4-0.8,0.7-1.2,0.9c-0.5,0.2-0.9,0.3-1.4,0.3c-0.7,0-1.4-0.2-1.8-0.7c-0.5-0.5-0.7-1.1-0.7-1.9c0-0.9,0.3-1.6,0.8-2.1
		s1.5-0.8,2.8-0.9c1.2-0.1,1.9-0.2,2.3-0.3c0.1-0.3,0.2-0.6,0.2-0.8c0-0.3-0.1-0.5-0.3-0.7s-0.5-0.3-0.9-0.3s-0.8,0.1-1,0.3
		C147.1,53.6,146.9,53.9,146.9,54.2z M149.2,56.5c-0.1,0-0.3,0.1-0.6,0.1c-1.2,0.1-2,0.4-2.4,0.6c-0.3,0.2-0.4,0.5-0.4,0.8
		s0.1,0.5,0.3,0.7s0.5,0.3,0.8,0.3c0.4,0,0.7-0.1,1-0.3s0.6-0.4,0.7-0.7c0.2-0.3,0.3-0.7,0.4-1.3L149.2,56.5z"/>
	<path fill="#494C8D" d="M156.4,51.7h2.3l-0.4,1.8c0.8-1.3,1.8-2,2.7-2c0.3,0,0.7,0.1,1.1,0.3l-0.9,2c-0.2-0.1-0.5-0.1-0.7-0.1
		c-0.4,0-0.8,0.2-1.3,0.5c-0.4,0.3-0.8,0.7-1,1.3c-0.2,0.5-0.5,1.4-0.7,2.5l-0.6,2.8h-2.4L156.4,51.7z"/>
	<path fill="#494C8D" d="M171.8,56.9h-6.1c0,0.1,0,0.2,0,0.2c0,0.6,0.2,1.1,0.5,1.5s0.8,0.6,1.2,0.6c0.8,0,1.4-0.4,1.9-1.3l2.2,0.4
		c-0.4,0.9-1,1.5-1.7,2c-0.7,0.4-1.5,0.7-2.4,0.7c-1.2,0-2.2-0.4-2.9-1.2c-0.8-0.8-1.1-1.8-1.1-3.1c0-1.2,0.3-2.3,1-3.3
		c0.9-1.3,2.3-2,4-2c1.1,0,2,0.3,2.6,1s1,1.6,1,2.9C171.9,55.9,171.9,56.5,171.8,56.9z M169.7,55.5c0-0.1,0-0.2,0-0.2
		c0-0.7-0.1-1.2-0.4-1.5c-0.3-0.3-0.7-0.5-1.2-0.5s-0.9,0.2-1.3,0.6c-0.4,0.4-0.7,0.9-0.8,1.7L169.7,55.5L169.7,55.5z"/>
</g>
</svg>
