<?xml version="1.0" encoding="utf-8"?>
<!-- Generator: Adobe Illustrator 22.0.1, SVG Export Plug-In . SVG Version: 6.00 Build 0)  -->
<svg version="1.1" id="Layer_1" xmlns="http://www.w3.org/2000/svg" xmlns:xlink="http://www.w3.org/1999/xlink" x="0px" y="0px"
	 viewBox="0 0 230 80" enable-background="new 0 0 230 80" xml:space="preserve">
<g>
	<g>
		<path fill="#3C3B37" d="M25.4,56.1c0.5-1.5,1.5-2,2.5-2.5c3.6-1.8,7.5-2.5,11.4-2.9c9.4-1.1,18.8-1.1,28.2,0.5
			c2.8,0.5,5.7,1.1,8.3,2.4c0.3,0.1,0.5,0.3,0.8,0.4c2.6,1.5,2.6,3.2,0,4.8c-0.5-1.8-1.9-2.6-3.5-3.2c-3.9-1.7-8.1-2.4-12.3-2.8
			c-10-1-20-0.9-29.9,1.4C29.1,54.6,27.4,55.3,25.4,56.1z"/>
		<path fill="#3C3B38" d="M27,47.8c0.7-1.6,1.9-2.2,3.2-2.8c3.5-1.5,7.3-2.1,11-2.5c9.3-1.1,18.6-0.9,27.8,1.1
			c2.2,0.5,4.5,1.1,6.4,2.5c1.8,1.3,1.8,2.7-0.2,4c-0.7-1.8-2.2-2.6-3.9-3.2c-5.3-2-10.9-2.5-16.4-2.8c-8.3-0.4-16.6-0.1-24.7,2.4
			C29.2,46.9,28.2,47.4,27,47.8z"/>
		<path fill="#3D3C38" d="M72.9,42.3c-0.7-1.6-2-2.3-3.4-2.8c-3.6-1.4-7.3-1.9-11.1-2.3c-7.8-0.8-15.5-0.5-23.2,1.1
			c-1.9,0.4-3.7,1.2-5.7,1.9c0.5-1.2,1.3-1.7,2.2-2.2c3.4-1.7,7.1-2.2,10.8-2.6c8.4-0.9,16.8-0.8,25.1,1.1c1.8,0.4,3.6,1,5.1,2
			C74.6,39.5,74.7,40.8,72.9,42.3z"/>
		<path fill="#3D3C38" d="M69.3,34.3c-1-1.9-2.8-2.4-4.6-2.9c-5.4-1.4-10.9-1.8-16.5-1.6c-2.6,0.1-5.3,0.3-7.9,0.8
			c-2.4,0.4-4.7,0.8-7.1,2.1c0.2-1.1,0.9-1.5,1.6-1.8c2.3-1.2,4.8-1.7,7.3-2c7.4-1.1,14.8-1,22.2,0.5c1.7,0.3,3.4,0.8,4.9,1.8
			C70.7,32,70.7,32.9,69.3,34.3z"/>
		<path fill="#403F3B" d="M39.5,24.9c0.4-1.1,1.3-1.3,2.1-1.6c4-1.4,8.2-1.4,12.4-1.3c2.8,0.1,5.7,0.3,8.4,1.3
			c0.8,0.3,1.7,0.6,2,1.6c-0.1,0.5-0.3,0.9-0.8,1.1c-2.1-2.2-5-2.3-7.7-2.6C50.4,22.9,45,23,39.5,24.9z"/>
	</g>
	<path fill="#3C3B37" d="M140.6,27.5c2.1,0,4.3,0,6.3,0c0.4,0.4,0.3,0.8,0.2,1.3c-3.2,1.1-3.2,1.1-2.7,4.7c0.7,5.3,1.4,10.5,2,15.8
		c0.2,1.9,0.9,3.1,3,3c0.4,0.5,0.3,0.9,0.2,1.5c-3.5,0-6.9,0-10.3,0c-0.4-0.4-0.3-0.9-0.1-1.3c3.6-0.7,3.8-1,3.3-4.6
		c-0.6-4-1.1-8.1-1.6-12.1c-0.1-0.5,0.1-1.1-0.6-1.7c-2.7,6.6-5.3,13.1-7.9,19.5c-1.4,0.7-1.7-0.2-2.1-1.1c-2.4-5.7-4.8-11.3-7.2-17
		c-0.2-0.6-0.5-1.1-1.1-1.6c-0.3,2.5-0.6,5-0.9,7.6c-0.3,2.3-0.6,4.6-0.9,6.9c-0.4,3,0,3.6,3.1,4c0.4,0.4,0.4,0.8,0.2,1.4
		c-2.8,0-5.6,0-8.5,0c-0.4-0.4-0.3-0.8-0.1-1.3c2.6-0.6,2.8-0.8,3.1-3.5c0.7-5.3,1.4-10.6,2.1-15.9c0.4-2.9,0-3.5-2.8-4.1
		c-0.1-0.2-0.2-0.4-0.2-0.6c0-0.2,0.1-0.5,0.1-0.8c2.2,0,4.4,0,6.6,0c2.8,6.5,5.5,13.1,8.3,19.7c0.2,0.1,0.3,0.1,0.5,0.2
		C135.4,40.9,137.8,34.2,140.6,27.5z"/>
	<path fill="#3C3B37" d="M176,46.2c-0.2-2.5-1.6-4.2-3.8-5.1c-0.9-0.4-1.9-0.6-2.9-0.9c0.2-0.5,0.7-0.5,1.1-0.6
		c3.3-1.4,4.6-3.4,4.3-6.4c-0.3-2.9-2.2-4.9-5.6-5.4c-5.3-0.8-10.7-0.2-16-0.4c-0.1,0.4-0.2,0.7-0.1,0.9c0,0.2,0.1,0.4,0.2,0.6
		c3.7,0.8,3.7,0.8,3.7,4.6c0,4.8,0,9.6,0,14.4c0,3.7-0.1,3.8-3.7,4.5c-0.3,0.4-0.4,0.9,0.1,1.3c5.1,0,10.2,0,15.3,0
		c1.6,0,3.1-0.6,4.5-1.4C175.2,50.8,176.2,48.8,176,46.2z M160.6,29.5c2-0.2,3.9-0.3,5.9,0.2c2.7,0.6,3.9,2.3,3.8,5
		c-0.1,2.5-1.4,4-4.2,4.4c-1.8,0.3-3.6,0.2-5.5,0.1C160.6,35.9,160.6,32.8,160.6,29.5z M171.5,47.6c-0.3,2.7-1.9,4.1-5,4.2
		c-1.3,0.1-2.6,0-3.8,0c-1.3-0.1-2.2-0.8-2.2-2.2c0-2.7,0-5.4,0-8.4c2.5,0.1,4.7-0.3,6.9,0.3C170.5,42.3,171.8,44.4,171.5,47.6z"/>
	<path fill="#3C3B37" d="M102.9,27.7c-5.7-0.8-11.5-0.2-17.3-0.3c-0.1,0.4-0.2,0.6-0.2,0.8c0,0.2,0.1,0.4,0.1,0.6
		c3.7,0.8,3.7,0.8,3.7,4.6c0,4.9,0,9.9,0,14.8c0,3.4-0.2,3.6-3.6,4.1c-0.3,0.4-0.3,0.8-0.1,1.3c5.6,0,11.1,0.3,16.5-0.1
		c5.6-0.4,9.6-4.6,10.8-10.3C114.4,35.3,110.3,28.7,102.9,27.7z M108.2,45.9c-0.9,2.9-2.9,4.8-5.8,5.6c-2.4,0.7-5,0.4-7.4,0.2
		c-1.1-0.1-1.8-0.7-1.8-1.9c0-6.7,0-13.5,0-20.4c2.7,0,5.3-0.3,7.9,0.2c3.2,0.5,5.4,2.5,6.6,5.4C109.1,38.5,109.4,42.2,108.2,45.9z"
		/>
	<path fill="#3C3B37" d="M202.8,50c-1.6-3.8-3.3-7.6-4.9-11.4c-1.7-3.8-3.4-7.7-5-11.5c-1.5,0-2.9-0.2-4.3,0.1
		c0.4,0.9,0.7,1.7,1,2.4c-2.8,6.8-5.7,13.4-8.4,20.1c-0.5,1.3-1.1,2.4-2.7,2.5c-0.2,0.6-0.3,1.1,0.1,1.4c2.8,0,5.5,0,8.2,0
		c0.2-0.6,0.3-1-0.2-1.4c-1.1-0.2-2.2,0-3.1-1.1c-0.2-2.2,1.2-3.9,1.9-5.9c3.8,0,7.5,0,11.3,0c0.7,2,2.1,3.7,2,5.8
		c-0.9,1.3-2.2,0.9-3.3,1.2c-0.3,0.4-0.3,0.8-0.1,1.3c3.4,0,6.7,0,10.1,0c0-0.5,0-0.9,0-1.4C204,52.1,203.3,51.2,202.8,50z
		 M186.2,43.3c1.5-3.7,3-7.4,4.7-11.5c1.7,4,3.3,7.7,4.9,11.5C192.5,43.3,189.5,43.3,186.2,43.3z"/>
</g>
</svg>
