<?xml version="1.0" encoding="utf-8"?>
<!-- Generator: Adobe Illustrator 22.0.1, SVG Export Plug-In . SVG Version: 6.00 Build 0)  -->
<svg version="1.1" id="Layer_1" xmlns:sketch="http://www.bohemiancoding.com/sketch/ns"
	 xmlns="http://www.w3.org/2000/svg" xmlns:xlink="http://www.w3.org/1999/xlink" x="0px" y="0px" viewBox="0 0 230 80"
	 enable-background="new 0 0 230 80" xml:space="preserve">
<title>FirstMed_LogoFINAL</title>
<desc>Created with Sketch.</desc>
<g id="Clip-3">
</g>
<g>
	<path id="Fill-5" sketch:type="MSShapeGroup" fill="#B82D3E" d="M179,49.6v3.5c0,2-1.3,3.7-3.2,4.3L116.2,71
		c-0.5,0.1-0.8,0.2-1.3,0.2l0,0l0,0c-0.5,0-0.8-0.1-1.3-0.2L54,57.4c-1.9-0.5-3.2-2.3-3.2-4.3V28.8c0-2,1.3-3.7,3.2-4.3L113.7,11
		c0.4-0.1,0.8-0.2,1.3-0.2l0,0c0.5,0,0.8,0.1,1.3,0.2l59.6,13.5c1.9,0.5,3.2,2.3,3.2,4.3V49.6L179,49.6z M182,28.8
		c0-3.3-2.1-6.1-5.2-7L117,8.2c-0.7-0.2-1.4-0.3-2.1-0.3l0,0c-0.7,0-1.4,0.1-2.1,0.3L53.2,21.7c-3.1,0.9-5.2,3.8-5.2,7v24.4
		c0,3.3,2.1,6.1,5.2,7l59.6,13.5c0.6,0.2,1.4,0.3,2.1,0.3l0,0c0.7,0,1.5-0.1,2.1-0.3l59.6-13.5c3.1-0.9,5.2-3.8,5.2-7v-3.5V32.2
		L182,28.8L182,28.8z"/>
	<path id="Fill-1" sketch:type="MSShapeGroup" fill="#B82D3E" d="M125.2,18.3c0-5.7-4.6-10.3-10.3-10.3c-5.7,0-10.3,4.6-10.3,10.3
		c0,5.7,4.6,10.3,10.3,10.3C120.7,28.5,125.2,24,125.2,18.3"/>
	<g id="Stroke-2">
		<path fill="#B82D3E" d="M115,30.6c-6.8,0-12.4-5.5-12.4-12.4S108.1,5.9,115,5.9c6.8,0,12.4,5.5,12.4,12.4S121.8,30.6,115,30.6z
			 M115,10c-4.5,0-8.3,3.7-8.3,8.3s3.7,8.3,8.3,8.3c4.5,0,8.3-3.7,8.3-8.3S119.5,10,115,10z"/>
	</g>
	<path id="Fill-4" sketch:type="MSShapeGroup" fill="#FFFFFF" d="M177.5,49.6v3.5c0,1.3-0.8,2.4-2.1,2.7l-59.6,13.5
		c-0.3,0.1-0.5,0.1-0.8,0.1l0,0c-0.3,0-0.5,0-0.8-0.1L54.5,56c-1.2-0.4-2.1-1.5-2.1-2.7V28.8c0-1.3,0.8-2.4,2.1-2.7l59.6-13.5
		c0.3-0.1,0.5-0.1,0.8-0.1l0,0c0.3,0,0.5,0,0.8,0.1l59.6,13.5c1.2,0.4,2.1,1.5,2.1,2.7v3.5V49.6L177.5,49.6z M175.9,24.5L116.2,11
		c-0.5-0.1-0.8-0.2-1.3-0.2l0,0c-0.5,0-0.8,0.1-1.3,0.2L54,24.5c-1.9,0.5-3.2,2.3-3.2,4.3v24.5c0,2,1.3,3.7,3.2,4.3l59.6,13.5
		c0.5,0.1,0.8,0.2,1.3,0.2l0,0l0,0c0.5,0,0.8-0.1,1.3-0.2l59.6-13.6c1.9-0.5,3.2-2.3,3.2-4.3V28.8C179,26.8,177.8,25.1,175.9,24.5
		L175.9,24.5z"/>
	<path id="Fill-7" sketch:type="MSShapeGroup" fill="#243967" d="M175.4,26l-59.6-13.5c-0.3-0.1-0.5-0.1-0.8-0.1l0,0
		c-0.3,0-0.5,0-0.8,0.1L54.5,26c-1.2,0.4-2.1,1.5-2.1,2.7v24.5c0,1.3,0.8,2.4,2.1,2.7l59.6,13.5c0.3,0.1,0.5,0.1,0.8,0.1l0,0
		c0.3,0,0.5,0,0.8-0.1l59.6-13.5c1.2-0.4,2.1-1.5,2.1-2.7v-3.5V32.3v-3.5C177.5,27.5,176.7,26.4,175.4,26"/>
	<path id="Fill-8" sketch:type="MSShapeGroup" fill="#FFFFFF" d="M58.3,32.2c0-0.3,0.2-0.5,0.5-0.5h10.5c0.3,0,0.5,0.3,0.5,0.5v1.5
		c0,0.3-0.2,0.5-0.5,0.5H61v6h7c0.3,0,0.5,0.3,0.5,0.5V42c0,0.3-0.3,0.5-0.5,0.5h-7v6.8c0,0.3-0.3,0.5-0.5,0.5h-1.7
		c-0.3,0-0.5-0.3-0.5-0.5L58.3,32.2"/>
	<path id="Fill-9" sketch:type="MSShapeGroup" fill="#FFFFFF" d="M71.8,32.2c0-0.3,0.3-0.5,0.5-0.5H74c0.3,0,0.5,0.3,0.5,0.5v17.3
		c0,0.3-0.3,0.5-0.5,0.5h-1.7c-0.3,0-0.5-0.3-0.5-0.5V32.2"/>
	<path id="Fill-10" sketch:type="MSShapeGroup" fill="#FFFFFF" d="M84.3,40.5c1.7,0,3.2-1.5,3.2-3.3c0-1.7-1.5-3.1-3.2-3.1h-4.6v6.4
		H84.3L84.3,40.5z M77,32.2c0-0.3,0.2-0.5,0.5-0.5h7.1c3.1,0,5.7,2.5,5.7,5.5c0,2.4-1.6,4.4-3.8,5.3l3.5,6.6c0.2,0.4,0,0.7-0.5,0.7
		h-2c-0.2,0-0.4-0.1-0.5-0.3l-3.5-6.9h-3.9v6.6c0,0.3-0.3,0.5-0.5,0.5h-1.7c-0.3,0-0.5-0.3-0.5-0.5L77,32.2L77,32.2z"/>
	<path id="Fill-11" sketch:type="MSShapeGroup" fill="#FFFFFF" d="M91.8,47.4c0.3-0.4,0.5-0.7,0.6-1.1c0.3-0.4,0.6-0.5,0.9-0.2
		c0.2,0.1,2.2,1.8,4.2,1.8c1.8,0,2.9-1.1,2.9-2.5c0-1.5-1.4-2.5-3.9-3.6c-2.6-1.1-4.7-2.5-4.7-5.5c0-2,1.5-4.8,5.7-4.8
		c2.6,0,4.5,1.4,4.8,1.5c0.2,0.1,0.5,0.5,0.2,0.9c-0.2,0.3-0.5,0.6-0.6,1c-0.2,0.4-0.5,0.5-0.9,0.3c-0.2-0.1-2-1.3-3.5-1.3
		c-2.2,0-2.9,1.4-2.9,2.4c0,1.5,1.2,2.4,3.3,3.3c3,1.2,5.6,2.6,5.6,5.8c0,2.7-2.5,4.9-5.8,4.9c-3.2,0-5.2-1.6-5.6-2.1
		C91.8,48,91.6,47.8,91.8,47.4"/>
	<path id="Fill-12" sketch:type="MSShapeGroup" fill="#FFFFFF" d="M108.9,34.2h-4.3c-0.3,0-0.5-0.3-0.5-0.5v-1.5
		c0-0.3,0.2-0.5,0.5-0.5h11.3c0.3,0,0.5,0.3,0.5,0.5v1.4c0,0.3-0.2,0.5-0.5,0.5h-4.3v15.3c0,0.3-0.3,0.5-0.5,0.5h-1.7
		c-0.3,0-0.5-0.3-0.5-0.5L108.9,34.2"/>
	<path id="Fill-13" sketch:type="MSShapeGroup" fill="#FFFFFF" d="M124.2,31.8c0.1-0.2,0.3-0.4,0.5-0.4h0.5c0.2,0,0.4,0.1,0.5,0.3
		l5.5,13.4h0.1l5.5-13.4c0.1-0.2,0.3-0.3,0.5-0.3h0.5c0.2,0,0.5,0.2,0.5,0.4l3.2,17.5c0.1,0.4-0.1,0.6-0.5,0.6H139
		c-0.3,0-0.5-0.2-0.5-0.4L136.6,38h-0.1l-4.7,12c-0.1,0.2-0.2,0.3-0.5,0.3h-0.5c-0.2,0-0.4-0.1-0.5-0.3l-4.7-12h-0.1l-1.9,11.6
		c0,0.2-0.3,0.4-0.5,0.4h-1.7c-0.4,0-0.5-0.3-0.5-0.6L124.2,31.8"/>
	<path id="Fill-14" sketch:type="MSShapeGroup" fill="#FFFFFF" d="M143,32.2c0-0.3,0.2-0.5,0.5-0.5h10.5c0.3,0,0.5,0.3,0.5,0.5v1.5
		c0,0.3-0.2,0.5-0.5,0.5h-8.3v5.4h7c0.3,0,0.5,0.3,0.5,0.5v1.5c0,0.3-0.3,0.5-0.5,0.5h-7v5.6h8.3c0.3,0,0.5,0.3,0.5,0.5v1.5
		c0,0.3-0.2,0.5-0.5,0.5h-10.5c-0.3,0-0.5-0.3-0.5-0.5V32.2"/>
	<path id="Fill-15" sketch:type="MSShapeGroup" fill="#FFFFFF" d="M162.5,47.5c3.8,0,6.6-2.8,6.6-6.6s-2.8-6.6-6.6-6.6H159v13.3
		L162.5,47.5L162.5,47.5z M156.4,32.2c0-0.3,0.2-0.5,0.5-0.5h6c5,0,9.2,4.1,9.2,9.1c0,5.1-4.1,9.2-9.2,9.2h-6
		c-0.3,0-0.5-0.3-0.5-0.5V32.2L156.4,32.2z"/>
	<path id="Fill-16" sketch:type="MSShapeGroup" fill="#B82D3E" d="M86.2,57.1l-16.4-0.5l16.4-0.5V57.1"/>
	<path id="Fill-17" sketch:type="MSShapeGroup" fill="#B82D3E" d="M143.7,57.1l16.4-0.5l-16.4-0.5V57.1"/>
	<path id="Fill-18" sketch:type="MSShapeGroup" fill="#FFFFFF" d="M91,57.7c0.4,0,0.6-0.1,0.6-0.4c0-0.3-0.2-0.5-0.5-0.5h-1.9v0.8
		H91L91,57.7z M91.1,56.4c0.1,0,0.3,0,0.4-0.1s0.2-0.2,0.2-0.3s0-0.2-0.1-0.3c-0.1-0.1-0.2-0.1-0.4-0.1h-1.9v0.8L91.1,56.4
		L91.1,56.4z M91.7,56.6c0.4,0.1,0.5,0.4,0.5,0.7c0,0.5-0.4,0.8-1.1,0.8h-2.4v-3h2.4c0.3,0,0.5,0.1,0.7,0.2c0.2,0.2,0.3,0.4,0.3,0.5
		C92,56.3,92,56.4,91.7,56.6L91.7,56.6z"/>
	<path id="Fill-19" sketch:type="MSShapeGroup" fill="#FFFFFF" d="M96.4,56.6c0-0.4-0.2-0.6-0.5-0.8c-0.3-0.2-0.5-0.3-0.9-0.3
		c-0.5,0-0.7,0.1-1,0.3c-0.3,0.2-0.4,0.5-0.4,0.8c0,0.4,0.1,0.6,0.4,0.8c0.3,0.2,0.6,0.3,1,0.3c0.5,0,0.7-0.1,1-0.3
		C96.2,57.3,96.4,57,96.4,56.6L96.4,56.6z M96.9,56.6c0,0.5-0.2,0.9-0.6,1.2c-0.4,0.3-0.8,0.4-1.3,0.4c-0.5,0-1-0.1-1.3-0.4
		c-0.4-0.3-0.6-0.7-0.6-1.2c0-0.5,0.2-0.9,0.6-1.2c0.4-0.3,0.8-0.4,1.3-0.4c0.5,0,0.9,0.1,1.3,0.4C96.7,55.8,96.9,56.2,96.9,56.6
		L96.9,56.6z"/>
	<path id="Fill-20" sketch:type="MSShapeGroup" fill="#FFFFFF" d="M100.2,56.5c0.4,0,0.5-0.2,0.5-0.5c0-0.4-0.2-0.5-0.6-0.5h-1.7
		v0.9H100.2L100.2,56.5z M101.3,58.2h-0.5l-0.8-1.1h-1.5v1.1H98v-3h2.4c0.3,0,0.5,0.1,0.7,0.3c0.2,0.2,0.3,0.4,0.3,0.6
		c0,0.3-0.1,0.5-0.2,0.6c-0.1,0.2-0.3,0.3-0.5,0.3L101.3,58.2L101.3,58.2z"/>
	<path id="Fill-21" sketch:type="MSShapeGroup" fill="#FFFFFF" d="M105.6,58.2H105l-2.3-2.5v2.5h-0.5v-3h0.6l2.3,2.5v-2.5h0.5V58.2"
		/>
	<path id="Fill-22" sketch:type="MSShapeGroup" fill="#FFFFFF" d="M108.2,55.2h0.5v3h-0.5V55.2z"/>
	<path id="Fill-23" sketch:type="MSShapeGroup" fill="#FFFFFF" d="M113.3,58.2h-0.6l-2.3-2.5v2.5H110v-3h0.6l2.3,2.5v-2.5h0.5V58.2"
		/>
	<path id="Fill-24" sketch:type="MSShapeGroup" fill="#FFFFFF" d="M118.3,57.6c0.5-0.2,0.7-0.5,0.7-1c0-0.4-0.2-0.6-0.5-0.8
		c-0.3-0.2-0.5-0.3-0.9-0.3c-0.4,0-0.7,0.1-0.9,0.3c-0.3,0.2-0.5,0.5-0.5,0.8c0,0.4,0.1,0.6,0.4,0.8c0.3,0.2,0.6,0.3,1,0.3
		c0,0,0.1,0,0.2,0l-0.3-0.4l0.5-0.2L118.3,57.6L118.3,57.6z M118.2,58.2c-0.2,0-0.4,0.1-0.5,0.1c-0.5,0-0.9-0.1-1.3-0.4
		c-0.4-0.3-0.6-0.7-0.6-1.2c0-0.5,0.2-0.9,0.6-1.2c0.4-0.3,0.8-0.4,1.3-0.4c0.5,0,0.9,0.1,1.3,0.4c0.4,0.3,0.6,0.7,0.6,1.2
		c0,0.6-0.3,1.1-0.9,1.4l0.4,0.4l-0.5,0.2L118.2,58.2L118.2,58.2z"/>
	<path id="Fill-25" sketch:type="MSShapeGroup" fill="#FFFFFF" d="M124,57.2c0,0.3-0.2,0.5-0.5,0.7c-0.3,0.2-0.7,0.3-1.2,0.3
		c-0.5,0-0.9-0.1-1.3-0.3c-0.3-0.2-0.5-0.5-0.5-0.7v-2h0.5v1.9c0,0.3,0.1,0.4,0.3,0.5c0.2,0.1,0.5,0.2,0.9,0.2
		c0.4,0,0.6-0.1,0.9-0.2c0.2-0.1,0.3-0.3,0.3-0.5v-1.9h0.5L124,57.2"/>
	<path id="Fill-26" sketch:type="MSShapeGroup" fill="#FFFFFF" d="M128.2,58.2h-3.1v-3h3v0.5h-2.5v0.7h1.7v0.5h-1.7v0.9h2.6
		L128.2,58.2"/>
	<path id="Fill-27" sketch:type="MSShapeGroup" fill="#FFFFFF" d="M132.2,58.2h-3.1v-3h3v0.5h-2.5v0.7h1.7v0.5h-1.7v0.9h2.6
		L132.2,58.2"/>
	<path id="Fill-28" sketch:type="MSShapeGroup" fill="#FFFFFF" d="M136.6,58.2H136l-2.3-2.5v2.5h-0.5v-3h0.6l2.3,2.5v-2.5h0.5V58.2"
		/>
	<path id="Fill-29" sketch:type="MSShapeGroup" fill="#FFFFFF" d="M140.3,55.9c-0.5-0.2-0.9-0.4-1.4-0.4c-0.3,0-0.5,0-0.7,0.1
		c-0.2,0.1-0.3,0.2-0.3,0.3c0,0.1,0.1,0.2,0.3,0.3c0.1,0,0.4,0.1,0.6,0.1c0.4,0,0.6,0.1,0.8,0.1c0.4,0.1,0.6,0.2,0.8,0.3
		c0.2,0.1,0.3,0.4,0.3,0.5c0,0.3-0.2,0.5-0.5,0.7c-0.3,0.2-0.6,0.3-1.2,0.3c-0.7,0-1.4-0.2-1.7-0.5l0.3-0.4c0.5,0.3,1,0.5,1.5,0.5
		c0.4,0,0.6-0.1,0.8-0.2c0.2-0.1,0.3-0.2,0.3-0.4s-0.1-0.3-0.4-0.4c-0.1,0-0.5-0.1-1-0.1c-0.5,0-0.8-0.1-1-0.2
		c-0.3-0.1-0.4-0.3-0.4-0.5c0-0.3,0.1-0.5,0.4-0.6c0.3-0.2,0.6-0.3,1.1-0.3c0.6,0,1.2,0.2,1.6,0.5L140.3,55.9"/>
	<path id="Fill-30" sketch:type="MSShapeGroup" fill="#FFFFFF" d="M109.2,62.4h-0.5V60l-0.5,0.2v-0.5c0.2-0.1,0.4-0.2,0.5-0.3h0.5
		V62.4"/>
	<path id="Fill-31" sketch:type="MSShapeGroup" fill="#FFFFFF" d="M112.6,60.4c-0.2-0.4-0.5-0.5-1.1-0.5c-0.3,0-0.5,0.1-0.6,0.2
		s-0.3,0.2-0.3,0.4s0.1,0.3,0.3,0.4c0.2,0.1,0.4,0.2,0.6,0.2C112,61,112.3,60.8,112.6,60.4L112.6,60.4z M112.7,60.9
		c-0.3,0.4-0.7,0.5-1.3,0.5c-0.5,0-0.7-0.1-1-0.3c-0.3-0.2-0.4-0.4-0.4-0.6s0.1-0.5,0.4-0.7c0.3-0.2,0.6-0.3,1-0.3
		c0.5,0,0.9,0.2,1.3,0.5c0.3,0.3,0.5,0.6,0.5,1.1s-0.2,0.8-0.5,1.1c-0.3,0.3-0.7,0.5-1.2,0.5c-0.5,0-1-0.2-1.4-0.5l0.4-0.4
		c0.2,0.3,0.5,0.4,1,0.4c0.2,0,0.4,0,0.5-0.1c0.2-0.1,0.4-0.2,0.5-0.4c0.1-0.2,0.2-0.4,0.2-0.5C112.7,61,112.7,60.9,112.7,60.9
		L112.7,60.9z"/>
	<path id="Fill-32" sketch:type="MSShapeGroup" fill="#FFFFFF" d="M116.5,60.4c0-0.3-0.3-0.4-0.9-0.4s-0.9,0.1-0.9,0.4
		c0,0.1,0.1,0.3,0.3,0.3c0.2,0.1,0.4,0.1,0.6,0.1s0.5,0,0.6-0.1C116.4,60.5,116.5,60.4,116.5,60.4L116.5,60.4z M116.7,61.6
		c0-0.3-0.4-0.5-1.1-0.5s-1.1,0.2-1.1,0.5c0,0.3,0.4,0.5,1.1,0.5C116.3,62.1,116.7,61.9,116.7,61.6L116.7,61.6z M116.5,60.9
		c0.3,0.1,0.5,0.2,0.5,0.3c0.1,0.1,0.2,0.3,0.2,0.5c0,0.3-0.1,0.5-0.4,0.6c-0.3,0.2-0.6,0.3-1.2,0.3c-0.5,0-0.9-0.1-1.2-0.3
		c-0.3-0.2-0.5-0.4-0.5-0.6c0-0.2,0.1-0.3,0.2-0.5c0.1-0.1,0.3-0.2,0.5-0.3c-0.4-0.1-0.5-0.4-0.5-0.6c0-0.3,0.1-0.5,0.4-0.6
		c0.3-0.2,0.5-0.2,1-0.2s0.8,0.1,1,0.2c0.3,0.2,0.4,0.4,0.4,0.6C117,60.6,116.8,60.8,116.5,60.9L116.5,60.9z"/>
	<path id="Fill-33" sketch:type="MSShapeGroup" fill="#FFFFFF" d="M120.2,60.9c0.4,0.1,0.6,0.4,0.6,0.7c0,0.3-0.1,0.5-0.4,0.6
		c-0.3,0.2-0.6,0.3-1.2,0.3c-0.4,0-0.6-0.1-0.8-0.2c-0.3-0.1-0.5-0.3-0.6-0.5l0.4-0.4c0.4,0.4,0.7,0.5,1.3,0.5c0.6,0,1-0.2,1-0.5
		c0-0.3-0.4-0.5-1.2-0.5H119v-0.4h0.5c0.5,0,0.8-0.2,0.8-0.5c0-0.3-0.3-0.4-0.8-0.4c-0.5,0-0.8,0.1-1.1,0.4l-0.3-0.3
		c0.5-0.3,0.9-0.5,1.5-0.5c0.5,0,0.7,0.1,1,0.2c0.3,0.2,0.4,0.4,0.4,0.5C120.7,60.5,120.5,60.8,120.2,60.9"/>
	<path id="Fill-34" sketch:type="MSShapeGroup" fill="#FFFFFF" d="M125.2,18.3c0-5.7-4.6-10.3-10.3-10.3c-5.7,0-10.3,4.6-10.3,10.3
		c0,5.7,4.6,10.3,10.3,10.3C120.7,28.5,125.2,24,125.2,18.3"/>
	<path id="Fill-35" sketch:type="MSShapeGroup" fill="#B82D3E" d="M116.2,17h4.9v2.6h-4.9v4.9h-2.6v-4.9h-4.9V17h4.9v-4.9h2.6V17"/>
</g>
</svg>
