<?xml version="1.0" encoding="utf-8"?>
<!-- Generator: Adobe Illustrator 22.0.1, SVG Export Plug-In . SVG Version: 6.00 Build 0)  -->
<svg version="1.1" id="Layer_1" xmlns="http://www.w3.org/2000/svg" xmlns:xlink="http://www.w3.org/1999/xlink" x="0px" y="0px"
	 viewBox="0 0 230 80" enable-background="new 0 0 230 80" xml:space="preserve">
<g>
	<g>
		<g>
			<path fill="#179CD7" d="M64.6,49.9v4.5c0,1.9-1.5,3.4-3.4,3.4H39.5c-1.9,0-3.4-1.5-3.4-3.4v-4.5c0-1.9,1.5-3.4,3.4-3.4h21.8
				C63.1,46.5,64.6,48,64.6,49.9z"/>
			<path fill="#FFFFFF" d="M60.7,58.4H39.9c-2.4,0-4.4-2-4.4-4.4v-3.6c0-2.4,2-4.4,4.4-4.4h20.8c2.4,0,4.4,2,4.4,4.4V54
				C65.2,56.4,63.2,58.4,60.7,58.4z M39.9,47c-1.9,0-3.4,1.5-3.4,3.4V54c0,1.9,1.5,3.4,3.4,3.4h20.8c1.9,0,3.4-1.5,3.4-3.4v-3.6
				c0-1.9-1.5-3.4-3.4-3.4H39.9z"/>
		</g>
		<g>
			<path fill="#96C13D" d="M64.3,53.9L61,57.2c-1.4,1.4-3.5,1.4-4.9,0L40.8,41.8c-1.4-1.4-1.4-3.5,0-4.9l3.3-3.3
				c1.4-1.4,3.5-1.4,4.9,0L64.4,49C65.6,50.4,65.6,52.6,64.3,53.9z"/>
			<path fill="#FFFFFF" d="M58.7,58.5c-1.2,0-2.3-0.4-3.1-1.3L40.8,42.5c-0.9-0.9-1.3-2-1.3-3.1s0.4-2.3,1.3-3.1l2.6-2.6
				c0.9-0.9,2-1.3,3.1-1.3s2.3,0.4,3.1,1.3l14.7,14.7c0.9,0.9,1.3,2,1.3,3.1c0,1.2-0.4,2.3-1.3,3.1l-2.6,2.6
				C60.9,58,59.8,58.5,58.7,58.5z M46.5,33.4c-0.9,0-1.8,0.3-2.4,1L41.5,37c-0.7,0.7-1,1.5-1,2.4s0.3,1.8,1,2.4l14.7,14.7
				c1.3,1.3,3.5,1.3,4.9,0l2.6-2.6c0.7-0.7,1-1.5,1-2.4s-0.3-1.8-1-2.4L48.9,34.3C48.2,33.7,47.4,33.4,46.5,33.4z"/>
		</g>
		<g>
			<path fill="#0C9B49" d="M62.5,58H58c-1.9,0-3.4-1.5-3.4-3.4V32.7c0-1.9,1.5-3.4,3.4-3.4h4.5c1.9,0,3.4,1.5,3.4,3.4v21.8
				C66,56.4,64.5,58,62.5,58z"/>
			<path fill="#FFFFFF" d="M62.1,58.4h-3.6c-2.4,0-4.4-2-4.4-4.4V33.2c0-2.4,2-4.4,4.4-4.4h3.6c2.4,0,4.4,2,4.4,4.4V54
				C66.4,56.4,64.5,58.4,62.1,58.4z M58.5,29.8c-1.9,0-3.4,1.5-3.4,3.4V54c0,1.9,1.5,3.4,3.4,3.4h3.6c1.9,0,3.4-1.5,3.4-3.4V33.2
				c0-1.9-1.5-3.4-3.4-3.4C62.1,29.8,58.5,29.8,58.5,29.8z"/>
		</g>
		<g>
			<circle fill="#0C9B49" cx="60.2" cy="24.1" r="5.3"/>
			<path fill="#FFFFFF" d="M60.2,29.8c-3.2,0-5.7-2.6-5.7-5.7s2.6-5.7,5.7-5.7s5.7,2.6,5.7,5.7S63.4,29.8,60.2,29.8z M60.2,19.3
				c-2.7,0-4.8,2.1-4.8,4.8s2.1,4.8,4.8,4.8s4.8-2.1,4.8-4.8S62.8,19.3,60.2,19.3z"/>
		</g>
		<g>
			<circle fill="#96C13D" cx="38.7" cy="31.5" r="5.3"/>
			<path fill="#FFFFFF" d="M38.7,37.3c-3.2,0-5.7-2.6-5.7-5.7s2.6-5.7,5.7-5.7s5.7,2.6,5.7,5.7S41.9,37.3,38.7,37.3z M38.7,26.8
				c-2.7,0-4.8,2.1-4.8,4.8s2.1,4.8,4.8,4.8s4.8-2.1,4.8-4.8S41.4,26.8,38.7,26.8z"/>
		</g>
		<g>
			<circle fill="#179CD7" cx="30.7" cy="52.2" r="5.3"/>
			<path fill="#FFFFFF" d="M30.7,58c-3.2,0-5.7-2.6-5.7-5.7s2.6-5.7,5.7-5.7s5.7,2.6,5.7,5.7S33.9,58,30.7,58z M30.7,47.4
				c-2.7,0-4.8,2.1-4.8,4.8S28,57,30.7,57s4.8-2.1,4.8-4.8S33.4,47.4,30.7,47.4z"/>
		</g>
	</g>
	<g>
		<path fill="#5F6060" d="M71.1,31.8H77l6.6,20h0.1l6.4-20h5.8v25.5H92V37.7h-0.1l-6.6,19.7h-3.4l-6.6-19.7h-0.1v19.7h-3.9V31.8
			H71.1z"/>
		<path fill="#5F6060" d="M115.3,57.4h-3.7v-2.6h-0.1c-0.4,0.9-1.2,1.7-2.1,2.2c-0.9,0.6-1.9,0.9-2.8,0.9c-2.2,0-3.9-0.6-4.9-1.8
			c-0.9-1.2-1.5-3-1.5-5.5V38.9h3.8v11.4c0,1.6,0.3,2.7,0.9,3.4s1.4,1,2.4,1c0.8,0,1.5-0.2,2-0.4c0.5-0.3,0.9-0.6,1.3-1
			c0.3-0.4,0.6-0.9,0.7-1.6c0.2-0.6,0.3-1.3,0.3-2V38.9h3.8L115.3,57.4L115.3,57.4z"/>
		<path fill="#5F6060" d="M119.5,31.8h3.8v25.5h-3.8V31.8z"/>
		<path fill="#5F6060" d="M125.7,38.9h2.8v-5.6h3.8v5.6h3.4V42h-3.4v9.8c0,0.4,0,0.8,0.1,1.1c0,0.3,0.1,0.6,0.3,0.8
			c0.1,0.3,0.3,0.3,0.5,0.5c0.3,0.1,0.6,0.2,1,0.2c0.3,0,0.5,0,0.8,0s0.5-0.1,0.8-0.1v3.2c-0.4,0.1-0.9,0.1-1.2,0.2
			c-0.3,0.1-0.8,0.1-1.2,0.1c-1,0-1.8-0.1-2.4-0.3s-1.1-0.5-1.5-0.9c-0.3-0.3-0.6-0.9-0.7-1.5c-0.1-0.6-0.2-1.3-0.3-2.1V41.9h-2.8
			C125.7,41.9,125.7,38.9,125.7,38.9z"/>
		<path fill="#5F6060" d="M138.6,31.8h3.8v3.9h-3.8V31.8z M138.6,38.9h3.8v18.5h-3.8V38.9z"/>
		<path fill="#5F6060" d="M157.5,31.8c1,0,2.1,0.2,2.9,0.5s1.6,0.8,2.2,1.5c0.6,0.6,1.1,1.4,1.5,2.3s0.5,2,0.5,3.1s-0.2,2.1-0.5,3.1
			c-0.3,0.9-0.8,1.7-1.5,2.3c-0.6,0.6-1.4,1.1-2.2,1.5s-1.8,0.5-2.9,0.5h-8.3v11H147V31.8H157.5z M157,44.4c1.5,0,2.8-0.4,3.9-1.3
			c0.9-0.9,1.5-2.1,1.5-3.9s-0.5-3.1-1.5-3.9S158.7,34,157,34h-7.8v10.4H157z"/>
		<path fill="#5F6060" d="M169.6,31.8v25.5h-2.1V31.8H169.6z"/>
		<path fill="#5F6060" d="M174.2,41.8c0.3-0.8,0.9-1.5,1.5-2s1.3-0.9,2.1-1.1c0.9-0.3,1.7-0.3,2.7-0.3c0.8,0,1.5,0.1,2.2,0.3
			c0.8,0.2,1.5,0.4,2.1,0.9c0.6,0.4,1.1,1,1.5,1.8c0.3,0.8,0.6,1.8,0.6,3v9.8c0,0.9,0.4,1.4,1.2,1.4c0.3,0,0.4-0.1,0.7-0.2v1.9
			c-0.3,0.1-0.4,0.1-0.7,0.1c-0.2,0-0.4,0-0.7,0c-0.5,0-0.9-0.1-1.3-0.3c-0.3-0.2-0.6-0.3-0.8-0.7c-0.2-0.3-0.3-0.6-0.3-1
			c-0.1-0.4-0.1-0.9-0.1-1.3h-0.1c-0.3,0.6-0.8,1.1-1.1,1.6c-0.4,0.4-0.9,0.9-1.3,1.2c-0.5,0.3-1,0.5-1.6,0.7s-1.4,0.3-2.1,0.3
			s-1.5-0.1-2.2-0.3s-1.3-0.5-1.8-0.9s-0.9-1-1.2-1.7s-0.4-1.5-0.4-2.4c0-1.3,0.3-2.3,0.8-3s1.2-1.3,2.1-1.6c0.9-0.3,1.9-0.7,3-0.8
			c1.1-0.2,2.2-0.3,3.3-0.4c0.4-0.1,0.9-0.1,1.2-0.2c0.3-0.1,0.6-0.2,0.9-0.3c0.3-0.2,0.4-0.4,0.5-0.8c0.1-0.3,0.2-0.7,0.2-1.2
			c0-0.8-0.1-1.4-0.3-1.9c-0.3-0.5-0.5-0.9-0.9-1.2s-0.9-0.5-1.5-0.6c-0.5-0.1-1.1-0.2-1.7-0.2c-1.4,0-2.4,0.3-3.3,1
			s-1.3,1.8-1.4,3.3h-2.1C173.6,43.5,173.7,42.6,174.2,41.8z M184.6,47.3c-0.2,0.3-0.4,0.4-0.8,0.6c-0.3,0.1-0.7,0.2-1,0.3
			c-0.9,0.2-1.8,0.3-2.7,0.4c-0.9,0.1-1.8,0.3-2.6,0.6s-1.5,0.6-1.9,1.1s-0.8,1.2-0.8,2.1c0,0.6,0.1,1.1,0.3,1.5s0.5,0.9,0.9,1.1
			c0.3,0.3,0.8,0.6,1.2,0.8s0.9,0.3,1.5,0.3c0.8,0,1.5-0.2,2.3-0.4c0.8-0.3,1.4-0.7,1.9-1.1c0.5-0.5,0.9-1.1,1.3-1.8
			c0.3-0.7,0.5-1.5,0.5-2.4L184.6,47.3L184.6,47.3z"/>
		<path fill="#5F6060" d="M193.1,38.9V42h0.1c0.4-1.1,1.1-2.1,2.1-2.7c1-0.7,2.1-1,3.3-1s2.2,0.2,3,0.5s1.5,0.8,2,1.5
			c0.5,0.6,0.9,1.4,1,2.2s0.3,1.9,0.3,3v11.9h-2.1V45.8c0-0.8-0.1-1.5-0.2-2.2c-0.2-0.7-0.3-1.3-0.7-1.8c-0.3-0.5-0.8-0.9-1.4-1.2
			c-0.6-0.3-1.3-0.4-2.1-0.4c-0.9,0-1.6,0.2-2.2,0.5c-0.7,0.3-1.2,0.8-1.6,1.3c-0.4,0.6-0.8,1.2-1,2c-0.3,0.8-0.4,1.6-0.4,2.5v10.8
			H191V38.9H193.1z"/>
	</g>
</g>
</svg>
