<?xml version="1.0" encoding="utf-8"?>
<!-- Generator: Adobe Illustrator 22.0.1, SVG Export Plug-In . SVG Version: 6.00 Build 0)  -->
<svg version="1.1" id="Layer_1" xmlns="http://www.w3.org/2000/svg" xmlns:xlink="http://www.w3.org/1999/xlink" x="0px" y="0px"
	 viewBox="0 0 230 80" enable-background="new 0 0 230 80" xml:space="preserve">
<g>
	<path fill="#86C446" d="M52.8,21.5c0,0.4-0.1,0.7-0.1,1.1c0,11.4,0,22.9,0,34.4c0,0.4,0,0.7,0,1.2c-2.1,0-4,0.1-6.1,0
		c-0.8,0-0.8-0.8-0.8-1.4c0-4,0-7.9,0-11.8c0-1.5-0.9-2.7-2.3-3.1c-0.2,0-0.4,0-0.5,0c-3.6,0-7.2,0-10.8,0c-0.3,0.4-0.2,0.7-0.2,1
		c0,4.6,0,9.3,0,13.9c0,1.3-0.4,1.6-1.6,1.6c-1.8,0-3.5,0.1-5.3,0.1c0-12.2,0-24.6,0-36.8c2.1,0,4.2,0,6.3,0c0.8,0.3,0.8,1,0.8,1.7
		c0,3.1,0,6.2,0,9.3c0,0.4,0,0.7,0,1.1c0.1,1.3,0.9,2.2,2.1,2.2c3.5,0.2,7,0.1,10.6,0c0.1,0,0.2,0,0.4-0.2c0.2-0.4,0.1-0.8,0.1-1.3
		c0-3.7,0-7.3,0-11c0-0.7,0-1.5,0.8-1.9C48.5,21.5,50.7,21.5,52.8,21.5z"/>
	<path fill="#86C446" d="M66.6,58.5c-0.5-0.3-1.2-0.3-1.8-0.5c-4-1.1-6.5-3.9-6.8-8.3c-0.4-6.4-0.1-12.9-0.2-19.3
		c0-0.1,0.1-0.2,0.1-0.4c1.8,0,3.7,0,5.6,0c0.8,0,1,0.6,1,1.4c0,2.3,0,4.7,0,7.1c0,3.1,0,6.1,0,9.2c0,0.5,0,1.1,0.1,1.5
		c0.4,2.2,1.3,3.2,3.4,3.4c2.1,0.3,4.1,0.1,6.2-0.5c0-0.5,0-0.8,0-1.2c0-6.5,0-12.9,0-19.4c0-1.4,0.3-1.6,1.6-1.6c1.6,0,3.2,0,4.9,0
		c0,8.8,0,17.6,0,26.5c-2.5,0.8-5.2,1.3-7.8,1.5c-0.3,0-0.5-0.1-0.8,0.2C70.3,58.5,68.5,58.5,66.6,58.5z"/>
	<path fill="#86C446" d="M121.8,58.3c-1.9,0-3.7,0-5.6,0c-0.7,0-0.9-0.6-0.9-1.3c0-4.4,0-8.9,0-13.3c0-1.6,0-3.2-0.1-4.8
		c-0.3-2.3-1.4-3.5-3.8-3.5c-1.4,0-2.8,0.3-4,1.3c0,0.3,0,0.6,0,1c0,6.4,0,12.7,0,19.1c0,1.3-0.2,1.4-1.4,1.5c-1.3,0-2.5,0.1-3.8,0
		c-1,0-1.3-0.4-1.3-1.4c0-5.2,0-10.4,0-15.8c0-1.1-0.1-2.1-0.3-3.1c-0.3-1.4-1.2-2.2-2.5-2.4c-1.7-0.4-3.4-0.3-5.2,0.3
		c0,0.4,0,0.7,0,1c0,6.6,0,13.1,0,19.7c0,1.4-0.2,1.6-1.6,1.6c-1.6,0-3.2,0-4.9,0c0-8.9,0-17.7,0-26.7c6-1.8,12.2-3,18.2,0.3
		c3.6-2,7.4-2.6,11.4-1.4c3.7,1.1,5.8,4,5.8,8.1c0.1,6.5,0,12.9,0,19.4C121.8,57.9,121.8,58,121.8,58.3z"/>
	<path fill="#87C446" d="M154.7,58.3c0-9,0-17.8,0-26.7c1.7-0.5,3.4-0.9,5.2-1.2c3.2-0.5,6.6-0.8,9.9-0.3c4.5,0.7,7.3,3.5,7.6,8.1
		c0.4,6.7,0.1,13.2,0.2,19.9c0,0.1-0.1,0.1-0.1,0.3c-1.8,0-3.7,0.1-5.6,0c-0.8,0-0.9-0.7-0.9-1.3c0-2.9,0-5.7,0-8.5c0-2.5,0-5,0-7.7
		c0-0.5,0-0.9,0-1.3c-0.2-2.5-1.4-3.7-3.9-3.9c-1.9-0.1-3.8,0-5.8,0.5c0,0.4,0,0.7,0,1.1c0,6.5,0,13,0,19.5c0,1.4-0.3,1.7-1.7,1.7
		C158,58.3,156.4,58.3,154.7,58.3z"/>
	<path fill="#87C446" d="M191.1,30c-4.4,0.8-7.5,3.3-8.4,7.7c-0.9,4.6-1,9.3,0.2,13.9c0.9,3.5,3.1,5.8,6.8,6.7
		c0.4,0.1,0.9,0,1.3,0.3c0.9,0,1.7,0,2.6,0c1.8-0.5,3.6-1.3,5-2.9c0,0.4,0,0.5,0,0.7c0,1.7,0.3,1.9,1.9,1.9c0.4,0,0.7,0,1,0
		c1.2,0,2.4,0,3.6,0c0-9.1,0-17.9,0-26.8C202.2,30.4,194.6,29.3,191.1,30z M198.4,51.4c-1.9,1.7-4.1,2.1-6.5,1.4
		c-1.7-0.5-2.6-1.8-2.9-3.4c-0.6-3.4-0.6-6.8,0-10.2c0.4-2.7,2-3.8,4.7-3.9c1.1,0,2.1,0,3.1,0.1c0.5,0,1.1,0.1,1.6,0.2
		C198.4,40.9,198.4,46.1,198.4,51.4z"/>
	<path fill="#87C446" d="M149,31.4c-4.3-1.2-8.6-1.9-13.1-1.4c-5,0.5-8.4,3.5-9.2,8.5c-0.7,4-0.6,8.2,0.1,12.2
		c0.5,2.6,1.7,4.9,4,6.4c1.3,0.9,2.8,1.3,4.3,1.5c0.9,0,1.7,0,2.6,0c1.8-0.5,3.5-1.4,5-2.9c0,0.6,0,1.1,0,1.5c0,0.5,0.4,1,0.9,1
		c1.9,0.1,3.8,0,5.7,0c0-9,0-17.8,0-26.7C149.2,31.5,149.1,31.4,149,31.4z M142.6,51.4c-1.9,1.7-4.1,2.1-6.6,1.4
		c-1.9-0.5-2.7-2.1-3-3.8c-0.4-3.3-0.5-6.6,0.1-9.9c0.4-2.5,1.9-3.7,4.5-3.8c1.1,0,2.2,0,3.2,0.1c0.5,0,1.1,0.1,1.7,0.2
		C142.6,40.9,142.6,46.1,142.6,51.4z"/>
</g>
</svg>
