<?xml version="1.0" encoding="utf-8"?>
<!-- Generator: Adobe Illustrator 22.0.1, SVG Export Plug-In . SVG Version: 6.00 Build 0)  -->
<svg version="1.1" id="Layer_1" xmlns="http://www.w3.org/2000/svg" xmlns:xlink="http://www.w3.org/1999/xlink" x="0px" y="0px"
	 viewBox="0 0 230 80" enable-background="new 0 0 230 80" xml:space="preserve">
<g>
	<path fill="#5E9732" d="M63.1,60.8c-2,0.1-3.6,0.4-5.3,0.4c-4.6,0.1-9.1,0.4-13.7,0.4c-1.5,0-3.2-0.4-4.7-0.8
		c-3.9-1.2-5.8-4.1-6.3-8c-0.1-1.3-0.1-2.6,0.1-3.9c0.5-3.2,2.7-5.2,5.5-6.4c2.7-1.2,5.5-1.7,8.5-1.7c1.6-0.1,3.2,0,4.8,0
		c0.4-1.9,0.3-3.6-0.5-5.2c-0.9-1.9-2.6-2.4-4.5-2.6c-3.1-0.2-6,0.5-8.8,1.7c-0.5,0.2-1,0.4-1.7,0.7c-0.1-2.5-0.3-4.9-0.4-7.4
		c1.5-0.4,2.8-0.8,4.2-1c4.7-0.9,9.5-1,14.3-0.2c4.7,0.8,7.4,3.6,8.1,8.5c0.2,1.8,0.3,3.6,0.5,5.5c2,0,4,0,6.1,0
		c0.2-0.9,0.4-2,0.7-3c1.6-6.6,5.2-9.9,11.9-11c4-0.7,7.9-0.7,11.9,0.4c1.6,0.4,3.1,1.2,4.4,2.3c4.2,3.3,4.5,12.6-2,15.6
		c-2.6,1.1-5.2,1.7-7.9,1.8c-2,0.1-3.9,0-5.8,0.1c-0.5,0-1,0.1-1.5,0.1c-0.4,4.2,2.3,7.2,6.2,8c3.6,0.7,7.1,0.1,10.5-1.3
		c0.4-0.2,0.9-0.4,1.5-0.7c0.1,2.6,0.2,4.9,0.4,7.4c-0.8,0.3-1.5,0.5-2,0.7c-5.5,1.4-11.2,1.5-16.8,0.4c-6.3-1.2-9.7-5.3-10.9-11.5
		c-0.1-0.9-0.3-1.8-0.4-2.8c-2-0.7-4.1-0.4-6.4-0.4C62.6,51.1,62.6,55.9,63.1,60.8z M80.8,40.7c1.7,0.4,5.1,0.3,6.6-0.1
		c0.4-0.1,0.8-0.4,1.2-0.6c1.7-0.8,2.4-2.8,2.1-4.4c-0.4-2.3-2.4-3.6-5-3.3C82.2,32.8,79.8,36.7,80.8,40.7z M52,54.7
		c0-2.9,0-5.7,0-8.6c-1.2,0-2.2-0.1-3.2,0c-1.4,0.1-2.7,0.4-3.8,1.3c-1.5,1.2-1.7,2.8-1.5,4.4c0.3,1.7,1.3,2.6,3.1,3.1
		C48.5,55.4,50.2,55.3,52,54.7z"/>
	<path fill="#5E9732" d="M142,33.8c0,9,0,18,0,27.1c-3.6,0-7.1,0-10.9,0c0.1-5.5,0.3-11.2,0.3-16.7c0-5.6-0.1-11.2-0.2-16.8
		c0.9-0.1,1.7-0.3,2.6-0.4c5.8-0.2,11.7-1.3,17.6-0.7c1.8,0.1,3.6,0.6,5.3,1.2c3.2,1.1,4.9,3.6,5.5,6.9c0.3,1.3,0.4,2.7,0.4,4.1
		c0.1,6,0.1,12,0.1,18c0,1.5,0.2,2.9,0.3,4.5c-3.8,0-7.5,0-11.1,0c0-4,0-7.9,0-12c0-3.4,0-6.9-0.1-10.3c0-0.5,0-1-0.1-1.5
		c-0.6-3-2-4.2-5.1-4.2C144.9,32.8,143.4,32.9,142,33.8z"/>
	<path fill="#5E9732" d="M170,27.9c0.9-0.3,1.7-0.5,2.4-0.7c5.3-1.2,10.7-1.5,16.1-0.6c4.9,0.9,7.5,3.9,8.2,8.7
		c0.5,3.7,0.1,7.4,0,11.1c-0.1,3.6-0.1,7.2-0.1,10.8c0,1.2,0.2,2.3,0.3,3.6c-1.8,0.1-3.5,0.3-5.2,0.4c-4.7,0.1-9.5,0.4-14.2,0.4
		c-1.7,0-3.5-0.5-5.1-1.1c-3.5-1.4-5.2-4.2-5.4-7.8c-0.1-1.7-0.1-3.6,0.4-5.2c0.8-2.6,2.9-4.2,5.4-5.2c2.6-1,5.3-1.5,8.2-1.7
		c1.7-0.1,3.3,0,5,0c0.4-2,0.1-3.7-0.7-5.3c-0.9-1.8-2.8-2.3-4.6-2.4c-2.8-0.2-5.5,0.4-8.2,1.5c-0.7,0.2-1.2,0.5-2.1,0.9
		C170.3,32.7,170.2,30.3,170,27.9z M186,46.1c-0.9,0-1.7,0-2.5,0c-1.5,0-2.9,0.3-4.2,1.1c-1.5,0.9-2.2,2.7-1.8,4.8
		c0.3,1.7,1.4,2.6,3.1,3c1.8,0.4,3.6,0.3,5.5-0.2C186,52,186,49.1,186,46.1z"/>
	<path fill="#5E9732" d="M112.5,18c2.3,0,4.2,0,6.2,0c-0.1,3-0.2,5.9-0.3,9.1c2.4,0,4.6,0,6.9,0c0,2.5,0,4.7,0,7.1
		c-2.3,0-4.5,0-6.9,0c-0.1,0.8-0.1,1.3-0.1,1.9c0,3.9,0,7.8,0,11.7c0,1.2,0.1,2.3,0.3,3.4c0.4,2,1.6,3.1,3.7,3.1
		c1.2,0,2.5-0.2,3.7-0.4c0.1,2.3,0.3,4.6,0.4,7.1c-0.9,0.1-1.7,0.3-2.4,0.4c-3,0.4-6,0.5-9-0.1c-3.9-0.8-6.9-3.1-7.2-8.5
		c-0.2-4.5-0.1-9.1-0.1-13.7c0-1.5,0-3.1,0-4.8c-1.3-0.1-2.5-0.1-3.7-0.1c0-1.8,0-3.6,0-5.5C110.1,27.8,111.8,23.3,112.5,18z"/>
	<path fill="#FFFFFF" d="M80.8,40.7c-1-3.9,1.4-7.9,5-8.5c2.5-0.4,4.6,0.9,5,3.3c0.2,1.7-0.5,3.7-2.1,4.4c-0.4,0.2-0.8,0.4-1.2,0.6
		C85.9,41,82.6,41,80.8,40.7z"/>
	<path fill="#FFFFFF" d="M52,54.7c-1.8,0.6-3.6,0.7-5.4,0.2c-1.7-0.4-2.7-1.4-3.1-3.1c-0.3-1.7,0-3.3,1.5-4.4
		c1.1-0.9,2.5-1.2,3.8-1.3c1-0.1,2,0,3.2,0C52,49.1,52,51.8,52,54.7z"/>
	<path fill="#FFFFFF" d="M186,46.1c0,3,0,5.8,0,8.6c-1.8,0.6-3.6,0.7-5.5,0.2c-1.7-0.4-2.8-1.3-3.1-3c-0.4-2,0.3-3.8,1.8-4.8
		c1.3-0.8,2.7-1.1,4.2-1.1C184.3,46.1,185.1,46.1,186,46.1z"/>
</g>
</svg>
