<?xml version="1.0" encoding="utf-8"?>
<!-- Generator: Adobe Illustrator 22.0.1, SVG Export Plug-In . SVG Version: 6.00 Build 0)  -->
<svg version="1.1" id="Layer_1" xmlns="http://www.w3.org/2000/svg" xmlns:xlink="http://www.w3.org/1999/xlink" x="0px" y="0px"
	 viewBox="0 0 230 80" enable-background="new 0 0 230 80" xml:space="preserve">
<g>
	<path opacity="0.52" fill="#0C9B49" d="M50.8,63.3c-1.8-1.3-4.3-0.9-5.6,0.9c-1.3,1.8-0.9,4.3,0.9,5.6c1.8,1.3,4.3,0.9,5.6-0.9
		C53.1,67,52.7,64.6,50.8,63.3z"/>
	<circle fill="#0C9B49" cx="61.9" cy="14.5" r="5"/>
	<path opacity="0.88" fill="#0C9B49" d="M48.7,17.8c-1.6-2.2-4.6-2.6-6.7-1.1c-2.2,1.6-2.6,4.5-1.1,6.7c1.6,2.2,4.5,2.6,6.7,1.1
		C49.8,22.9,50.2,19.9,48.7,17.8z"/>
	<path opacity="0.76" fill="#0C9B49" d="M39.5,37c0.8-2.4-0.5-4.9-2.9-5.7c-2.4-0.8-5,0.6-5.7,2.9c-0.8,2.4,0.5,4.9,2.9,5.7
		C36.2,40.7,38.7,39.4,39.5,37z"/>
	<path opacity="0.88" fill="#0C9B49" d="M54.4,24.8c-1.1-1.5-3.2-1.9-4.7-0.8l-2.9,2.1c-1.5,1.1-1.9,3.2-0.8,4.7l2.8,3.9l5.5,7.6
		l2.2,3.1v-3.8v-4.4v-9.5L54.4,24.8z"/>
	<path opacity="0.64" fill="#0C9B49" d="M35.8,48.9c-2.3,0.7-3.5,3.2-2.8,5.4c0.7,2.3,3.1,3.5,5.4,2.8c2.3-0.7,3.5-3.1,2.8-5.4
		C40.4,49.4,38.1,48.2,35.8,48.9z"/>
	<path opacity="0.52" fill="#0C9B49" d="M63.9,49.4h-1.2l-9.6,3.1l-3.7,5.1c-0.9,1.3-0.7,3.1,0.6,4l2.4,1.8c1.3,0.9,3.1,0.7,4-0.6
		l10.3-14.1c0.3-0.5,0.5-1,0.5-1.5C66.7,48.5,65.4,49.4,63.9,49.4z"/>
	<path opacity="0.64" fill="#0C9B49" d="M60.2,49.4c-1.3,0-2.4-0.6-3-1.6l-0.5-0.2l-9.3-3l-4,1.3c-1.6,0.5-2.5,2.2-1.9,3.8l1,3.1
		c0.5,1.6,2.2,2.5,3.8,1.9l6.9-2.2l9.6-3.1H60.2z"/>
	<path opacity="0.76" fill="#0C9B49" d="M56.9,47.3c-0.2-0.4-0.3-0.9-0.3-1.5v-0.4l-2.2-3.1l-5.5-7.6l-4-1.3c-1.7-0.6-3.5,0.4-4,2.1
		l-1.1,3.2c-0.6,1.7,0.4,3.5,2.1,4l5.6,1.8l9.3,3l0.5,0.2C57.1,47.7,57,47.5,56.9,47.3z"/>
	<path fill="#0C9B49" d="M63.9,20.5h-3.8c-2,0-3.6,1.6-3.6,3.6v3.8v9.5v4.4v3.8v0.4c0,0.5,0.1,1,0.3,1.5c0.1,0.2,0.2,0.3,0.3,0.5
		c0.6,1,1.7,1.6,3,1.6h2.6h1.2c1.5,0,2.8-0.9,3.3-2.2c0.2-0.4,0.3-0.9,0.3-1.4V24C67.5,22,65.9,20.5,63.9,20.5z"/>
	<g>
		<g>
			<path fill="#5F6060" d="M76.4,23.3h10.2c1.6,0,3,0.2,4,0.6s1.8,1,2.4,1.6c0.6,0.6,0.9,1.3,1.1,2.1c0.2,0.8,0.3,1.4,0.3,2.1
				c0,0.6-0.1,1.3-0.3,2.1c-0.2,0.7-0.6,1.4-1.1,2.1c-0.6,0.6-1.4,1.2-2.4,1.6c-1,0.4-2.4,0.6-4,0.6h-6.1V44h-4V23.3z M80.4,33.1
				h5.9c0.5,0,0.9-0.1,1.4-0.2c0.5-0.1,0.9-0.3,1.3-0.6c0.4-0.3,0.7-0.6,1-1s0.4-1,0.4-1.6c0-0.7-0.1-1.2-0.3-1.7
				c-0.2-0.4-0.5-0.8-0.9-1.1c-0.4-0.3-0.8-0.4-1.3-0.5c-0.5-0.1-1-0.1-1.5-0.1h-6V33.1z"/>
			<path fill="#5F6060" d="M100.5,23.3h4v8.2H115v-8.2h4V44h-4v-9.3h-10.5V44h-4V23.3z"/>
			<path fill="#5F6060" d="M142.2,29.9c-0.2-0.6-0.4-1.1-0.7-1.7c-0.3-0.5-0.7-0.9-1.2-1.3c-0.5-0.4-1-0.7-1.7-0.9s-1.4-0.3-2.2-0.3
				c-1.2,0-2.3,0.2-3.2,0.7c-0.9,0.4-1.6,1-2.2,1.8c-0.6,0.7-1,1.6-1.2,2.5s-0.4,1.9-0.4,2.9s0.1,2,0.4,2.9c0.3,0.9,0.7,1.8,1.2,2.5
				c0.6,0.7,1.3,1.3,2.2,1.8c0.9,0.4,2,0.7,3.2,0.7c0.9,0,1.7-0.1,2.4-0.4c0.7-0.3,1.3-0.7,1.8-1.2c0.5-0.5,0.9-1.1,1.2-1.7
				c0.3-0.7,0.5-1.4,0.5-2.1h3.9c-0.1,1.2-0.4,2.4-0.9,3.4c-0.5,1-1.2,1.9-2,2.7c-0.9,0.7-1.9,1.3-3,1.7c-1.2,0.4-2.4,0.6-3.8,0.6
				c-1.7,0-3.3-0.3-4.6-0.9c-1.4-0.6-2.5-1.3-3.5-2.3c-0.9-1-1.7-2.1-2.2-3.5c-0.5-1.3-0.8-2.7-0.8-4.2c0-1.5,0.3-2.9,0.8-4.2
				s1.2-2.5,2.2-3.5s2.1-1.8,3.5-2.3s2.9-0.9,4.6-0.9c1.3,0,2.5,0.2,3.6,0.5c1.1,0.3,2.1,0.8,3,1.4c0.9,0.6,1.6,1.3,2.1,2.2
				c0.5,0.9,0.9,1.9,1,3H142.2z"/>
			<path fill="#5F6060" d="M155.3,37.1c0,0.8,0.2,1.5,0.5,2c0.3,0.6,0.7,1,1.3,1.4c0.5,0.4,1.2,0.6,1.9,0.8c0.7,0.2,1.5,0.2,2.3,0.2
				c0.9,0,1.6-0.1,2.3-0.3c0.6-0.2,1.1-0.4,1.5-0.7s0.7-0.6,0.8-1c0.2-0.4,0.3-0.8,0.3-1.1c0-0.8-0.2-1.4-0.6-1.8
				c-0.4-0.4-0.8-0.6-1.3-0.8c-0.8-0.3-1.8-0.5-2.9-0.8c-1.1-0.2-2.4-0.6-4-0.9c-1-0.2-1.8-0.5-2.5-0.9s-1.2-0.8-1.6-1.3
				c-0.4-0.5-0.7-1-0.8-1.5c-0.2-0.5-0.2-1.1-0.2-1.6c0-1,0.2-1.9,0.7-2.7s1.1-1.4,1.9-1.9c0.8-0.5,1.7-0.9,2.7-1.1s2-0.4,3.1-0.4
				c1.2,0,2.3,0.1,3.4,0.4s2,0.7,2.8,1.3c0.8,0.6,1.4,1.3,1.9,2.1s0.7,1.8,0.7,2.9h-4c-0.1-1.3-0.6-2.3-1.5-2.8
				c-0.9-0.6-2.1-0.8-3.5-0.8c-0.5,0-1,0-1.5,0.1c-0.5,0.1-0.9,0.2-1.4,0.4c-0.4,0.2-0.7,0.5-1,0.8c-0.3,0.3-0.4,0.8-0.4,1.3
				c0,0.7,0.3,1.3,0.8,1.7c0.5,0.4,1.2,0.7,2,0.9c0.1,0,0.4,0.1,1,0.2s1.3,0.3,2,0.5c0.7,0.2,1.4,0.3,2.1,0.5
				c0.7,0.2,1.2,0.3,1.5,0.4c0.8,0.2,1.4,0.5,2,0.9c0.6,0.4,1,0.8,1.4,1.3c0.4,0.5,0.7,1,0.8,1.5c0.2,0.5,0.3,1.1,0.3,1.6
				c0,1.2-0.3,2.2-0.8,3s-1.2,1.5-2.1,2c-0.9,0.5-1.8,0.9-2.9,1.1c-1.1,0.2-2.2,0.4-3.4,0.4c-1.3,0-2.5-0.1-3.7-0.4
				c-1.2-0.3-2.2-0.7-3-1.3c-0.9-0.6-1.5-1.4-2.1-2.3c-0.5-0.9-0.8-2-0.8-3.3H155.3z"/>
		</g>
	</g>
	<g>
		<g>
			<path fill="#5F6060" d="M71.6,63.8c0.3,0.5,0.7,0.9,1.2,1.2c0.5,0.3,1.1,0.5,1.7,0.7c0.7,0.1,1.4,0.2,2.2,0.2
				c0.4,0,0.9-0.1,1.4-0.2s1-0.3,1.4-0.5s0.8-0.6,1.1-0.9s0.4-0.9,0.4-1.4c0-0.4-0.1-0.8-0.3-1.1S80.3,61.2,80,61
				c-0.3-0.2-0.7-0.4-1.1-0.5c-0.4-0.1-0.8-0.2-1.2-0.3l-3.7-0.8c-0.5-0.1-1-0.3-1.4-0.4c-0.5-0.2-0.9-0.4-1.2-0.7
				c-0.3-0.3-0.6-0.6-0.8-1c-0.2-0.4-0.3-0.9-0.3-1.5c0-0.4,0.1-0.8,0.2-1.3c0.2-0.5,0.4-1,0.9-1.4s1-0.8,1.8-1.1
				c0.7-0.3,1.7-0.5,2.9-0.5c0.8,0,1.6,0.1,2.4,0.3c0.7,0.2,1.4,0.5,2,0.9s1,0.9,1.3,1.5c0.3,0.6,0.5,1.3,0.5,2h-1.6
				c0-0.6-0.2-1.1-0.4-1.5c-0.3-0.4-0.6-0.8-1-1.1c-0.4-0.3-0.9-0.5-1.4-0.7c-0.5-0.1-1.1-0.2-1.7-0.2c-0.5,0-1.1,0.1-1.6,0.2
				c-0.5,0.1-1,0.3-1.3,0.5c-0.4,0.2-0.7,0.5-0.9,0.9c-0.2,0.4-0.4,0.8-0.4,1.4c0,0.4,0.1,0.7,0.2,0.9c0.1,0.3,0.3,0.5,0.6,0.7
				c0.2,0.2,0.5,0.3,0.8,0.4c0.3,0.1,0.6,0.2,1,0.3l4.1,0.9c0.6,0.1,1.2,0.3,1.7,0.5c0.5,0.2,1,0.5,1.4,0.8c0.4,0.3,0.7,0.7,0.9,1.1
				s0.3,1,0.3,1.6c0,0.2,0,0.4-0.1,0.7c0,0.3-0.1,0.6-0.3,0.9s-0.4,0.6-0.6,1c-0.3,0.3-0.6,0.6-1.1,0.9s-1.1,0.5-1.8,0.6
				c-0.7,0.2-1.5,0.2-2.5,0.2s-1.9-0.1-2.7-0.3s-1.6-0.5-2.2-0.9s-1-1-1.4-1.6s-0.5-1.5-0.4-2.4h1.6C71.2,62.7,71.3,63.3,71.6,63.8z
				"/>
			<path fill="#5F6060" d="M97.3,51.8l6.6,15h-1.7l-2-4.7h-7.6l-2,4.7h-1.7l6.7-15H97.3z M99.6,60.9l-3.2-7.7L93,60.9H99.6z"/>
			<path fill="#5F6060" d="M109.5,51.8l5.4,13.4h0l5.4-13.4h1.7l-6.2,15H114l-6.2-15H109.5z"/>
			<path fill="#5F6060" d="M130.6,51.8v15H129v-15H130.6z"/>
			<path fill="#5F6060" d="M141.1,51.8v13.8h9.4v1.2h-11v-15H141.1z"/>
			<path fill="#5F6060" d="M159.2,51.8v15h-1.6v-15H159.2z"/>
			<path fill="#5F6060" d="M179.6,51.8V53h-5.8v13.8h-1.6V53h-5.8v-1.2H179.6z"/>
			<path fill="#5F6060" d="M184.6,51.8h1.9l5.5,7.6l5.5-7.6h1.9l-6.6,8.8v6.2h-1.6v-6.2L184.6,51.8z"/>
		</g>
	</g>
</g>
</svg>
