<?xml version="1.0" encoding="utf-8"?>
<!-- Generator: Adobe Illustrator 22.0.1, SVG Export Plug-In . SVG Version: 6.00 Build 0)  -->
<svg version="1.1"
	 id="Layer_1" xmlns:cc="http://creativecommons.org/ns#" xmlns:dc="http://purl.org/dc/elements/1.1/" xmlns:rdf="http://www.w3.org/1999/02/22-rdf-syntax-ns#"
	 xmlns="http://www.w3.org/2000/svg" xmlns:xlink="http://www.w3.org/1999/xlink" x="0px" y="0px" viewBox="0 0 230 80"
	 enable-background="new 0 0 230 80" xml:space="preserve">
<g>
	<path fill="#47A4D3" d="M25,38.8c2.2,0,4.4,0,6.6,0c0,3.6,0,7.1,0,10.7c2.2,0,4.2,0,6.4,0c0-3.5,0-7.1,0-10.7c2.2,0,4.3,0,6.4,0
		c0,9.1,0,18.2,0,27.4c-2.1,0-4.2,0-6.4,0c0-3.9,0-7.7,0-11.6c-2.2,0-4.2,0-6.4,0c0,3.9,0,7.7,0,11.7c-2.3,0-4.5,0-6.7,0
		C25,57.1,25,47.9,25,38.8z"/>
	<path fill="#47A4D3" d="M205,66.4c-0.9,0-1.8,0-2.7,0c0-0.2,0-0.4,0-0.7c0-3.2,0-6.3,0-9.5c0-1.2-0.3-2.1-1.5-2.9
		c-0.5,0.1-1.3,0.1-2,0.3c-0.7,0.3-1.2,0.9-1.4,1.7c-0.1,0.7-0.2,1.5-0.2,2.2c0,2.7,0,5.4,0,8.1c0,0.2,0,0.5,0,0.7
		c-0.9,0-1.8,0-2.7,0c0-0.3,0-0.5,0-0.7c0-4,0-8,0-12.1c0-0.7,0-1.5-0.1-2.2c0.7,0,1.5,0,2.4,0c0,0.4,0,0.8,0,1.3
		c0.1,0,0.1,0.1,0.2,0.1c0.3-0.2,0.5-0.4,0.8-0.7c0.8-0.8,1.8-1.2,2.9-1.2c1.7,0,3.2,0.6,3.9,2.4c0.1,0.4,0.2,0.7,0.3,1.1
		c0,0.1,0.1,0.2,0.2,0.4C205,58.7,205,62.5,205,66.4z"/>
	<path fill="#47A4D3" d="M74.6,60.3c-0.6,2.1-1.1,4.1-1.7,6.1c-2.2,0-4.1,0-6.3,0c0.1-0.5,0.2-1,0.3-1.5c0.4-1.3,0.9-2.7,1.3-4
		c0.5-1.6,1.1-3.1,1.6-4.7c0.5-1.5,0.9-3,1.4-4.5c0.5-1.6,1.1-3.1,1.6-4.7c0.6-1.7,1.1-3.5,1.6-5.2c0.3-1,0.7-2,1.1-3.1
		c2.3,0,4.8,0,7.4,0c0,0,0.2,0.2,0.2,0.3c2.8,9.1,5.6,18.1,8.4,27.3c-2.3,0-4.5,0-6.7,0c-0.5-2-1.1-4.1-1.7-6.1
		C80.2,60.3,77.4,60.3,74.6,60.3z M76.1,55.2c1.9,0,3.8,0,5.8,0c-0.9-3.4-1.8-6.8-2.7-10.3C78.1,48.4,77.1,51.8,76.1,55.2z"/>
	<path fill="#47A4D3" d="M181.3,29c-0.9,1.5-2.1,2.6-3.3,3.6c-1.2,1-2.6,1.8-4,2.4c-0.9,0.4-2,0.7-3,0.8c-1.2,0.2-2.4,0.1-3.6,0.1
		c-0.8,0-1.6-0.3-2.4-0.4c-1.7-0.3-3.3-1-4.9-1.9c-0.8-0.5-1.6-1-2.4-1.6c-0.9-0.6-1.8-1-2.9-0.4c-1.1,0.6-2.3,0.9-3.3,1.5
		c-1.4,0.8-2.8,1.7-4.2,2.6c-1.5,0.9-2.7,2.1-3.8,3.4c-0.8,0.9-1.5,2-2.2,3c-0.5,0.8-1,1.7-1.4,2.6c-0.5,1.1-0.8,2.2-1.1,3.3
		c-0.2,0.7-0.5,1.5-0.7,2.2c-0.1,0.5-0.2,1-0.2,1.5c-0.1,1.1-0.2,2.2-0.2,3.2c0,3.5,0,7.1,0,10.6c0,0.2,0,0.4,0,0.7
		c-0.9,0-1.6,0-2.5,0c0-0.2,0-0.5,0-0.7c0-4.6,0-9.3,0-13.9c0-1,0.4-2,0.6-3.1c0.1-0.7,0.3-1.3,0.5-2c0.3-0.9,0.6-1.8,1-2.7
		c0.5-1,1-2.1,1.5-3.1c0.4-0.7,0.8-1.3,1.3-1.9c0.8-1,1.7-2,2.6-2.9c1.1-0.9,2.2-1.8,3.5-2.6c1.7-1,3.4-2,5.1-2.8
		c1.3-0.6,2.6-1,3.9-1.5c1.2-0.4,2.3-0.9,3.5-1.3c0.7-0.2,1.4-0.4,2.1-0.5c1-0.2,2-0.4,3.1-0.7c0,0,0.1,0,0.1,0c2-0.1,4-0.2,5.9-0.2
		c0.4,0,0.9,0.1,1.3,0.2c0.1,0,0.3,0,0.5-0.1c-3.4-1.1-10.3-0.5-14.2,1.2c0-0.2,0-0.4,0.1-0.4c1.5-1,3-2.2,4.7-2.9
		c0.9-0.3,1.8-0.6,2.7-0.8c0.9-0.2,1.7-0.3,2.6-0.5c0.3,0,0.6,0.1,0.9,0.1c0.2,0,0.4,0.1,0.6,0.1c1.4,0,2.7,0.3,4,0.9
		c1.1,0.5,2.3,0.9,3.3,1.4c1.1,0.6,2.1,1.4,3.2,2.1C180.2,28.4,180.7,28.7,181.3,29z"/>
	<path fill="#47A4D3" d="M56.1,43.5c-0.2,0.2-0.5,0.5-0.8,0.8c-0.8,1-0.7,2.1,0.2,3.1c1,1.1,2.3,1.7,3.6,2.3
		c1.2,0.6,2.5,1.1,3.6,1.9c1.3,0.9,2.4,2,2.8,3.6c0.3,0.9,0.2,2,0.3,3c0.1,1.7-0.3,3.3-1.2,4.7c-0.8,1.1-1.8,2.1-3.1,2.7
		c-1,0.4-2.1,0.8-3.2,1c-1.4,0.2-2.7,0.2-4,0.1c-1,0-2-0.4-3.1-0.6c-0.8-0.2-1.6-0.3-2.3-0.5c0.2-1.8,0.3-3.5,0.5-5.3
		c2,1,4.1,1.7,6.3,1.8c0.3-0.1,0.6-0.1,0.9-0.1c2.1-0.2,3.3-1.7,2.9-3.7c-0.2-0.9-0.7-1.6-1.6-2.1c-1.5-0.8-3-1.5-4.4-2.3
		c-1-0.6-2-1.2-2.8-1.9c-0.7-0.7-1.4-1.5-1.6-2.6c-0.3-1-0.5-2.1-0.4-3.1c0.2-2.4,1-4.6,3-6.1c0.8-0.6,1.7-1,2.6-1.3
		c2.1-0.8,4.4-0.5,6.6-0.4c1.1,0,2.2,0.4,3.2,0.7c0.2,0,0.4,0.4,0.4,0.6c0,0.9-0.1,1.7-0.2,2.6c-0.1,0.7-0.2,1.3-0.3,2
		C61.4,43.4,58.9,42.4,56.1,43.5z"/>
	<path fill="#47A4D3" d="M157.9,7.6c0.2,1.1,0.4,1.9,0.6,2.7c0.1,0.5,0.2,1,0.2,1.5c0.1,1.6,0.3,3.2,0.2,4.8c0,1.1-0.4,2.2-0.6,3.3
		c-0.2,0.8-0.4,1.7-0.7,2.4c-0.4,0.8-0.9,1.5-1.4,2.2c-0.5,0.6-1,1.1-1.6,1.6c-0.8,0.7-1.7,1.3-2.6,1.9c-1,0.6-2,1-3,1.5
		c-0.4,0.2-0.9,0.3-1.5,0.5c0.8-4.4,2.4-8.3,4.1-12.2c-2.2,3.7-3.9,7.6-5.1,12c-0.2-0.2-0.4-0.3-0.5-0.5c-0.3-0.9-0.6-1.9-0.9-2.8
		c-0.3-0.9-0.5-1.8-0.5-2.7c0-0.7-0.3-1.5-0.2-2.2c0.2-1.2,0.4-2.4,0.8-3.6c0.3-0.9,0.7-1.8,1.3-2.6c0.8-1.1,1.9-2,2.8-2.9
		c0.6-0.5,1.2-1,1.9-1.4c0.6-0.4,1.2-0.8,1.8-1.2c1.3-0.8,2.7-1.5,4.1-2.3C157.5,7.3,157.8,7.4,157.9,7.6z"/>
	<path fill="#47A4D3" d="M137.9,38c-1.3-0.7-2.3-1.2-3.4-1.9c-0.6-0.3-1.1-0.7-1.6-1.2c-0.5-0.5-1-1-1.3-1.6c-0.4-0.6-0.8-1.2-1-1.9
		c-0.3-0.7-0.4-1.5-0.6-2.2c-0.5-1.5-0.2-3-0.2-4.6c0-0.7,0.3-1.4,0.4-2.1c0.2-0.8,0.3-1.5,0.5-2.3c0.1-0.3,0.1-0.6,0.3-0.9
		c0.4-0.9,0.7-1.8,1.1-2.7c0.2-0.4,0.5-0.8,0.8-1.3c0.1,0.1,0.3,0.1,0.4,0.2c1.6,1.6,3.2,3.1,4.7,4.7c1.1,1.2,2.1,2.6,3.1,4
		c0.4,0.6,0.5,1.4,0.6,2.1c0.2,1.1,0.5,2.2,0.4,3.3c0,1.3-0.2,2.6-0.6,3.9c-0.3,1-0.7,2-1.2,2.9c-0.2,0.4-0.5,0.7-0.9,1.3
		c-0.7-0.7-1.5-1.3-2-2.1c-0.8-1.2-1.6-2.5-2.2-3.8c-0.5-0.9-0.8-2-1.1-3c-0.2-0.7-0.5-1.3-0.6-2c-0.1-0.4-0.1-0.8-0.1-1.2
		c-0.1,0-0.1,0-0.2,0c0,0.5-0.1,0.9,0,1.4c0.1,0.7,0.2,1.4,0.4,2.1c0.3,0.9,0.6,1.7,1,2.5c0.6,1.3,1.3,2.6,2.1,3.9
		c0.3,0.6,0.8,1.2,1.2,1.7C137.9,37.5,137.8,37.7,137.9,38z"/>
	<path fill="#47A4D3" d="M164.7,65.2c0,2.5,0,4.9,0,7.4c-0.9,0-1.8,0-2.7,0c0-7.1,0-14.1,0-21.2c0.8,0.1,1.7-0.3,2.5,0.3
		c0,0.4,0,0.7,0,0.9c0.7-0.4,1.3-0.9,2-1.3c0.9-0.5,1.7-0.5,2.8-0.3c0.8,0.2,1.6,0.5,2.1,1c0.6,0.6,1,1.3,1.3,2.1
		c0.8,2,0.8,4.1,0.7,6.2c-0.1,1.6-0.5,3.1-1.4,4.5c-1.1,1.6-2.8,2-4.5,1.8c-1-0.1-2-0.6-2.6-1.6C164.8,65.1,164.7,65.1,164.7,65.2z
		 M166.4,53.5c-1.3,1-1.7,2.4-1.7,3.9c0,0.9,0,1.9,0,2.8c-0.1,1.6,0.5,2.9,1.4,3.7c1.8,1,2.9,0.2,3.8-1c0-0.1,0-0.3,0.1-0.5
		c0.2-0.9,0.5-1.9,0.6-2.8c0.1-1.5-0.1-3.1-0.6-4.6c-0.4-1.2-1.5-2-2.6-1.9C167,53.2,166.7,53.4,166.4,53.5z"/>
	<path fill="#47A4D3" d="M151.6,55c-0.8,3.3-0.2,6.9-0.4,10.4c0,0.3,0,0.6,0,1c-0.8,0-1.6,0-2.5,0c0-7.4,0-14.7,0-22.1
		c0.8,0,1.6,0,2.5,0c0,2.8,0,5.6,0,8.5c0.7-1,1.4-1.5,2.5-1.7c0.5-0.1,1-0.2,1.4-0.2c1.8,0.1,3.1,1,3.6,2.9c0.2,0.6,0.2,1.2,0.2,1.9
		c0,3.3,0,6.7,0,10c0,0.2,0,0.4,0,0.7c-0.9,0-1.7,0-2.5,0c0-0.3,0-0.5,0-0.7c0-3.2,0-6.3,0-9.5c0-0.7-0.2-1.4-0.5-2
		c-0.2-0.5-0.7-0.7-1.3-0.8C153.3,53.2,152.5,53.9,151.6,55z"/>
	<path fill="#47A4D3" d="M96.3,44.3c0.9,0,1.6,0,2.5,0c0,2.8,0,5.6,0,8.3c0.7-0.5,1.3-1,2-1.3c0.9-0.5,1.8-0.5,2.8-0.3
		c0.7,0.2,1.3,0.4,1.8,0.8c0.5,0.4,0.8,1,1,1.6c0.2,0.6,0.2,1.4,0.3,2c0,3.4,0,6.8,0,10.2c0,0.2,0,0.5,0,0.7c-0.8,0-1.6,0-2.5,0
		c0-0.2,0-0.4,0-0.7c0-3.1,0-6.3,0-9.4c0-1.3-0.3-1.9-1.4-3c-0.6,0.1-1.5,0-2.1,0.4c-0.9,0.5-1.4,1.4-1.6,2.5
		c-0.5,3.3-0.1,6.7-0.2,10c0,0.1,0,0.2,0,0.3c-0.8,0-1.6,0-2.4,0C96.3,59,96.3,51.7,96.3,44.3z"/>
	<path fill="#47A4D3" d="M122.6,54.6c-0.1-0.8-0.2-1.6-0.4-2.6c1.1-0.3,2.2-0.6,3.3-0.9c0.5-0.1,1.1-0.3,1.7-0.2
		c1.5,0.2,2.9,0.4,3.9,1.7c0.3,0.4,0.5,0.9,0.7,1.4c0.2,0.6,0.2,1.2,0.2,1.9c0,2.7,0,5.4,0,8.1c0,0.8,0.1,1.5,0.1,2.4
		c-0.7,0-1.4,0-2.4,0c-0.1-0.4-0.2-1-0.3-1.4c-0.4,0.4-0.9,0.8-1.4,1.2c-1.6,0.7-3.2,0.7-5.2-0.3c-0.7-0.5-1.3-1.4-1.6-2.7
		c-0.4-1.3,0.1-2.4,0.3-3.4c0.6-1.1,1.4-1.7,2.4-2.1c0.9-0.4,1.9-0.7,2.9-0.7c0.8,0,1.6,0,2.5,0c0-1.2,0.2-2.3-0.8-3.2
		c-0.7-0.6-2.5-1-3.4-0.6c-0.7,0.4-1.4,0.8-2.1,1.2C122.8,54.6,122.8,54.5,122.6,54.6z M129.2,58.8c-1.1,0.1-2,0.2-3,0.3
		c-1.2,0.1-2,0.7-2.4,1.8c-0.3,0.7,0,2.2,0.4,2.7c0.6,0.7,1.5,0.7,2.3,0.7c1.1,0,1.7-0.6,2.2-1.4C129.5,61.7,129.1,60.3,129.2,58.8z
		"/>
	<path fill="#47A4D3" d="M188.9,57.1c0.3-1.4-0.1-2.4-1.3-3.6c-2-0.8-3.7-0.2-5.4,1.2c-0.1-0.9-0.2-1.6-0.3-2.5
		c0.6-0.3,1.1-0.7,1.8-0.8c1.1-0.3,2.3-0.6,3.5-0.5c1.6,0.2,3.1,0.7,3.8,2.3c0.3,0.7,0.6,1.6,0.6,2.4c0.1,3.1,0,6.2,0,9.2
		c0,0.5,0.2,1,0.3,1.6c-0.9,0-1.7,0-2.5,0c-0.1-0.4-0.2-0.9-0.4-1.3c-0.6,0.4-1,0.9-1.6,1.1c-1.5,0.6-3,0.7-4.5-0.1
		c-1.4-0.7-2.2-1.9-2.1-3.5c0-0.3,0-0.7,0-1c-0.1-1.9,0.9-3.1,2.5-3.9c1.1-0.6,2.4-0.8,3.7-0.7C187.6,57.1,188.2,57.1,188.9,57.1z
		 M183.5,60.6c0,0.1,0,0.3-0.1,0.4c-0.6,1,0.1,2.9,1.2,3.2c0.5,0.1,1,0.1,1.5,0.1c1.1,0.1,1.7-0.6,2.2-1.4c0.4-0.6,0.5-1.4,0.5-2.1
		c0-0.6,0.2-1.3,0.3-2C186.9,58.9,184.9,58.6,183.5,60.6z"/>
	<path fill="#47A4D3" d="M119.8,59.6c-2.8,0-5.4,0-8.1,0c0,0.3,0.1,0.6,0.1,0.9c-0.1,1.2,0.5,2.1,1.2,2.9c0.6,0.7,1.4,1,2.4,1.1
		c1.2,0.1,2.4-0.3,3.4-0.9c0.1,0,0.2,0,0.3,0c0,0.7,0,1.4,0,2.3c-0.4,0.2-1,0.5-1.5,0.6c-0.9,0.2-1.8,0.3-2.7,0.2
		c-1-0.1-2-0.3-3-0.7c-1-0.4-1.7-1.4-2.1-2.4c-0.4-0.9-0.7-1.9-0.7-3c0-0.7-0.2-1.3-0.2-2c0.1-1.8,0.3-3.7,1.4-5.2
		c0.7-1,1.7-1.9,3.1-2.2c1.3-0.3,2.4,0,3.5,0.4c1.1,0.4,1.7,1.4,2.2,2.4c0.4,1,0.8,2,0.7,3.2C119.8,57.8,119.8,58.7,119.8,59.6z
		 M111.5,57.5c1.9,0,3.8,0,5.7,0c0.2-1.2-0.1-2.4-0.8-3.3c-0.3-0.4-0.9-0.8-1.4-0.9c-1.4-0.2-2.3,0.3-2.8,1.6
		C111.9,55.6,111.8,56.5,111.5,57.5z"/>
	<path fill="#47A4D3" d="M141.1,48.2c0.9-0.3,1.8-0.5,2.7-0.8c0,1.3,0,2.6,0,3.9c1,0,2,0,3,0c0,0.7,0,1.3,0,2c-1,0-1.9,0-2.9,0
		c0,0.3,0,0.5,0,0.7c0,2.8,0,5.5,0,8.3c0,0.7,0.2,1.3,0.7,1.7c0.8,0,1.5,0,2.2,0c0,0.6,0,1.3,0,2.1c-1,0.3-2,0.7-3.2,0.3
		c-1.6-0.5-2.1-1.3-2.3-2.9c-0.4-3.3-0.1-6.6-0.2-9.9c0-0.1,0-0.1,0-0.3c-0.7,0-1.4,0-2.2,0c0-0.7,0-1.4,0-2.1c0.7,0,1.5,0,2.2,0
		C141.1,50.3,141.1,49.3,141.1,48.2z"/>
	<path fill="#47A4D3" d="M178.6,66.4c-0.9,0-1.7,0-2.7,0c0-7.4,0-14.7,0-22.1c0.9,0,1.7,0,2.7,0C178.6,51.7,178.6,59,178.6,66.4z"/>
</g>
</svg>
