<?xml version="1.0" encoding="utf-8"?>
<!-- Generator: Adobe Illustrator 22.0.1, SVG Export Plug-In . SVG Version: 6.00 Build 0)  -->
<svg version="1.1" id="Layer_1" xmlns="http://www.w3.org/2000/svg" xmlns:xlink="http://www.w3.org/1999/xlink" x="0px" y="0px"
	 viewBox="0 0 230 80" enable-background="new 0 0 230 80" xml:space="preserve">
<g>
	<path opacity="0.52" fill="#0C9B49" enable-background="new    " d="M45.5,63.3c-1.8-1.3-4.3-0.9-5.6,0.9c-1.3,1.8-0.9,4.3,0.9,5.6
		c1.8,1.3,4.3,0.9,5.6-0.9C47.8,67.1,47.4,64.6,45.5,63.3z"/>
	<circle fill="#0C9B49" cx="56.6" cy="14.5" r="5"/>
	<path opacity="0.88" fill="#0C9B49" enable-background="new    " d="M43.4,17.8c-1.6-2.2-4.6-2.6-6.7-1.1c-2.2,1.6-2.6,4.5-1.1,6.7
		c1.6,2.2,4.5,2.6,6.7,1.1C44.5,22.9,44.9,20,43.4,17.8z"/>
	<path opacity="0.76" fill="#0C9B49" enable-background="new    " d="M34.2,37.1c0.8-2.4-0.5-4.9-2.9-5.7c-2.4-0.8-5,0.6-5.7,2.9
		c-0.8,2.4,0.5,4.9,2.9,5.7S33.4,39.5,34.2,37.1z"/>
	<path opacity="0.88" fill="#0C9B49" enable-background="new    " d="M49.1,24.9c-1.1-1.5-3.2-1.9-4.7-0.8l-2.9,2.1
		c-1.5,1.1-1.9,3.2-0.8,4.7l2.8,3.9l5.5,7.6l2.2,3.1v-3.8v-4.4v-9.5L49.1,24.9z"/>
	<path opacity="0.64" fill="#0C9B49" enable-background="new    " d="M30.5,49c-2.3,0.7-3.5,3.2-2.8,5.4c0.7,2.3,3.1,3.5,5.4,2.8
		s3.5-3.1,2.8-5.4C35.1,49.4,32.8,48.2,30.5,49z"/>
	<path opacity="0.52" fill="#0C9B49" enable-background="new    " d="M58.6,49.5h-1.2l-9.6,3.1l-3.7,5.1c-0.9,1.3-0.7,3.1,0.6,4
		l2.4,1.8c1.3,0.9,3.1,0.7,4-0.6l10.3-14.1c0.3-0.5,0.5-1,0.5-1.5C61.4,48.6,60.1,49.5,58.6,49.5z"/>
	<path opacity="0.64" fill="#0C9B49" enable-background="new    " d="M54.9,49.5c-1.3,0-2.4-0.6-3-1.6l-0.5-0.2l-9.3-3l-4,1.3
		c-1.6,0.5-2.5,2.2-1.9,3.8l1,3.1c0.5,1.6,2.2,2.5,3.8,1.9l6.9-2.2l9.6-3.1H54.9z"/>
	<path opacity="0.76" fill="#0C9B49" enable-background="new    " d="M51.6,47.4c-0.2-0.4-0.3-0.9-0.3-1.5v-0.4l-2.2-3.1l-5.5-7.6
		l-4-1.3c-1.7-0.6-3.5,0.4-4,2.1l-1.1,3.2c-0.6,1.7,0.4,3.5,2.1,4l5.6,1.8l9.3,3l0.5,0.2C51.8,47.7,51.7,47.6,51.6,47.4z"/>
	<path fill="#0C9B49" d="M58.6,20.5h-3.8c-2,0-3.6,1.6-3.6,3.6v3.8v9.5v4.4v3.8V46c0,0.5,0.1,1,0.3,1.5c0.1,0.2,0.2,0.3,0.3,0.5
		c0.6,1,1.7,1.6,3,1.6h2.6h1.2c1.5,0,2.8-0.9,3.3-2.2c0.2-0.4,0.3-0.9,0.3-1.4V24.1C62.2,22.1,60.6,20.5,58.6,20.5z"/>
	<g>
		<path fill="#0C9B49" d="M74.7,47.8l-6.8-20.8h2.9l3.2,10.2c0.9,2.8,1.7,5.3,2.2,7.8h0.1c0.6-2.4,1.4-5,2.4-7.7l3.5-10.3h2.9
			l-7.4,20.8H74.7z"/>
		<path fill="#0C9B49" d="M94.5,47.8L94.3,46h-0.1c-0.8,1.2-2.4,2.2-4.6,2.2c-3,0-4.6-2.1-4.6-4.3c0-3.6,3.2-5.6,9-5.5V38
			c0-1.2-0.3-3.5-3.4-3.5c-1.4,0-2.8,0.4-3.9,1.1l-0.6-1.8c1.2-0.8,3-1.3,4.9-1.3c4.6,0,5.7,3.1,5.7,6.1v5.6c0,1.3,0.1,2.6,0.2,3.6
			H94.5z M94.1,40.2c-3-0.1-6.3,0.5-6.3,3.4c0,1.8,1.2,2.6,2.6,2.6c1.9,0,3.2-1.2,3.6-2.5c0.1-0.3,0.2-0.6,0.2-0.9V40.2z"/>
		<path fill="#0C9B49" d="M101.1,26h2.7v21.9h-2.7V26z"/>
		<path fill="#0C9B49" d="M120.8,43.8c0,1.5,0,2.9,0.1,4.1h-2.4l-0.2-2.4h-0.1c-0.7,1.2-2.3,2.8-4.9,2.8c-2.3,0-5.1-1.3-5.1-6.5
			v-8.7h2.7v8.3c0,2.8,0.9,4.7,3.3,4.7c1.8,0,3.1-1.3,3.6-2.5c0.2-0.4,0.2-0.9,0.2-1.4v-9.1h2.7V43.8z"/>
		<path fill="#0C9B49" d="M126.8,40.9c0.1,3.7,2.4,5.2,5.1,5.2c1.9,0,3.1-0.3,4.1-0.8l0.5,1.9c-1,0.4-2.6,0.9-5,0.9
			c-4.6,0-7.3-3-7.3-7.5s2.6-8,7-8c4.9,0,6.2,4.3,6.2,7c0,0.6-0.1,1-0.1,1.3H126.8z M134.8,38.9c0-1.7-0.7-4.4-3.8-4.4
			c-2.7,0-3.9,2.5-4.2,4.4H134.8z"/>
		<path fill="#0C9B49" d="M140.9,27.3c1.3-0.2,3-0.4,5.1-0.4c2.6,0,4.6,0.6,5.8,1.7c1.1,1,1.8,2.5,1.8,4.3c0,1.9-0.6,3.4-1.6,4.4
			c-1.4,1.5-3.7,2.3-6.3,2.3c-0.8,0-1.5,0-2.2-0.2v8.3h-2.7V27.3z M143.5,37.3c0.6,0.2,1.3,0.2,2.2,0.2c3.2,0,5.2-1.6,5.2-4.4
			c0-2.7-1.9-4.1-4.9-4.1c-1.2,0-2.1,0.1-2.5,0.2V37.3z"/>
		<path fill="#0C9B49" d="M169.9,40.3c0,5.5-3.8,7.9-7.4,7.9c-4,0-7.1-3-7.1-7.7c0-5,3.3-7.9,7.4-7.9
			C167,32.6,169.9,35.7,169.9,40.3z M158,40.4c0,3.3,1.9,5.7,4.5,5.7c2.6,0,4.5-2.4,4.5-5.8c0-2.5-1.3-5.7-4.5-5.7
			S158,37.6,158,40.4z"/>
		<path fill="#0C9B49" d="M176.3,28.7c0,0.9-0.6,1.7-1.7,1.7c-1,0-1.6-0.7-1.6-1.7c0-1,0.7-1.7,1.7-1.7
			C175.7,27,176.3,27.8,176.3,28.7z M173.3,47.8V32.9h2.7v14.9H173.3z"/>
		<path fill="#0C9B49" d="M180.5,37c0-1.5,0-2.8-0.1-4h2.4l0.2,2.5h0.1c0.7-1.4,2.5-2.8,4.9-2.8c2.1,0,5.3,1.2,5.3,6.3v8.9h-2.7
			v-8.6c0-2.4-0.9-4.4-3.5-4.4c-1.8,0-3.2,1.3-3.6,2.8c-0.1,0.3-0.2,0.8-0.2,1.3v9h-2.7V37z"/>
		<path fill="#0C9B49" d="M200.7,28.6v4.3h3.9V35h-3.9v8c0,1.8,0.5,2.9,2,2.9c0.7,0,1.2-0.1,1.6-0.2l0.1,2c-0.5,0.2-1.4,0.4-2.4,0.4
			c-1.3,0-2.3-0.4-2.9-1.1c-0.8-0.8-1-2.1-1-3.9V35h-2.3v-2.1h2.3v-3.6L200.7,28.6z"/>
	</g>
	<g>
		<path fill="#5F6060" d="M68.4,54.4c0.6-0.1,1.5-0.2,2.5-0.2c1.3,0,2.2,0.2,2.9,0.8c0.5,0.4,0.9,1,0.9,1.8c0,1-0.7,1.9-1.8,2.3v0
			c1,0.2,2.2,1.1,2.2,2.6c0,0.9-0.4,1.6-0.9,2.1c-0.7,0.7-1.9,1-3.6,1c-0.9,0-1.6-0.1-2.1-0.1V54.4z M69.7,58.6H71
			c1.4,0,2.3-0.7,2.3-1.7c0-1.2-0.9-1.7-2.3-1.7c-0.6,0-1,0-1.2,0.1V58.6z M69.7,63.6c0.3,0,0.6,0.1,1.1,0.1c1.4,0,2.7-0.5,2.7-2
			c0-1.4-1.2-2-2.7-2h-1.1V63.6z"/>
		<path fill="#5F6060" d="M77.3,57.2l1.6,4.4c0.2,0.5,0.4,1.1,0.5,1.5h0c0.1-0.4,0.3-1,0.5-1.6l1.5-4.4h1.4l-2,5.3
			c-1,2.6-1.6,3.9-2.6,4.7c-0.7,0.6-1.3,0.8-1.7,0.9l-0.3-1.1c0.3-0.1,0.8-0.3,1.2-0.7c0.4-0.3,0.8-0.8,1.1-1.5
			c0.1-0.1,0.1-0.2,0.1-0.3c0-0.1,0-0.2-0.1-0.4l-2.8-6.9H77.3z"/>
		<path fill="#5F6060" d="M96.2,60.1c-0.1-1.5-0.2-3.2-0.2-4.5h0c-0.4,1.2-0.8,2.5-1.3,4l-1.8,5.1h-1l-1.7-5
			c-0.5-1.5-0.9-2.8-1.2-4.1h0c0,1.3-0.1,3-0.2,4.6l-0.3,4.5h-1.3l0.7-10.4h1.7l1.8,5c0.4,1.3,0.8,2.4,1.1,3.5h0
			c0.3-1.1,0.6-2.2,1.1-3.5l1.9-5h1.7l0.6,10.4h-1.3L96.2,60.1z"/>
		<path fill="#5F6060" d="M106.1,62.6c0,0.8,0,1.5,0.1,2H105l-0.1-1.2h0c-0.4,0.6-1.1,1.4-2.5,1.4c-1.2,0-2.6-0.6-2.6-3.3v-4.4h1.4
			v4.1c0,1.4,0.4,2.4,1.7,2.4c0.9,0,1.5-0.6,1.8-1.2c0.1-0.2,0.1-0.4,0.1-0.7v-4.6h1.4V62.6z"/>
		<path fill="#5F6060" d="M108.4,53.7h1.4v11h-1.4V53.7z"/>
		<path fill="#5F6060" d="M113.7,55v2.2h1.9v1h-1.9v4c0,0.9,0.3,1.5,1,1.5c0.4,0,0.6,0,0.8-0.1l0.1,1c-0.3,0.1-0.7,0.2-1.2,0.2
			c-0.6,0-1.1-0.2-1.5-0.6c-0.4-0.4-0.5-1.1-0.5-1.9v-4.1h-1.2v-1h1.2v-1.8L113.7,55z"/>
		<path fill="#5F6060" d="M118.7,55.1c0,0.5-0.3,0.8-0.9,0.8c-0.5,0-0.8-0.4-0.8-0.8c0-0.5,0.4-0.9,0.9-0.9
			C118.4,54.2,118.7,54.6,118.7,55.1z M117.2,64.6v-7.5h1.4v7.5H117.2z"/>
		<path fill="#5F6060" d="M120.8,54.3c0.7-0.1,1.5-0.2,2.6-0.2c1.3,0,2.3,0.3,2.9,0.9c0.6,0.5,0.9,1.3,0.9,2.2
			c0,0.9-0.3,1.7-0.8,2.2c-0.7,0.8-1.9,1.1-3.2,1.1c-0.4,0-0.8,0-1.1-0.1v4.2h-1.3V54.3z M122.2,59.4c0.3,0.1,0.7,0.1,1.1,0.1
			c1.6,0,2.6-0.8,2.6-2.2c0-1.4-1-2-2.5-2c-0.6,0-1,0-1.3,0.1V59.4z"/>
		<path fill="#5F6060" d="M128.9,53.7h1.4v11h-1.4V53.7z"/>
		<path fill="#5F6060" d="M136.7,64.6l-0.1-0.9h0c-0.4,0.6-1.2,1.1-2.3,1.1c-1.5,0-2.3-1.1-2.3-2.2c0-1.8,1.6-2.8,4.5-2.8v-0.2
			c0-0.6-0.2-1.7-1.7-1.7c-0.7,0-1.4,0.2-1.9,0.6l-0.3-0.9c0.6-0.4,1.5-0.7,2.5-0.7c2.3,0,2.8,1.6,2.8,3.1v2.8c0,0.7,0,1.3,0.1,1.8
			H136.7z M136.5,60.8c-1.5,0-3.2,0.2-3.2,1.7c0,0.9,0.6,1.3,1.3,1.3c1,0,1.6-0.6,1.8-1.3c0-0.1,0.1-0.3,0.1-0.4V60.8z"/>
		<path fill="#5F6060" d="M140.1,59.2c0-0.8,0-1.4-0.1-2h1.2l0.1,1.2h0c0.4-0.7,1.2-1.4,2.5-1.4c1,0,2.6,0.6,2.6,3.2v4.5h-1.4v-4.3
			c0-1.2-0.4-2.2-1.7-2.2c-0.9,0-1.6,0.6-1.8,1.4c-0.1,0.2-0.1,0.4-0.1,0.6v4.5h-1.4V59.2z"/>
	</g>
</g>
</svg>
