<?xml version="1.0" encoding="utf-8"?>
<!-- Generator: Adobe Illustrator 22.0.1, SVG Export Plug-In . SVG Version: 6.00 Build 0)  -->
<svg version="1.1" id="Layer_1" xmlns="http://www.w3.org/2000/svg" xmlns:xlink="http://www.w3.org/1999/xlink" x="0px" y="0px"
	 viewBox="0 0 230 80" style="enable-background:new 0 0 230 80;" xml:space="preserve">
<style type="text/css">
	.st0{fill:#5F6060;}
	.st1{fill:#788B47;}
</style>
<path class="st0" d="M204.8,39.1c-1.4-0.1-2.8,0.3-4.2,0.1c-2-0.4-2.8-1.2-2.9-3.2c0-1.8,0-3.6,0-5.4c-1-0.4-2,0-2.9-0.3
	c-0.3-0.6-0.1-1.2-0.1-1.8c1-0.4,1.9,0,2.8-0.3c0.4-0.6,0-1.3,0.3-2.1c0.9-0.5,1.9-0.7,3.2-0.9c0,1,0,2,0,3c1.4,0.2,2.6,0.2,3.8,0.1
	c0,0.7,0,1.5,0,2.2c-1.2,0.2-2.5-0.2-3.8,0.2c0,1.1,0,2.1,0,3.1c0,3.6,0.2,3.8,3.8,3.3C204.8,37.6,204.8,38.4,204.8,39.1z"/>
<path class="st1" d="M123.7,26.4c-2.5-0.7-5.1-0.9-7.7-1c-4.7-0.2-9.4-0.1-14.1-0.6c-0.9-0.1-1.8-0.1-2.4-1c0.3-1.2,1.2-1.9,2.1-2.5
	c2.1-1.4,4.2-2.8,6.3-4.2c1.5-1,3-2,4.2-3.4c1.4-1.6,1.1-2.7-0.9-3.5c-0.4-0.1-0.8-0.2-1.2-0.4c-2.1-0.6-4.3-0.7-6.5-0.9
	c0.1,0-4.3-0.2-6-0.2c-0.6,0-1.3,0-1.9,0C97.3,9,97.3,9,97.3,9c0.3,0,0.6,0.1,1,0.1c2.7,0.2,5.3,0.4,7.9,1.2c2.9,1,3.2,2.5,0.9,4.5
	c-1.2,1-2.5,1.8-3.8,2.7c-2.6,1.6-5.5,3-7.9,4.9c-2.1,1.7-1.9,3.4,0.7,4.4c1.7,0.7,3.5,0.8,5.2,1c3,0.4,6,0.4,8.9,1.5
	c2.7,1,3.1,3.2,1.1,5.2c-1.1,1.1-2.4,1.8-3.8,2.4c-2.2,1-4.5,1.5-6.8,2.1c8.1,0,16.2,0,24.3,0c1.4-1.9,2.4-3.9,2.8-5.8
	C128.6,29.8,127.2,27.4,123.7,26.4z"/>
<path class="st0" d="M25.2,23.5c3.8,0.1,7.5-0.2,11.2,0.2c2.8,0.4,4.3,2.5,3.5,4.8c-0.4,1.3-1.6,1.8-2.9,2.4
	c0.7,0.3,1.2,0.4,1.6,0.6c1.2,0.6,2,1.4,2.2,2.8c0.2,1.5-0.3,2.8-1.6,3.7c-1,0.7-2.2,1-3.4,1.1c-3.5,0.1-7,0-10.7,0
	C25.2,33.9,25.2,28.8,25.2,23.5z M28.8,32.2c-0.1,1.4-0.2,2.8,0,4.3c2.2,0,4.2,0.2,6.3-0.2c1.1-0.2,1.9-0.7,1.9-2
	c0-1.2-0.8-1.7-1.9-2C33,32,31,32.3,28.8,32.2z M28.7,29.7c2,0,3.9,0.1,5.8,0c0.9,0,1.7-0.5,1.7-1.6c0.1-1.1-0.5-1.8-1.5-1.9
	c-1.9-0.1-3.9,0-5.9,0c0,0.4-0.1,0.7-0.1,1C28.7,28,28.7,28.8,28.7,29.7z"/>
<path class="st0" d="M129.8,34.3c1.1-0.2,2.2-0.1,3.2-0.1c1.2,2.6,2.6,3.2,6,2.8c0.6-0.1,1.1-0.3,1.5-0.6c0.7-0.4,0.9-1,0.8-1.8
	c-0.1-0.8-0.6-1.2-1.2-1.3c-1.5-0.3-3.1-0.5-4.6-0.7c-0.9-0.1-1.7-0.3-2.5-0.7c-1.6-0.6-2.6-1.7-2.7-3.5c-0.1-1.8,0.6-3.3,2.2-4.1
	c3-1.6,6.2-1.6,9.3-0.2c1.6,0.7,2.6,2.1,2.5,4.1c-1.2,0.2-2.2,0.2-3.3,0c-1.1-2.5-3.4-3.4-5.7-2.3c-0.8,0.4-1.3,0.9-1.2,1.8
	c0,0.9,0.6,1.4,1.5,1.6c1.7,0.3,3.4,0.6,5.1,0.8c2.7,0.4,4.3,1.8,4.5,3.9c0.2,2.4-1.1,4.2-3.7,4.9c-2.7,0.8-5.5,0.9-8.2,0
	C130.9,38,129.8,36.5,129.8,34.3z"/>
<path class="st0" d="M88.7,23.5c0,2.1,0,4,0,6.2c1.3-1.3,2.7-1.9,4.4-1.9c3.1,0,5,1.8,5,4.9c0,2,0,4.1,0,6.2C97,39.1,96,39,94.8,39
	c0-2.1,0-4.1,0-6.1c0-2.3-1.7-3.4-3.9-2.6c-1.6,0.6-2.1,2-2.1,3.5c0,1.7,0,3.4,0,5.1c-1.1,0.3-2.1,0.1-3.2,0.1c0-5.1,0-10.2,0-15.4
	C86.4,23.4,87.5,23.5,88.7,23.5z"/>
<path class="st0" d="M175.9,36.1c1.1,0,2.2,0,3.3,0c0,1.4-0.9,2.1-1.9,2.5c-2.7,1.1-5.6,1.2-8.3,0.1c-2-0.8-2.9-2.5-3-4.7
	c-0.1-2.3,0.5-4.2,2.7-5.3c2.4-1.2,5-1.3,7.5-0.4s3.6,2.9,3.5,6c-3.3,0-6.6,0-10,0c-0.2,1.5,0.6,2.2,1.6,2.7
	C172.9,37.8,174.6,37.5,175.9,36.1z M176,32.4c-0.3-1.8-1.7-2.7-3.5-2.6c-1.8,0.2-2.9,1.1-2.9,2.6C171.8,32.4,173.9,32.4,176,32.4z"
	/>
<path class="st0" d="M45.8,34.4c-0.1,1.5,0.6,2.3,1.7,2.7c1.7,0.7,3.3,0.4,4.7-1c0.5,0,1,0,1.6,0c0.5,0,1,0,1.6,0
	c0.2,1.3-0.7,2-1.5,2.4c-3.1,1.4-6.2,1.5-9.3-0.1c-2.1-1.2-2.5-3.3-2.3-5.5c0.2-2.1,1.2-3.6,3.2-4.4c2.1-0.8,4.3-0.9,6.5-0.2
	c2.8,0.9,4.2,3.1,3.8,6.1C52.4,34.4,49.2,34.4,45.8,34.4z M52.3,32.4c-0.4-1.9-1.9-2.8-3.7-2.6c-1.8,0.3-2.8,1.2-2.7,2.6
	C48,32.4,50.1,32.4,52.3,32.4z"/>
<path class="st0" d="M194.2,34.4c-3.3,0-6.6,0-10,0c0,1.5,0.8,2.3,2,2.8c1.7,0.6,3.2,0.4,4.4-1c1.2,0,2.2,0,3.4,0
	c-0.1,1.2-0.8,1.9-1.8,2.3c-2.8,1.3-5.7,1.3-8.5,0.2c-2-0.8-3.2-3-3.1-5.2c0.2-2.8,1.4-4.5,3.9-5.2c1.9-0.6,3.8-0.6,5.7-0.1
	C193.2,28.9,194.6,31.2,194.2,34.4z M190.7,32.3c-0.1-1.6-1.1-2.4-2.9-2.5c-1.9-0.1-3.1,0.9-3.4,2.7c1.9,0,3.7,0,5.6,0
	C190.2,32.4,190.5,32.5,190.7,32.3z"/>
<path class="st0" d="M70.3,34.4c-3.3,0-6.5,0-9.9,0c0,1.4,0.7,2.2,1.8,2.7c1.7,0.7,3.3,0.4,4.6-1c1.1,0,2.2,0,3.3,0
	c-0.1,1.2-0.7,1.9-1.6,2.3c-2.9,1.4-6,1.5-8.9,0.1c-2.2-1-2.8-3-2.7-5.3c0.1-2.2,0.9-3.8,2.9-4.7c2.5-1.1,5-1.1,7.5-0.1
	S70.8,31.6,70.3,34.4z M67.1,32.4c-0.4-1.8-1.6-2.7-3.4-2.6c-1.7,0.1-2.9,1-3.1,2.6C62.7,32.4,64.8,32.4,67.1,32.4z"/>
<path class="st0" d="M84,32.1c-1.2,0-2.2,0-3.2,0c-1.3-2-2.2-2.5-3.7-2.1c-1.4,0.4-2.2,1.9-2.2,3.8c0.1,2,0.9,3.3,2.4,3.6
	c1.5,0.4,2.6-0.3,3.6-2.1c1.1,0,2.1-0.1,3.3,0.1c-0.1,2-1.4,3.1-3.1,3.6c-1.8,0.6-3.7,0.6-5.5,0.1c-2.8-0.7-4-2.6-3.9-5.8
	c0-2.7,1.5-4.5,4-5.2c2-0.5,3.9-0.4,5.8,0.3C83,29,83.9,30.2,84,32.1z"/>
<path class="st0" d="M155.3,28.1c0.3,0.8,0.2,1.4,0.1,2.1c-1.2,0.4-2.4-0.1-3.7,0.3c0.1,2.1-0.3,4.2,0.2,6c1.2,1,2.3,0.4,3.4,0.5
	c0.3,0.7,0.2,1.3,0,2c-1.6,0.4-3.2,0.5-4.9,0.1c-1.3-0.3-2.1-1.2-2.1-2.7c-0.1-1.9,0-3.8,0-5.7c-1-0.6-1.9-0.1-2.9-0.4
	c-0.3-0.6-0.1-1.2-0.1-2c1,0,1.9-0.1,2.8-0.1c0.4-0.7,0.1-1.4,0.3-2.1c0.9-0.4,1.9-0.7,3.1-0.9c0,1,0.1,2,0.1,3
	C152.9,28.1,154.1,28.1,155.3,28.1z"/>
<path class="st0" d="M156.9,28.3c0.9-0.3,1.9-0.1,2.8-0.1c0.5,0.4,0.1,0.9,0.5,1.5c1.3-2.1,3.3-1.7,5.3-1.6c0.3,0.9,0.2,1.7,0.1,2.4
	c-0.6,0.3-1,0-1.5,0c-2.5,0-3.8,1.2-3.9,3.7c-0.1,1.5,0,3,0,4.5c-1.1,0.3-2.2,0.2-3.3,0.1C156.9,35.4,156.9,31.9,156.9,28.3z"/>
<rect x="25" y="44" class="st1" width="180" height="0.7"/>
<g>
	<path class="st0" d="M27.6,56.4l-1,3.2h-1.4l3.4-10.1h1.6l3.4,10.1h-1.4l-1.1-3.2H27.6z M30.9,55.3l-1-2.9
		c-0.2-0.7-0.4-1.3-0.5-1.8h0c-0.1,0.6-0.3,1.2-0.5,1.8l-1,2.9H30.9z"/>
	<path class="st0" d="M49.9,55.1c-0.1-1.4-0.2-3.1-0.1-4.4h0c-0.3,1.2-0.8,2.4-1.3,3.8l-1.8,4.9h-1L44,54.7
		c-0.5-1.4-0.9-2.7-1.2-3.9h0c0,1.3-0.1,3-0.2,4.5l-0.3,4.3h-1.2l0.7-10.1h1.7l1.7,4.9c0.4,1.2,0.8,2.4,1,3.4h0
		c0.3-1,0.6-2.1,1.1-3.4l1.8-4.9h1.7l0.6,10.1h-1.3L49.9,55.1z"/>
	<path class="st0" d="M56.2,49.4v6c0,2.3,1,3.2,2.4,3.2c1.5,0,2.5-1,2.5-3.2v-6h1.3v5.9c0,3.1-1.6,4.4-3.8,4.4
		c-2.1,0-3.6-1.2-3.6-4.3v-6H56.2z"/>
	<path class="st0" d="M66.2,49.4h1.3v9h4.3v1.1h-5.6V49.4z"/>
	<path class="st0" d="M75.4,50.5h-3.1v-1.1h7.5v1.1h-3.1v9h-1.3V50.5z"/>
	<path class="st0" d="M83.7,49.4v10.1h-1.3V49.4H83.7z"/>
	<path class="st0" d="M87.5,49.5c0.6-0.1,1.5-0.2,2.5-0.2c1.3,0,2.2,0.3,2.8,0.8c0.6,0.5,0.9,1.2,0.9,2.1c0,0.9-0.3,1.6-0.8,2.2
		c-0.7,0.7-1.8,1.1-3.1,1.1c-0.4,0-0.7,0-1-0.1v4h-1.3V49.5z M88.8,54.4c0.3,0.1,0.6,0.1,1.1,0.1c1.6,0,2.5-0.8,2.5-2.2
		c0-1.3-0.9-2-2.4-2c-0.6,0-1,0-1.2,0.1V54.4z"/>
	<path class="st0" d="M97,49.4h1.3v9h4.3v1.1H97V49.4z"/>
	<path class="st0" d="M107.2,56.4l-1,3.2h-1.4l3.4-10.1h1.6l3.4,10.1h-1.4l-1.1-3.2H107.2z M110.5,55.3l-1-2.9
		c-0.2-0.7-0.4-1.3-0.5-1.8h0c-0.1,0.6-0.3,1.2-0.5,1.8l-1,2.9H110.5z"/>
	<path class="st0" d="M116.3,59.5V49.4h1.4l3.2,5.1c0.8,1.2,1.3,2.2,1.8,3.3l0,0c-0.1-1.4-0.1-2.6-0.1-4.2v-4.2h1.2v10.1h-1.3
		l-3.2-5.1c-0.7-1.1-1.4-2.3-1.9-3.4l0,0c0.1,1.3,0.1,2.5,0.1,4.2v4.3H116.3z"/>
	<path class="st0" d="M132.4,59.5V49.4h1.4l3.2,5.1c0.8,1.2,1.3,2.2,1.8,3.3l0,0c-0.1-1.4-0.1-2.6-0.1-4.2v-4.2h1.2v10.1h-1.3
		l-3.2-5.1c-0.7-1.1-1.4-2.3-1.9-3.4l0,0c0.1,1.3,0.1,2.5,0.1,4.2v4.3H132.4z"/>
	<path class="st0" d="M149,54.8h-3.9v3.6h4.4v1.1h-5.7V49.4h5.5v1.1h-4.2v3.2h3.9V54.8z"/>
	<path class="st0" d="M154.8,50.5h-3.1v-1.1h7.5v1.1h-3.1v9h-1.3V50.5z"/>
	<path class="st0" d="M164.1,59.5l-2.6-10.1h1.4l1.2,5.1c0.3,1.3,0.6,2.5,0.8,3.5h0c0.2-1,0.5-2.2,0.8-3.5l1.3-5.1h1.4l1.2,5.1
		c0.3,1.2,0.6,2.4,0.7,3.5h0c0.2-1.1,0.5-2.2,0.8-3.5l1.3-5.1h1.3L171,59.5h-1.4l-1.3-5.3c-0.3-1.3-0.5-2.3-0.7-3.3h0
		c-0.2,1-0.4,2-0.8,3.3l-1.4,5.3H164.1z"/>
	<path class="st0" d="M185.3,54.4c0,3.5-2.1,5.3-4.7,5.3c-2.7,0-4.5-2.1-4.5-5.1c0-3.2,2-5.3,4.7-5.3
		C183.5,49.3,185.3,51.4,185.3,54.4z M177.5,54.5c0,2.2,1.2,4.1,3.2,4.1c2.1,0,3.2-1.9,3.2-4.2c0-2-1-4.1-3.2-4.1
		C178.5,50.3,177.5,52.3,177.5,54.5z"/>
	<path class="st0" d="M188.5,49.6c0.7-0.1,1.6-0.2,2.5-0.2c1.4,0,2.3,0.3,2.9,0.8c0.5,0.5,0.8,1.1,0.8,1.9c0,1.3-0.8,2.2-1.9,2.6v0
		c0.8,0.3,1.2,1,1.5,2c0.3,1.4,0.6,2.4,0.8,2.8h-1.3c-0.2-0.3-0.4-1.2-0.7-2.4c-0.3-1.4-0.8-1.9-2-2h-1.2v4.4h-1.3V49.6z
		 M189.8,54.2h1.3c1.4,0,2.3-0.8,2.3-1.9c0-1.3-0.9-1.9-2.3-1.9c-0.6,0-1.1,0.1-1.3,0.1V54.2z"/>
	<path class="st0" d="M198.1,49.4h1.3v4.9h0c0.3-0.4,0.5-0.8,0.8-1.1l3.1-3.8h1.6l-3.7,4.3l3.9,5.8h-1.5l-3.3-5l-1,1.1v3.9h-1.3
		V49.4z"/>
</g>
</svg>
