<?xml version="1.0" encoding="utf-8"?>
<!-- Generator: Adobe Illustrator 22.0.1, SVG Export Plug-In . SVG Version: 6.00 Build 0)  -->
<svg version="1.1" id="Layer_1" xmlns="http://www.w3.org/2000/svg" xmlns:xlink="http://www.w3.org/1999/xlink" x="0px" y="0px"
	 viewBox="0 0 100 100" enable-background="new 0 0 100 100" xml:space="preserve">
<g>
	<path fill="#D5DEE7" d="M43.9,6c-4.4-3.1-9.3-5.1-14.5-6h-0.1v0.1c-3.1,4.3-5.1,9.2-6,14.5v0.1h0.1c5.1,0.6,10.1,2.6,14.4,5.9
		l0.2,0.1v-0.2c0.7-5.3,2.8-10.3,6-14.3L43.9,6L43.9,6z"/>
	<path fill="#D5DEE7" d="M76.7,85.3c-5.1-0.6-10.1-2.6-14.4-5.9l-0.2-0.1v0.2c-0.7,5.3-2.8,10.3-6,14.3L56,93.9l0.1,0.1
		c4.4,3.1,9.3,5.1,14.5,6h0.1v-0.1C73.8,95.5,75.8,90.7,76.7,85.3L76.7,85.3L76.7,85.3z"/>
	<path fill="#D5DEE7" d="M76.8,14.6c-0.9-5.3-3-10.2-6-14.5V0h-0.1c-5.3,0.9-10.2,2.9-14.5,6L56,6.1l0.1,0.1c3.2,4,5.3,9,6,14.3v0.2
		l0.2-0.1c4.3-3.3,9.3-5.3,14.4-5.9h0.1L76.8,14.6z"/>
	<path fill="#D5DEE7" d="M43.9,93.8c-3.2-4-5.3-9-6-14.3v-0.2l-0.2,0.1c-4.3,3.3-9.3,5.3-14.4,5.9h-0.1v0.1c0.9,5.3,3,10.1,6,14.5
		v0.1h0.1c5.3-0.9,10.2-2.9,14.5-6L43.9,93.8L43.9,93.8z"/>
	<path fill="#D5DEE7" d="M57.6,24.9c-1.5-5-4-9.5-7.5-13.4L50,11.4l-0.1,0.1c-3.4,3.9-6,8.5-7.5,13.4V25v0.1
		c3.3,3.8,5.9,8.5,7.4,13.5L50,39l0.1-0.4c1.5-5,4.1-9.7,7.4-13.5L57.6,24.9L57.6,24.9z"/>
	<path fill="#D5DEE7" d="M57.6,75c-3.3-3.8-5.9-8.5-7.4-13.5L50,61l-0.1,0.4c-1.5,5-4.1,9.7-7.4,13.5V75v0.1
		C44,80,46.6,84.6,50,88.5l0.1,0.1l0.1-0.1C53.6,84.6,56.2,80,57.6,75L57.6,75L57.6,75z"/>
	<path fill="#D5DEE7" d="M38.6,49.9c-5.1-1.5-9.7-4.1-13.5-7.4H25h-0.1C20,44,15.4,46.6,11.5,50h-0.1l0.1,0.1
		c3.9,3.4,8.5,6,13.4,7.5H25h0.1c3.8-3.3,8.5-5.9,13.5-7.4L39,50L38.6,49.9z"/>
	<path fill="#D5DEE7" d="M88.5,49.9c-3.9-3.4-8.5-6-13.4-7.5H75h-0.1c-3.8,3.3-8.5,5.9-13.5,7.4L61,50l0.4,0.1
		c5,1.5,9.7,4.1,13.5,7.4H75h0.1C80,56,84.6,53.4,88.5,49.9L88.5,49.9L88.5,49.9z"/>
	<path fill="#D5DEE7" d="M20.5,62.1c-5.3-0.7-10.3-2.8-14.3-6L6.1,56L6,56.1c-3.1,4.4-5.1,9.3-6,14.5v0.1h0.1
		c4.4,3.1,9.2,5.1,14.5,6h0.1v-0.1c0.6-5.1,2.6-10.1,5.9-14.4l0.1-0.2L20.5,62.1z"/>
	<path fill="#D5DEE7" d="M99.9,29.2c-4.4-3.1-9.2-5.1-14.5-6h-0.1v0.1c-0.6,5.1-2.6,10.1-5.9,14.4l-0.1,0.2h0.2
		c5.3,0.7,10.3,2.8,14.3,6l0.1,0.1l0.1-0.1c3.1-4.4,5.1-9.3,6-14.5L99.9,29.2L99.9,29.2z"/>
	<path fill="#D5DEE7" d="M20.6,37.7c-3.3-4.3-5.3-9.3-5.9-14.4v-0.1h-0.1c-5.3,0.9-10.1,3-14.5,6H0v0.1c0.9,5.3,2.9,10.2,6,14.5
		L6.1,44l0.1-0.1c4-3.2,9-5.3,14.3-6h0.2L20.6,37.7z"/>
	<path fill="#D5DEE7" d="M100,70.6c-0.9-5.3-2.9-10.2-6-14.5L93.9,56l-0.1,0.1c-4,3.2-9,5.3-14.3,6h-0.2l0.1,0.2
		c3.3,4.3,5.3,9.3,5.9,14.4v0.1h0.1c5.3-0.9,10.2-3,14.5-6L100,70.6L100,70.6z"/>
	<path fill="#D5DEE7" d="M42,41.8c-2.5-4.6-4-9.8-4.3-14.8v-0.1h-0.1c-4.5-2.4-9.6-3.9-14.8-4.2h-0.2v0.2c0.3,5.1,1.7,10.3,4.2,14.8
		v0.1h0.1c5.1,0.3,10.2,1.8,14.8,4.3l0.4,0.2L42,41.8z"/>
	<path fill="#D5DEE7" d="M77.3,77.1C77,72,75.5,66.9,73.1,62.4v-0.1H73C67.9,62,62.8,60.5,58.2,58l-0.4-0.2l0.2,0.4
		c2.5,4.6,4,9.8,4.3,14.8v0.1h0.1c4.5,2.4,9.6,3.9,14.8,4.2h0.2L77.3,77.1z"/>
	<path fill="#D5DEE7" d="M41.8,58c-4.6,2.5-9.8,4-14.8,4.3h-0.1v0.1c-2.4,4.5-3.9,9.6-4.2,14.8v0.2h0.2c5.1-0.3,10.3-1.7,14.8-4.2
		h0.1v-0.1c0.3-5.1,1.8-10.2,4.3-14.8l0.2-0.4L41.8,58z"/>
	<path fill="#D5DEE7" d="M77.1,22.7c-5.2,0.3-10.2,1.7-14.8,4.2h-0.1V27C62,32.1,60.5,37.2,58,41.8l-0.2,0.4l0.4-0.2
		c4.6-2.5,9.8-4,14.8-4.3h0.1v-0.1c2.4-4.5,3.9-9.6,4.2-14.8v-0.2L77.1,22.7z"/>
</g>
</svg>
