<?xml version="1.0" encoding="utf-8"?>
<!-- Generator: Adobe Illustrator 22.0.1, SVG Export Plug-In . SVG Version: 6.00 Build 0)  -->
<svg version="1.1" id="Layer_1" xmlns="http://www.w3.org/2000/svg" xmlns:xlink="http://www.w3.org/1999/xlink" x="0px" y="0px"
	 viewBox="0 0 176 176" enable-background="new 0 0 176 176" xml:space="preserve">
<path fill="#FFFFFF" d="M88,17.9C72.2,2.4,52.8,2.6,52.8,2.6S38.6,14.6,38.4,38.4C14.9,39,2.6,52.7,2.6,52.7s-1,17.9,14.7,35.1
	C2.3,104.1,2.5,123.3,2.5,123.3s12,13.1,35.7,14.6c0.4,23.5,14.6,35.6,14.6,35.6s18,0.3,35-14.3c17.3,14.3,35.7,13.7,35.7,13.7
	s13.4-10.4,15.1-34.7c22.5-1.3,34.8-15.2,34.8-15.2s0.2-19.9-14.2-35.2c14.4-17.2,14-35.3,14-35.3S160.4,38.8,138.5,38
	c-1.5-22.5-15.1-35.5-15.1-35.5S103.2,2.4,88,17.9z"/>
<g>
	<path fill="#5E89AF" d="M78.6,19.3c-6.8-4.8-14.5-7.9-22.6-9.3h-0.1l-0.1,0.1c-4.8,6.8-8,14.4-9.5,22.6V33h0.2
		c8,1,15.8,4.1,22.4,9.1l0.2,0.2v-0.4c1.1-8.3,4.3-16,9.3-22.4L78.6,19.3L78.6,19.3z"/>
	<path fill="#5E89AF" d="M129.6,142.8c-8-1-15.8-4.1-22.4-9.2l-0.2-0.2v0.4c-1.1,8.3-4.3,16-9.3,22.4l-0.1,0.1l0.2,0.1
		c6.8,4.8,14.5,7.9,22.6,9.3h0.1l0.1-0.1c4.8-6.8,8-14.4,9.5-22.6v-0.2L129.6,142.8z"/>
	<path fill="#9AB0C7" d="M129.8,32.7c-1.4-8.3-4.5-15.8-9.5-22.6l-0.1-0.1h-0.1c-8.3,1.4-15.8,4.5-22.6,9.3l-0.2,0.1l0.1,0.1
		c5,6.3,8.3,14,9.3,22.4v0.4l0.2-0.2c6.7-5,14.4-8.3,22.4-9.1h0.2L129.8,32.7z"/>
	<path fill="#3B678F" d="M78.6,156.2c-5-6.3-8.3-14-9.3-22.4v-0.4l-0.2,0.2c-6.7,5.1-14.5,8.3-22.4,9.2h-0.2v0.2
		c1.4,8.3,4.5,15.8,9.5,22.6l0.1,0.1h0.1c8.3-1.4,15.8-4.5,22.6-9.3l0.2-0.1L78.6,156.2z"/>
	<path fill="#5E89AF" d="M99.8,48.8c-2.4-7.8-6.2-14.8-11.7-20.8L88,27.7l-0.1,0.1c-5.4,6-9.3,13.3-11.7,20.8v0.1l0.1,0.1
		c5.3,6,9.2,13.3,11.6,21.1l0.2,0.7l0.2-0.7C90.8,62,94.7,54.7,99.8,48.8L99.8,48.8L99.8,48.8z"/>
	<path fill="#5E89AF" d="M99.7,126.8c-5.3-6-9.2-13.3-11.6-21.1l-0.2-0.7l-0.2,0.7c-2.4,7.9-6.3,15.2-11.6,21.1l-0.1,0.1v0.1
		c2.3,7.7,6.3,14.8,11.7,20.8l0.1,0.1l0.1-0.1c5.4-6,9.3-13.2,11.7-20.8L99.7,126.8L99.7,126.8z"/>
	<path fill="#3B678F" d="M70.2,87.6C62.3,85.2,55,81.3,49.1,76L49,75.9h-0.1c-7.7,2.3-14.8,6.3-20.8,11.7l-0.2,0.2l0.1,0.1
		c6,5.4,13.3,9.3,20.8,11.7h0.1l0.1-0.1c6-5.3,13.3-9.2,21.1-11.6l0.7-0.2L70.2,87.6z"/>
	<path fill="#9AB0C7" d="M147.9,87.8c-6-5.4-13.2-9.3-20.8-11.7H127l-0.1,0.1c-6,5.3-13.3,9.2-21.1,11.6l-0.7,0.2l0.7,0.2
		c7.9,2.4,15.2,6.3,21.1,11.6l0.1,0.1h0.1c7.7-2.3,14.8-6.3,20.8-11.7l0.1-0.1L147.9,87.8z"/>
	<path fill="#3B678F" d="M42.1,106.7c-8.3-1.1-16-4.3-22.4-9.3l-0.1-0.1l-0.1,0.2c-4.8,6.8-7.9,14.5-9.3,22.6v0.1h0.1
		c6.8,4.8,14.4,8,22.6,9.5h0.2v-0.2c1-8,4.1-15.8,9.1-22.4l0.2-0.2L42.1,106.7z"/>
	<path fill="#9AB0C7" d="M165.8,55.6c-6.8-4.8-14.4-8-22.6-9.5h-0.2v0.2c-1,8-4.1,15.8-9.2,22.4l-0.2,0.2h0.4
		c8.3,1.1,16,4.3,22.4,9.3l0.1,0.1l0.1-0.2C161.2,71.4,164.3,63.7,165.8,55.6L165.8,55.6L165.8,55.6z"/>
	<path fill="#5E89AF" d="M42.2,68.7c-5-6.7-8.3-14.4-9.1-22.4v-0.2h-0.2c-8.3,1.4-15.9,4.5-22.6,9.5h-0.1v0.1
		c1.4,8.3,4.5,15.8,9.3,22.6l0.1,0.2l0.1-0.1c6.3-5,14-8.3,22.4-9.3h0.4L42.2,68.7z"/>
	<path fill="#5E89AF" d="M165.9,120.1c-1.4-8.3-4.5-15.8-9.3-22.6l-0.1-0.2l-0.1,0.1c-6.3,5-14,8.3-22.4,9.3h-0.4l0.2,0.2
		c5.1,6.7,8.3,14.5,9.2,22.4v0.2h0.2C151.5,128.1,159.1,125,165.9,120.1L165.9,120.1L165.9,120.1z"/>
	<path fill="#5E89AF" d="M75.6,75.2C71.6,68,69.3,60,68.9,52.1V52h-0.1c-7.1-3.8-15-6-23-6.5h-0.2v0.2c0.5,8,2.8,16,6.5,23v0.1h0.1
		c7.9,0.5,15.9,2.9,23.1,6.7l0.6,0.4L75.6,75.2z"/>
	<path fill="#5E89AF" d="M130.5,130.1c-0.5-8-2.8-15.9-6.5-23V107h-0.1c-7.9-0.5-15.9-2.9-23.1-6.7l-0.6-0.4l0.4,0.6
		c3.8,7.2,6.2,15.2,6.7,23.1v0.1h0.1c7.1,3.8,15,6,23,6.5L130.5,130.1L130.5,130.1z"/>
	<path fill="#3B678F" d="M75.3,100.3c-7.2,3.8-15.2,6.2-23.1,6.7h-0.1v0.1c-3.8,7.1-6,15-6.5,23v0.2h0.2c8-0.5,16-2.8,23-6.5H69
		v-0.1c0.5-7.9,2.9-15.9,6.7-23.1l0.4-0.6L75.3,100.3z"/>
	<path fill="#9AB0C7" d="M130.2,45.4c-8.1,0.5-15.9,2.6-23,6.5h-0.1V52c-0.5,7.9-2.9,15.9-6.7,23.1l-0.4,0.6l0.6-0.4
		c7.2-3.8,15.2-6.2,23.1-6.7h0.1v-0.1c3.8-7.1,6-15,6.5-23v-0.2L130.2,45.4z"/>
</g>
</svg>
