<?xml version="1.0" encoding="utf-8"?>
<!-- Generator: Adobe Illustrator 22.0.1, SVG Export Plug-In . SVG Version: 6.00 Build 0)  -->
<svg version="1.1" id="Layer_1" xmlns="http://www.w3.org/2000/svg" xmlns:xlink="http://www.w3.org/1999/xlink" x="0px" y="0px"
	 viewBox="0 0 172 64" enable-background="new 0 0 172 64" xml:space="preserve">
<g>
	<g>
		<path fill="#757576" d="M64.3,27.9h-1.7V22h-6.4v5.9h-1.7V15.2h1.7v5.5h6.4v-5.5h1.7V27.9L64.3,27.9z"/>
		<path fill="#757576" d="M66.6,23.1c0-0.9,0.2-1.8,0.5-2.5c0.4-0.7,0.9-1.3,1.5-1.7c0.5-0.4,1.4-0.6,2.2-0.6c1.3,0,2.3,0.4,3.1,1.3
			c0.8,0.9,1.2,2.1,1.2,3.5v0.1c0,0.9-0.2,1.7-0.5,2.5c-0.4,0.7-0.9,1.3-1.5,1.7c-0.7,0.4-1.4,0.6-2.3,0.6c-1.3,0-2.3-0.4-3.1-1.3
			C66.8,25.8,66.5,24.6,66.6,23.1L66.6,23.1L66.6,23.1z M68.2,23.3c0,1,0.2,1.9,0.7,2.5s1.1,1,1.9,1s1.5-0.3,2-1
			c0.5-0.6,0.7-1.5,0.7-2.7c0-1-0.2-1.9-0.7-2.5s-1.1-1-2-1c-0.8,0-1.4,0.3-1.9,1C68.5,21.2,68.2,22.2,68.2,23.3z"/>
		<path fill="#757576" d="M85.1,23.3c0,1.4-0.3,2.6-1,3.5s-1.5,1.3-2.7,1.3c-1.1,0-2-0.4-2.7-1.1v4.5h-1.6v-13h1.5l0.1,1
			c0.7-0.8,1.6-1.2,2.7-1.2s2,0.4,2.7,1.3C84.8,20.5,85.1,21.7,85.1,23.3L85.1,23.3z M83.5,23.1c0-1.1-0.2-1.9-0.7-2.5
			s-1.1-0.9-1.9-0.9c-1,0-1.7,0.4-2.2,1.3v4.5c0.5,0.9,1.2,1.3,2.2,1.3c0.8,0,1.4-0.3,1.8-0.9C83.3,25.2,83.5,24.4,83.5,23.1z"/>
		<path fill="#757576" d="M90.9,28.1c-1.3,0-2.3-0.4-3.1-1.3c-0.8-0.8-1.2-2-1.2-3.4v-0.3c0-0.9,0.2-1.8,0.5-2.5
			c0.4-0.7,0.9-1.3,1.5-1.7c0.5-0.4,1.3-0.6,2.1-0.6c1.2,0,2.2,0.4,2.9,1.2s1,2,1,3.5v0.7h-6.4c0,0.9,0.3,1.7,0.8,2.3s1.2,0.9,2,0.9
			c0.6,0,1.1-0.1,1.4-0.3c0.4-0.2,0.7-0.5,1-0.9l1,0.8C93.6,27.5,92.4,28.1,90.9,28.1z M90.7,19.6c-0.7,0-1.2,0.2-1.6,0.7
			s-0.7,1.1-0.8,2H93v-0.1c0-0.8-0.3-1.5-0.7-1.9C91.9,19.9,91.3,19.6,90.7,19.6z"/>
		<path fill="#757576" d="M108.1,22.3h-5.3v5.6h-1.7V15.2h7.9v1.4h-6.2V21h5.3L108.1,22.3L108.1,22.3z"/>
		<path fill="#757576" d="M116.1,27.9c-0.1-0.2-0.2-0.5-0.2-1c-0.7,0.8-1.6,1.2-2.7,1.2c-0.9,0-1.7-0.3-2.3-0.8s-0.9-1.2-0.9-2
			c0-1,0.4-1.7,1.1-2.3c0.7-0.5,1.8-0.8,3.2-0.8h1.6v-0.7c0-0.6-0.2-1-0.5-1.3s-0.8-0.5-1.5-0.5c-0.6,0-1.1,0.1-1.4,0.4
			c-0.4,0.3-0.6,0.6-0.6,1.1h-1.6c0-0.5,0.2-0.9,0.5-1.4c0.3-0.4,0.8-0.8,1.4-1c0.6-0.3,1.2-0.4,1.9-0.4c1.1,0,1.9,0.3,2.6,0.8
			c0.6,0.5,0.9,1.3,1,2.2v4.3c0,0.9,0.1,1.6,0.3,2.1v0.1C118,27.9,116.1,27.9,116.1,27.9z M113.5,26.7c0.5,0,1-0.1,1.4-0.4
			s0.8-0.6,1-1v-1.9h-1.3c-2,0-3,0.6-3,1.7c0,0.5,0.2,0.9,0.5,1.2C112.6,26.5,113,26.7,113.5,26.7z"/>
		<path fill="#757576" d="M121.5,18.5v1c0.7-0.8,1.6-1.2,2.8-1.2c1.3,0,2.2,0.5,2.7,1.5c0.3-0.5,0.7-0.8,1.2-1.1
			c0.5-0.3,1.1-0.4,1.8-0.4c2.1,0,3.1,1.1,3.2,3.3v6.3h-1.6v-6c0-0.7-0.2-1.2-0.5-1.5s-0.8-0.5-1.6-0.5c-0.6,0-1.1,0.2-1.5,0.5
			c-0.4,0.4-0.6,0.8-0.7,1.4v6.3h-1.6v-6.2c0-1.4-0.7-2.1-2-2.1c-1.1,0-1.8,0.5-2.2,1.4v6.9h-1.6v-9.6
			C119.9,18.5,121.5,18.5,121.5,18.5z"/>
		<path fill="#757576" d="M135.6,16.1c0-0.3,0.1-0.5,0.2-0.7c0.2-0.2,0.4-0.3,0.7-0.3s0.6,0.1,0.7,0.3c0.2,0.2,0.2,0.4,0.2,0.7
			c0,0.3-0.1,0.5-0.2,0.7c-0.2,0.2-0.4,0.3-0.7,0.3s-0.6-0.1-0.7-0.3C135.7,16.5,135.6,16.3,135.6,16.1z M137.2,27.9h-1.6v-9.4h1.6
			V27.9z"/>
		<path fill="#757576" d="M141.7,27.9H140V14.6h1.6L141.7,27.9C141.6,27.9,141.7,27.9,141.7,27.9z"/>
		<path fill="#757576" d="M147.2,25.5l2.2-7.1h1.7l-3.8,10.9c-0.6,1.6-1.5,2.4-2.8,2.4h-0.3l-0.6-0.1v-1.4h0.4c0.5,0,1-0.1,1.3-0.3
			s0.6-0.6,0.8-1.2l0.4-1l-3.4-9.3h1.8L147.2,25.5z"/>
		<path fill="#757576" d="M56.7,36.6L60.9,47l4.2-10.4h2.2v12.6h-1.7v-4.9l0.2-5.3l-4.2,10.3h-1.3L56,39l0.2,5.3v4.9h-1.7V36.6H56.7
			L56.7,36.6z"/>
		<path fill="#757576" d="M73.7,49.4c-1.3,0-2.3-0.4-3.1-1.3c-0.8-0.8-1.2-2-1.2-3.4v-0.3c0-0.9,0.2-1.8,0.5-2.5
			c0.4-0.7,0.9-1.3,1.5-1.7s1.3-0.6,2.1-0.6c1.2,0,2.2,0.4,2.9,1.2c0.7,0.8,1,2,1,3.5V45H71c0,0.9,0.3,1.7,0.8,2.3s1.2,0.9,2,0.9
			c0.6,0,1.1-0.1,1.4-0.3c0.4-0.2,0.7-0.5,1-0.9l1,0.8C76.5,48.8,75.3,49.4,73.7,49.4z M73.5,41c-0.7,0-1.2,0.2-1.6,0.7
			s-0.7,1.1-0.8,2h4.7v-0.2c0-0.8-0.3-1.5-0.7-1.9S74.3,41,73.5,41z"/>
		<path fill="#757576" d="M78.9,44.4c0-1.4,0.3-2.6,1-3.5s1.6-1.3,2.7-1.3s2,0.4,2.6,1.1v-4.9h1.6v13.4h-1.5l-0.1-1
			c-0.6,0.8-1.5,1.2-2.7,1.2c-1.1,0-2-0.4-2.7-1.3s-1-2.1-1-3.5L78.9,44.4L78.9,44.4z M80.5,44.7c0,1.1,0.2,1.9,0.7,2.5
			c0.4,0.6,1.1,0.9,1.8,0.9c1,0,1.8-0.5,2.2-1.4v-4.3c-0.5-0.9-1.2-1.3-2.2-1.3c-0.8,0-1.4,0.3-1.8,0.9
			C80.7,42.5,80.5,43.4,80.5,44.7z"/>
		<path fill="#757576" d="M89.1,37.4c0-0.3,0.1-0.5,0.2-0.7c0.2-0.2,0.4-0.3,0.7-0.3s0.6,0.1,0.7,0.3c0.2,0.2,0.2,0.4,0.2,0.7
			s-0.1,0.5-0.2,0.7c-0.2,0.2-0.4,0.3-0.7,0.3s-0.6-0.1-0.7-0.3S89.1,37.6,89.1,37.4z M90.9,49.2h-1.6v-9.4h1.6V49.2L90.9,49.2z"/>
		<path fill="#757576" d="M97.3,48.2c0.6,0,1.1-0.2,1.5-0.5s0.7-0.8,0.7-1.3h1.5c0,0.5-0.2,1.1-0.6,1.5c-0.3,0.5-0.8,0.9-1.4,1.2
			s-1.2,0.4-1.8,0.4c-1.3,0-2.3-0.4-3.1-1.3s-1.1-2-1.1-3.5v-0.3c0-0.9,0.2-1.7,0.5-2.4s0.8-1.3,1.5-1.7c0.6-0.4,1.4-0.6,2.2-0.6
			c1.1,0,1.9,0.3,2.6,1c0.7,0.6,1.1,1.5,1.1,2.5h-1.5c0-0.6-0.3-1.1-0.7-1.5c-0.4-0.4-0.9-0.6-1.5-0.6c-0.8,0-1.5,0.3-1.9,0.9
			c-0.5,0.6-0.7,1.4-0.7,2.6v0.3c0,1.1,0.2,1.9,0.7,2.5C95.8,47.8,96.4,48.2,97.3,48.2z"/>
		<path fill="#757576" d="M108.5,49.2c-0.1-0.2-0.2-0.5-0.2-1c-0.7,0.8-1.6,1.2-2.7,1.2c-0.9,0-1.7-0.3-2.3-0.8
			c-0.6-0.5-0.9-1.2-0.9-2c0-1,0.4-1.7,1.1-2.3c0.7-0.5,1.8-0.8,3.2-0.8h1.6v-0.7c0-0.6-0.2-1-0.5-1.3S107,41,106.3,41
			c-0.6,0-1.1,0.1-1.4,0.4c-0.4,0.3-0.6,0.6-0.6,1.1h-1.6c0-0.5,0.2-0.9,0.5-1.4c0.3-0.4,0.8-0.8,1.4-1c0.6-0.3,1.2-0.4,1.9-0.4
			c1.1,0,1.9,0.3,2.6,0.8c0.6,0.5,0.9,1.3,1,2.2V47c0,0.9,0.1,1.6,0.3,2.1v0.1C110.4,49.2,108.5,49.2,108.5,49.2z M105.9,48
			c0.5,0,1-0.1,1.4-0.4s0.8-0.6,1-1v-1.9H107c-2,0-3,0.6-3,1.7c0,0.5,0.2,0.9,0.5,1.2C105,47.9,105.4,48,105.9,48z"/>
		<path fill="#757576" d="M114.2,49.2h-1.6V35.8h1.6V49.2z"/>
		<path fill="#757576" d="M130.7,45.2c-0.2,1.3-0.7,2.4-1.5,3.1s-1.9,1.1-3.3,1.1c-1.5,0-2.7-0.5-3.6-1.6s-1.4-2.5-1.4-4.3v-1.2
			c0-1.2,0.2-2.2,0.6-3.1c0.4-0.9,1-1.6,1.8-2.1s1.7-0.7,2.7-0.7c1.3,0,2.4,0.4,3.2,1.1c0.8,0.8,1.3,1.8,1.4,3.1h-1.7
			c-0.1-1-0.5-1.7-0.9-2.2c-0.5-0.5-1.2-0.7-2-0.7c-1.1,0-1.9,0.4-2.5,1.2s-0.9,1.9-0.9,3.4v1.2c0,1.4,0.3,2.5,0.9,3.3
			s1.4,1.2,2.4,1.2c0.9,0,1.6-0.2,2.1-0.6c0.5-0.4,0.8-1.2,1-2.2H130.7L130.7,45.2L130.7,45.2L130.7,45.2z"/>
		<path fill="#757576" d="M136.5,49.4c-1.3,0-2.3-0.4-3.1-1.3c-0.8-0.8-1.2-2-1.2-3.4v-0.3c0-0.9,0.2-1.8,0.5-2.5
			c0.4-0.7,0.9-1.3,1.5-1.7s1.3-0.6,2.1-0.6c1.2,0,2.2,0.4,2.9,1.2s1,2,1,3.5V45h-6.4c0,0.9,0.3,1.7,0.8,2.3s1.2,0.9,2,0.9
			c0.6,0,1.1-0.1,1.4-0.3c0.4-0.2,0.7-0.5,1-0.9l1,0.8C139.4,48.8,138.2,49.4,136.5,49.4z M136.4,41c-0.7,0-1.2,0.2-1.6,0.7
			s-0.7,1.1-0.8,2h4.7v-0.2c0-0.8-0.3-1.5-0.7-1.9S137.1,41,136.4,41z"/>
		<path fill="#757576" d="M143.6,39.9l0.1,1.2c0.7-0.9,1.7-1.4,2.8-1.4c2,0,3,1.1,3,3.4v6.2h-1.6V43c0-0.7-0.2-1.2-0.5-1.5
			S146.6,41,146,41c-0.5,0-1,0.1-1.4,0.4s-0.7,0.6-0.9,1.1v6.7h-1.6v-9.3H143.6L143.6,39.9z"/>
		<path fill="#757576" d="M154.2,37.6v2.3h1.8v1.2h-1.8V47c0,0.4,0.1,0.7,0.2,0.9c0.2,0.2,0.4,0.3,0.8,0.3c0.2,0,0.4,0,0.8-0.1v1.3
			c-0.4,0.1-0.8,0.2-1.2,0.2c-0.7,0-1.3-0.2-1.6-0.7c-0.4-0.4-0.5-1.1-0.5-1.9v-5.9H151v-1.2h1.7v-2.3H154.2L154.2,37.6z"/>
		<path fill="#757576" d="M161.7,49.4c-1.3,0-2.3-0.4-3.1-1.3c-0.8-0.8-1.2-2-1.2-3.4v-0.3c0-0.9,0.2-1.8,0.5-2.5
			c0.4-0.7,0.9-1.3,1.5-1.7s1.3-0.6,2.1-0.6c1.2,0,2.2,0.4,2.9,1.2s1,2,1,3.5V45H159c0,0.9,0.3,1.7,0.8,2.3s1.2,0.9,2,0.9
			c0.6,0,1.1-0.1,1.4-0.3c0.4-0.2,0.7-0.5,1-0.9l1,0.8C164.3,48.8,163.2,49.4,161.7,49.4z M161.5,41c-0.7,0-1.2,0.2-1.6,0.7
			s-0.7,1.1-0.8,2h4.7v-0.2c0-0.8-0.3-1.5-0.7-1.9C162.7,41.2,162.1,41,161.5,41z"/>
		<path fill="#757576" d="M171.6,41.2c-0.2,0-0.5-0.1-0.8-0.1c-1.1,0-1.8,0.4-2.2,1.4v6.7H167v-9.3h1.6V41c0.5-0.8,1.3-1.3,2.3-1.3
			c0.3,0,0.6,0,0.7,0.1V41.2L171.6,41.2z"/>
	</g>
	<g>
		<path fill="#5E89AF" d="M17.9,14.5c-1.8-1.2-3.7-2-5.8-2.4l0,0l0,0c-1.2,1.7-2.1,3.7-2.4,5.8V18h0.1c2.1,0.2,4,1,5.8,2.3l0.1,0.1
			v-0.1C15.8,18.1,16.6,16.1,17.9,14.5L17.9,14.5L17.9,14.5z"/>
		<path fill="#5E89AF" d="M31,46c-2.1-0.2-4-1-5.8-2.4L25,43.5v0.1c-0.3,2.1-1.1,4.1-2.4,5.7l0,0l0,0c1.8,1.2,3.7,2,5.8,2.4l0,0l0,0
			C29.8,50.1,30.7,48.2,31,46L31,46L31,46z"/>
		<path fill="#9AB0C7" d="M31,17.8c-0.4-2.1-1.2-4.1-2.4-5.8l0,0l0,0c-2.1,0.4-4.1,1.2-5.8,2.4l0,0l0,0c1.3,1.6,2.1,3.6,2.4,5.7v0.1
			l0.1-0.1C26.9,19,28.9,18.1,31,17.8L31,17.8L31,17.8z"/>
		<path fill="#3B678F" d="M17.9,49.4c-1.3-1.6-2.1-3.6-2.4-5.7v-0.1l-0.1,0.1c-1.7,1.3-3.7,2.1-5.8,2.4H9.5v0.1
			c0.4,2.1,1.2,4.1,2.4,5.8l0,0l0,0C14.2,51.4,16.2,50.6,17.9,49.4L17.9,49.4L17.9,49.4z"/>
		<path fill="#5E89AF" d="M23.3,22.1c-0.6-2-1.6-3.8-3-5.4l0,0l0,0c-1.4,1.5-2.4,3.4-3,5.4l0,0l0,0c1.3,1.5,2.4,3.4,3,5.4l0.1,0.2
			l0.1-0.2C21,25.4,22,23.5,23.3,22.1L23.3,22.1L23.3,22.1z"/>
		<path fill="#5E89AF" d="M23.3,42c-1.3-1.5-2.4-3.4-3-5.4v-0.2l-0.1,0.2c-0.6,2-1.6,3.9-3,5.4l0,0l0,0c0.6,2,1.6,3.8,3,5.4l0,0l0,0
			C21.7,45.7,22.7,43.9,23.3,42L23.3,42L23.3,42z"/>
		<path fill="#3B678F" d="M15.7,31.9c-2-0.6-3.9-1.6-5.4-3l0,0l0,0c-2,0.6-3.8,1.6-5.4,3l0,0l0,0c1.5,1.4,3.4,2.4,5.4,3l0,0l0,0
			C11.9,33.6,13.7,32.5,15.7,31.9L15.7,31.9z"/>
		<path fill="#9AB0C7" d="M35.7,32c-1.5-1.4-3.4-2.4-5.4-3l0,0l0,0c-1.5,1.3-3.4,2.4-5.4,3h-0.2l0.2,0.1c2,0.6,3.9,1.6,5.4,3l0,0
			l0,0C32.3,34.4,34.1,33.4,35.7,32L35.7,32L35.7,32z"/>
		<path fill="#3B678F" d="M8.6,36.8c-2.1-0.3-4.1-1.1-5.7-2.4l0,0l0,0c-1.2,1.8-2,3.7-2.4,5.8l0,0l0,0c1.7,1.2,3.7,2.1,5.8,2.4h0.1
			v-0.1C6.5,40.6,7.3,38.5,8.6,36.8L8.6,36.8L8.6,36.8z"/>
		<path fill="#9AB0C7" d="M40.3,23.7c-1.7-1.2-3.7-2.1-5.8-2.4h-0.1v0.1c-0.2,2.1-1,4-2.4,5.8l-0.1,0.1H32c2.1,0.3,4.1,1.1,5.7,2.4
			l0,0l0,0C39.1,27.9,39.9,25.9,40.3,23.7L40.3,23.7L40.3,23.7z"/>
		<path fill="#5E89AF" d="M8.6,27.1c-1.3-1.7-2.1-3.7-2.3-5.8v-0.1H6.2c-2.1,0.4-4.1,1.2-5.8,2.4l0,0l0,0c0.4,2.1,1.2,4.1,2.4,5.8
			l0,0l0,0C4.6,28.3,6.5,27.5,8.6,27.1L8.6,27.1L8.6,27.1z"/>
		<path fill="#5E89AF" d="M40.3,40.3c-0.4-2.1-1.2-4.1-2.4-5.8l0,0l0,0c-1.6,1.3-3.6,2.1-5.7,2.4h-0.1l0.1,0.1
			c1.3,1.7,2.1,3.7,2.4,5.8v0.1h0.1C36.5,42.4,38.4,41.4,40.3,40.3L40.3,40.3L40.3,40.3z"/>
		<path fill="#5E89AF" d="M17.1,28.7c-1-1.9-1.6-3.9-1.7-5.9l0,0l0,0c-1.8-1-3.8-1.5-5.9-1.7H9.4v0.1c0.1,2.1,0.7,4.1,1.7,5.9l0,0
			l0,0C13.2,27.2,15.2,27.9,17.1,28.7L17.1,28.7z"/>
		<path fill="#5E89AF" d="M31.2,42.9c-0.1-2.1-0.7-4.1-1.7-5.9l0,0l0,0c-2-0.1-4.1-0.7-5.9-1.7l-0.2-0.1l0.1,0.2
			c1,1.9,1.6,3.9,1.7,5.9l0,0l0,0C27.1,42.1,29.1,42.8,31.2,42.9L31.2,42.9L31.2,42.9z"/>
		<path fill="#3B678F" d="M17,35.2c-1.9,1-3.9,1.6-5.9,1.7l0,0l0,0c-1,1.8-1.5,3.8-1.7,5.9v0.1h0.1c2.1-0.1,4.1-0.7,5.9-1.7l0,0l0,0
			C15.5,39.1,16.2,37.1,17,35.2L17,35.2z"/>
		<path fill="#9AB0C7" d="M31.2,21.1c-2.1,0.1-4.1,0.7-5.9,1.7l0,0l0,0c-0.1,2-0.7,4.1-1.7,5.9l-0.1,0.2l0.2-0.1
			c1.9-1,3.9-1.6,5.9-1.7l0,0l0,0C30.5,25.2,31.1,23.2,31.2,21.1L31.2,21.1L31.2,21.1z"/>
	</g>
</g>
</svg>
