<?xml version="1.0" encoding="utf-8"?>
<!-- Generator: Adobe Illustrator 22.0.1, SVG Export Plug-In . SVG Version: 6.00 Build 0)  -->
<svg version="1.1" id="Layer_1" xmlns="http://www.w3.org/2000/svg" xmlns:xlink="http://www.w3.org/1999/xlink" x="0px" y="0px"
	 viewBox="0 0 500 500" enable-background="new 0 0 500 500" xml:space="preserve">
<rect fill="#FFFFFF" width="500" height="500"/>
<g>
	<path fill="#5E89AF" d="M227.435,87.166c-16.194-11.386-34.28-18.826-53.754-22.114L173.374,65l-0.181,0.253
		c-11.448,16.094-18.979,34.145-22.381,53.649l-0.091,0.52l0.525,0.059c18.994,2.139,37.399,9.651,53.223,21.723l0.68,0.518
		l0.114-0.847c2.654-19.727,10.357-38.052,22.274-52.994l0.329-0.412L227.435,87.166z"/>
	<path fill="#5E89AF" d="M348.754,380.516c-18.986-2.14-37.39-9.658-53.221-21.742l-0.68-0.519l-0.114,0.848
		c-2.651,19.734-10.355,38.067-22.277,53.014l-0.329,0.412l0.432,0.304c16.194,11.386,34.28,18.826,53.755,22.114l0.307,0.051
		l0.181-0.253c11.448-16.095,18.979-34.146,22.381-53.651l0.091-0.52L348.754,380.516z"/>
	<path fill="#9AB0C7" d="M349.188,118.903c-3.403-19.504-10.933-37.555-22.381-53.649L326.626,65l-0.307,0.051
		c-19.475,3.288-37.561,10.728-53.754,22.114l-0.432,0.304l0.329,0.412c11.918,14.943,19.62,33.267,22.273,52.994l0.114,0.847
		l0.68-0.518c15.824-12.072,34.229-19.584,53.224-21.723l0.525-0.059L349.188,118.903z"/>
	<path fill="#3B678F" d="M227.538,412.118c-11.922-14.947-19.625-33.279-22.276-53.014l-0.114-0.848l-0.68,0.519
		c-15.831,12.084-34.235,19.602-53.221,21.742l-0.525,0.059l0.091,0.52c3.402,19.504,10.932,37.554,22.381,53.651l0.181,0.253
		l0.307-0.051c19.475-3.288,37.561-10.728,53.754-22.114l0.432-0.304L227.538,412.118z"/>
	<path fill="#5E89AF" d="M278.083,157.197c-5.547-18.422-14.87-35.096-27.712-49.558L250,107.221l-0.372,0.418
		c-12.662,14.26-22.244,31.396-27.711,49.558l-0.08,0.264l0.181,0.208c12.372,14.096,21.883,31.421,27.505,50.102l0.476,1.581
		l0.476-1.581c5.624-18.683,15.135-36.008,27.506-50.102l0.181-0.208L278.083,157.197z"/>
	<path fill="#5E89AF" d="M277.978,342.343c-12.376-14.105-21.886-31.421-27.503-50.081L250,290.681l-0.476,1.581
		c-5.615,18.659-15.126,35.977-27.503,50.081l-0.181,0.208l0.08,0.264c5.468,18.156,15.049,35.289,27.708,49.546l0.372,0.418
		l0.372-0.418c12.658-14.255,22.24-31.388,27.708-49.546l0.08-0.264L277.978,342.343z"/>
	<path fill="#3B678F" d="M207.771,249.524c-18.685-5.624-36.01-15.135-50.102-27.506l-0.208-0.181l-0.264,0.08
		c-18.164,5.469-35.302,15.052-49.558,27.712L107.221,250l0.418,0.372c14.258,12.661,31.394,22.244,49.558,27.712l0.264,0.08
		l0.208-0.181c14.094-12.372,31.419-21.883,50.102-27.506l1.581-0.476L207.771,249.524z"/>
	<path fill="#9AB0C7" d="M392.36,249.628c-14.254-12.658-31.387-22.24-49.545-27.708l-0.264-0.08l-0.208,0.181
		c-14.105,12.376-31.422,21.886-50.081,27.503l-1.58,0.476l1.58,0.476c18.661,5.616,35.978,15.126,50.081,27.503l0.208,0.181
		l0.264-0.08c18.158-5.468,35.291-15.05,49.545-27.708l0.418-0.372L392.36,249.628z"/>
	<path fill="#3B678F" d="M140.875,294.736c-19.727-2.654-38.052-10.357-52.994-22.274l-0.412-0.329l-0.304,0.432
		C75.78,288.758,68.34,306.843,65.051,326.32L65,326.626l0.253,0.181c16.097,11.449,34.147,18.978,53.649,22.38l0.52,0.091
		l0.059-0.525c2.138-18.992,9.649-37.397,21.722-53.223l0.518-0.68L140.875,294.736z"/>
	<path fill="#9AB0C7" d="M434.747,173.193c-16.095-11.448-34.146-18.978-53.651-22.38l-0.52-0.091l-0.059,0.525
		c-2.139,18.986-9.657,37.389-21.742,53.22l-0.519,0.68l0.848,0.114c19.736,2.651,38.068,10.355,53.016,22.277l0.412,0.329
		l0.304-0.432c11.385-16.195,18.825-34.281,22.113-53.755l0.051-0.307L434.747,173.193z"/>
	<path fill="#5E89AF" d="M141.204,204.47c-12.073-15.826-19.584-34.231-21.722-53.223l-0.059-0.525l-0.52,0.091
		c-19.505,3.402-37.554,10.932-53.649,22.38L65,173.374l0.051,0.307c3.288,19.476,10.728,37.562,22.113,53.755l0.304,0.432
		l0.412-0.329c14.942-11.918,33.267-19.621,52.994-22.274l0.847-0.114L141.204,204.47z"/>
	<path fill="#5E89AF" d="M434.949,326.319c-3.288-19.473-10.728-37.559-22.113-53.754l-0.304-0.432l-0.412,0.329
		c-14.947,11.921-33.279,19.624-53.016,22.277l-0.848,0.114l0.519,0.68c12.085,15.831,19.603,34.234,21.742,53.22l0.059,0.525
		l0.52-0.091c19.505-3.402,37.555-10.932,53.651-22.381l0.253-0.181L434.949,326.319z"/>
	<path fill="#5E89AF" d="M220.475,219.803c-9.234-17.187-14.759-36.163-15.978-54.877l-0.018-0.276l-0.243-0.13
		c-16.709-8.976-35.604-14.318-54.638-15.447l-0.558-0.033l0.033,0.558c1.129,19.034,6.47,37.928,15.447,54.638l0.13,0.243
		l0.276,0.018c18.714,1.218,37.69,6.743,54.877,15.978l1.454,0.781L220.475,219.803z"/>
	<path fill="#5E89AF" d="M350.927,350.401c-1.129-19.031-6.469-37.92-15.442-54.627l-0.13-0.243l-0.276-0.018
		c-18.724-1.222-37.694-6.743-54.859-15.966l-1.454-0.781l0.781,1.454c9.223,17.167,14.743,36.137,15.965,54.859l0.018,0.276
		l0.243,0.13c16.707,8.973,35.597,14.313,54.628,15.441l0.558,0.033L350.927,350.401z"/>
	<path fill="#3B678F" d="M219.803,279.524c-17.187,9.233-36.163,14.759-54.876,15.978l-0.276,0.018l-0.13,0.243
		c-8.977,16.708-14.319,35.602-15.448,54.638l-0.033,0.558l0.558-0.033c19.035-1.129,37.929-6.47,54.638-15.447l0.243-0.13
		l0.018-0.276c1.219-18.714,6.744-37.69,15.978-54.877l0.781-1.454L219.803,279.524z"/>
	<path fill="#9AB0C7" d="M350.402,149.074c-19.302,1.144-37.681,6.338-54.628,15.441l-0.243,0.13l-0.018,0.276
		c-1.222,18.725-6.742,37.695-15.965,54.858l-0.781,1.454l1.454-0.781c17.166-9.223,36.135-14.743,54.86-15.965l0.276-0.018
		l0.13-0.243c8.972-16.706,14.312-35.597,15.441-54.627l0.033-0.558L350.402,149.074z"/>
</g>
</svg>
