<?xml version="1.0" encoding="utf-8"?>
<!-- Generator: Adobe Illustrator 22.0.1, SVG Export Plug-In . SVG Version: 6.00 Build 0)  -->
<svg version="1.1" id="Layer_1" xmlns="http://www.w3.org/2000/svg" xmlns:xlink="http://www.w3.org/1999/xlink" x="0px" y="0px"
	 viewBox="0 0 315 315" enable-background="new 0 0 315 315" xml:space="preserve">
<circle fill="#FFFFFF" stroke="#9AB0C7" stroke-width="25" stroke-miterlimit="10" cx="157.5" cy="157.5" r="145"/>
<path fill="#3A678E" d="M232.7,116.1c7-5.1,11.7-10.7,14.4-19c-6.8,3.2-12.6,5.9-18.9,7.5c-2.5,0.6-4.5,0.6-6.8-1.4
	C209,92.7,195,90.5,180.5,97.8c-14.5,7.2-21.5,19.7-20.2,35.9c0.4,5.4-1.5,5.6-5.6,5.1c-23.8-3-44.4-12.5-61.7-29.1
	c-2.8-2.8-5.8-5.3-8.7-7.9c-9,13.6-5.3,31.8,10.6,47.8c-5.7,0.1-10.2-2.1-15.6-4c1.1,18.6,10.6,30.1,28.4,36.5
	c-5.7,1.5-10.2,1-14.8,0.8c3.4,13.3,13.4,21.1,33.1,26c-15.7,11.7-32.8,16.3-51.9,15c1.3,2.4,3.2,2.9,4.7,3.7
	c22.1,11.9,45.7,15.4,70.2,10.9c49.3-9.1,84.9-52.3,85-102.9c0-3.8,1.1-6.4,4.2-8.7c5.3-3.9,9.6-8.9,13.7-15.1
	C245.3,113.6,239.9,116.4,232.7,116.1z"/>
</svg>
