<?xml version="1.0" encoding="utf-8"?>
<!-- Generator: Adobe Illustrator 22.0.1, SVG Export Plug-In . SVG Version: 6.00 Build 0)  -->
<svg version="1.1" id="Layer_1" xmlns="http://www.w3.org/2000/svg" xmlns:xlink="http://www.w3.org/1999/xlink" x="0px" y="0px"
	 viewBox="0 0 315 315" enable-background="new 0 0 315 315" xml:space="preserve">
<circle fill="#FFFFFF" stroke="#9AB0C7" stroke-width="25" stroke-miterlimit="10" cx="157.5" cy="157.5" r="145"/>
<path fill="#3A678E" d="M251.3,199.6c4.5-27.8,4.5-55.9,0.1-83.6c-2.7-17.7-11.1-23.7-29.1-24.7C179,89,135.7,89,92.4,91.3
	c-17.8,1-26.3,7.4-29,24.9c-4.3,27.8-4.1,55.8,0.1,83.6c1.8,11.7,8,20.1,20.3,22.5c3.4,0.7,6.9,1.1,10.4,1.3
	c21.5,1.5,43,1.4,62.7,1.8c23.2-0.1,44.7-0.6,66.2-1.8C240,222.6,248.6,216.3,251.3,199.6z M141.2,180.6c-2.5,1.3-3.8,1.6-3.7-2
	c0.1-15.5,0.1-30.9,0.1-46.4c0-1.9-0.4-4.1,2.8-2.4c16,8.4,32.2,16.8,49.2,25.7C172.8,164.2,156.9,172.4,141.2,180.6z"/>
</svg>
