<?xml version="1.0" encoding="utf-8"?>
<!-- Generator: Adobe Illustrator 22.0.1, SVG Export Plug-In . SVG Version: 6.00 Build 0)  -->
<svg version="1.1" id="Layer_1" xmlns="http://www.w3.org/2000/svg" xmlns:xlink="http://www.w3.org/1999/xlink" x="0px" y="0px"
	 viewBox="0 0 315 315" enable-background="new 0 0 315 315" xml:space="preserve">
<circle fill="#FFFFFF" stroke="#9AB0C7" stroke-width="25" stroke-miterlimit="10" cx="157.5" cy="157.5" r="145"/>
<g>
	<defs>
		<path id="SVGID_1_" d="M248.7,140.1h-89V177h51.2c-4.8,23.4-24.7,36.9-51.2,36.9c-31.3,0-56.4-25.2-56.4-56.4s25.2-56.4,56.4-56.4
			c13.5,0,25.6,4.8,35.2,12.6l27.8-27.8C205.7,71.1,184,62,159.7,62c-53,0-95.5,42.5-95.5,95.5s42.5,95.5,95.5,95.5
			c47.8,0,91.2-34.7,91.2-95.5C250.9,151.8,250,145.7,248.7,140.1z"/>
	</defs>
	<clipPath id="SVGID_2_">
		<use xlink:href="#SVGID_1_"  overflow="visible"/>
	</clipPath>
	<path clip-path="url(#SVGID_2_)" fill="#FBBC05" d="M55.5,213.9V101l73.8,56.4L55.5,213.9z"/>
</g>
<g>
	<defs>
		<path id="SVGID_3_" d="M248.7,140.1h-89V177h51.2c-4.8,23.4-24.7,36.9-51.2,36.9c-31.3,0-56.4-25.2-56.4-56.4s25.2-56.4,56.4-56.4
			c13.5,0,25.6,4.8,35.2,12.6l27.8-27.8C205.7,71.1,184,62,159.7,62c-53,0-95.5,42.5-95.5,95.5s42.5,95.5,95.5,95.5
			c47.8,0,91.2-34.7,91.2-95.5C250.9,151.8,250,145.7,248.7,140.1z"/>
	</defs>
	<clipPath id="SVGID_4_">
		<use xlink:href="#SVGID_3_"  overflow="visible"/>
	</clipPath>
	<path clip-path="url(#SVGID_4_)" fill="#EA4335" d="M55.5,101l73.8,56.4l30.4-26.5l104.2-16.9V53.3H55.5V101z"/>
</g>
<g>
	<defs>
		<path id="SVGID_5_" d="M248.7,140.1h-89V177h51.2c-4.8,23.4-24.7,36.9-51.2,36.9c-31.3,0-56.4-25.2-56.4-56.4s25.2-56.4,56.4-56.4
			c13.5,0,25.6,4.8,35.2,12.6l27.8-27.8C205.7,71.1,184,62,159.7,62c-53,0-95.5,42.5-95.5,95.5s42.5,95.5,95.5,95.5
			c47.8,0,91.2-34.7,91.2-95.5C250.9,151.8,250,145.7,248.7,140.1z"/>
	</defs>
	<clipPath id="SVGID_6_">
		<use xlink:href="#SVGID_5_"  overflow="visible"/>
	</clipPath>
	<path clip-path="url(#SVGID_6_)" fill="#34A853" d="M55.5,213.9l130.2-99.8l34.3,4.3l43.8-65.1v208.4H55.5V213.9z"/>
</g>
<g>
	<defs>
		<path id="SVGID_7_" d="M248.7,140.1h-89V177h51.2c-4.8,23.4-24.7,36.9-51.2,36.9c-31.3,0-56.4-25.2-56.4-56.4s25.2-56.4,56.4-56.4
			c13.5,0,25.6,4.8,35.2,12.6l27.8-27.8C205.7,71.1,184,62,159.7,62c-53,0-95.5,42.5-95.5,95.5s42.5,95.5,95.5,95.5
			c47.8,0,91.2-34.7,91.2-95.5C250.9,151.8,250,145.7,248.7,140.1z"/>
	</defs>
	<clipPath id="SVGID_8_">
		<use xlink:href="#SVGID_7_"  overflow="visible"/>
	</clipPath>
	<path clip-path="url(#SVGID_8_)" fill="#4285F4" d="M263.9,261.6L129.3,157.5l-17.4-13L263.9,101V261.6z"/>
</g>
</svg>
