<?xml version="1.0" encoding="utf-8"?>
<!-- Generator: Adobe Illustrator 22.0.1, SVG Export Plug-In . SVG Version: 6.00 Build 0)  -->
<svg version="1.1" id="Layer_1" xmlns="http://www.w3.org/2000/svg" xmlns:xlink="http://www.w3.org/1999/xlink" x="0px" y="0px"
	 viewBox="0 0 315 315" enable-background="new 0 0 315 315" xml:space="preserve">
<circle fill="#FFFFFF" stroke="#9AB0C7" stroke-width="25" stroke-miterlimit="10" cx="157.5" cy="157.5" r="145"/>
<path fill="#3A678E" d="M203.2,247.8c22.1-2.5,37.6-15.9,43.2-36.9c2.1-7.9,2.3-16,2.4-24.1c0.3-23.7,0.9-47.4-0.6-71
	c-0.6-9.8-3.1-19.1-8.6-27.4C230,74.2,215.9,68,199.3,66.8c-13.8-1-27.8-0.8-41.7-0.8c-6.3,0-12.6,0-19-0.1
	c-10.1,0.2-20.2,0-30.1,1.8c-19.6,3.5-33,14.5-39.2,33.6c-2.9,8.9-3.1,18.2-3.2,27.5c-0.2,15.8-0.2,31.6-0.2,47.5c0,9,0.1,18,1.2,27
	c2.5,21.9,16.1,37.7,37,43.1c9.2,2.4,18.7,2.4,28.1,2.5c14.7,0.2,29.4,0.1,44.1,0.1C185.2,249,194.3,248.9,203.2,247.8z M209.5,92
	c6.9,0,12.5,5.6,12.4,12.6c0,6.8-5.6,12.4-12.6,12.4c-6.9,0-12.4-5.6-12.4-12.6C197,97.5,202.7,92,209.5,92z M115.2,157
	c0-23,19.1-41.8,42.4-41.8c23.4,0,42.2,18.9,42.1,42.6c0,23.2-19,42-42.5,42C133.9,199.7,115.2,180.7,115.2,157z"/>
</svg>
